SplineFontDB: 3.0
FontName: Istok-Bold
FullName: Istok Bold
FamilyName: Istok
Weight: Bold
Copyright: (C) 2009-2014 Andrey V. Panov(panov@canopus.iacp.dvo.ru), with Reserved Font Name Istok.
UComments: "2008-10-29: Created."
Version: 1.0.3
ItalicAngle: 0
UnderlinePosition: -204
UnderlineWidth: 102
Ascent: 1548
Descent: 500
InvalidEm: 0
LayerCount: 2
Layer: 0 0 "+BBcEMAQ0BD0EOAQ5 +BD8EOwQwBD0A" 1
Layer: 1 0 "+BB8ENQRABDUENAQ9BDgEOQAA +BD8EOwQwBD0A" 0
XUID: [1021 513 629268104 9940963]
FSType: 0
OS2Version: 0
OS2_WeightWidthSlopeOnly: 0
OS2_UseTypoMetrics: 1
CreationTime: 1225286394
ModificationTime: 1473324235
PfmFamily: 33
TTFWeight: 700
TTFWidth: 5
LineGap: 0
VLineGap: 0
Panose: 2 15 7 3 3 4 3 2 2 4
OS2TypoAscent: 1548
OS2TypoAOffset: 0
OS2TypoDescent: -500
OS2TypoDOffset: 0
OS2TypoLinegap: 410
OS2WinAscent: 1950
OS2WinAOffset: 0
OS2WinDescent: 508
OS2WinDOffset: 0
HheadAscent: 1950
HheadAOffset: 0
HheadDescent: -508
HheadDOffset: 0
OS2FamilyClass: 2048
OS2Vendor: 'PfEd'
Lookup: 258 0 0 "LGC kerning" { "LGC kerning subtable" [307,30,0] } ['kern' ('latn' <'dflt' > 'grek' <'dflt' > 'cyrl' <'dflt' > ) ]
MarkAttachClasses: 1
DEI: 91125
LangName: 1033 "" "" "" "" "" "" "" "" "Andrey V. Panov" "Andrey V. Panov" "" "http://code.google.com/p/istok" "http://code.google.com/u/andrej.panov/" "GNU General Public License with font exception" "http://www.gnu.org/licenses/gpl.html http://www.gnu.org/licenses/gpl-faq.html#FontException"
LangName: 1049 "" "+BBgEQQRCBD4EOgAA" "" "" "" "" "" "" "" "+BBAA. +BBIA. +BB8EMAQ9BD4EMgAA"
Encoding: UnicodeBmp
UnicodeInterp: none
NameList: Adobe Glyph List
DisplaySize: -48
AntiAlias: 1
FitToEm: 1
WinInfo: 8320 16 13
BeginPrivate: 8
BlueValues 47 [-34 0 1050 1070 1422 1423 1434 1468 1476 1496]
OtherBlues 41 [-420 -400 -370 -370 -310 -310 1136 1150]
BlueScale 9 0.0282857
StdHW 5 [200]
StdVW 5 [280]
StemSnapH 45 [164 180 186 196 200 224 236 244 248 256 284]
StemSnapV 29 [230 250 280 292 296 300 312]
ForceBold 4 true
EndPrivate
Grid
196 0 m 2

StartChar: dotlessi
Encoding: 305 305 0
Width: 552
Flags: HW
HStem: 0 21G<166 386> 1030 20G<166 386>
VStem: 136 280<1.18652 1048.81>
LayerCount: 2
Back
SplineSet
267 -1 m 2
 244 0 l 1
 178 0 l 1
 153.333333333 4 141 20.3333333333 141 49 c 2
 141 988 l 2
 141 1008 145.166666667 1021.83333333 153.5 1029.5 c 128
 161.833333333 1037.16666667 175 1041 193 1041 c 2
 215 1040 l 1
 254 1040 l 1
 272 1041 l 2
 302 1041 317 1024.33333333 317 991 c 2
 317 70 l 1
 318 50 l 2
 318 28 312.333333333 13.3333333333 301 6 c 1
 300.333333333 6 297.166666667 4.83333333333 291.5 2.5 c 128
 285.833333333 0.166677333333 277.666666667 -0.999989333333 267 -1 c 2
EndSplineSet
Fore
SplineSet
196 0 m 2
 156 0 136 20 136 60 c 2
 136 990 l 6
 136 1030 156 1050 196 1050 c 6
 356 1050 l 6
 396 1050 416 1030 416 990 c 6
 416 60 l 2
 416 20 396 0 356 0 c 2
 196 0 l 2
EndSplineSet
EndChar

StartChar: afii10079
Encoding: 1085 1085 1
Width: 1192
Flags: HW
HStem: 0 21G<166 386 806 1026> 448 200<416 776> 1030 20G<166 386 806 1026>
VStem: 136 280<1.18652 448 648 1048.81> 776 280<1.18652 448 648 1048.81>
LayerCount: 2
Back
SplineSet
802 448 m 5
 318 448 l 5
 318 648 l 5
 802 648 l 5
 802 448 l 5
187 0 m 2
 157 0 142 15 142 45 c 2
 142 1005 l 2
 142 1035 157 1050 187 1050 c 2
 273 1050 l 2
 303 1050 318 1035 318 1005 c 2
 318 614 l 1
 802 614 l 1
 802 1005 l 2
 802 1035 817 1050 847 1050 c 2
 933 1050 l 2
 963 1050 978 1035 978 1005 c 2
 978 45 l 2
 978 15 963 0 933 0 c 2
 847 0 l 2
 817 0 802 15 802 45 c 2
 802 482 l 1
 318 482 l 1
 318 45 l 2
 318 15 303 0 273 0 c 2
 187 0 l 2
EndSplineSet
Fore
SplineSet
196 0 m 2
 156 0 136 20 136 60 c 2
 136 990 l 2
 136 1030 156 1050 196 1050 c 2
 356 1050 l 2
 396 1050 416 1030 416 990 c 2
 416 648 l 1
 776 648 l 1
 776 990 l 2
 776 1030 796 1050 836 1050 c 2
 996 1050 l 2
 1036 1050 1056 1030 1056 990 c 2
 1056 60 l 2
 1056 20 1036 0 996 0 c 2
 836 0 l 2
 796 0 776 20 776 60 c 2
 776 448 l 1
 416 448 l 1
 416 60 l 2
 416 20 396 0 356 0 c 2
 196 0 l 2
EndSplineSet
EndChar

StartChar: o
Encoding: 111 111 2
Width: 1206
Flags: HW
HStem: -20 196<466.942 739.058> 874 196<466.942 739.058>
VStem: 80 296<278.047 771.953> 830 296<278.047 771.953>
LayerCount: 2
Fore
SplineSet
80 525 m 256
 80 695 123.833333333 828.333333333 211.5 925 c 128
 299.166666667 1021.66666667 429.666666667 1070 603 1070 c 256
 776.333333333 1070 906.833333333 1021.66666667 994.5 925 c 128
 1082.16666667 828.333333333 1126 695 1126 525 c 256
 1126 355 1082.16666667 221.666666667 994.5 125 c 128
 906.833333333 28.3333333333 776.333333333 -20 603 -20 c 256
 429.666666667 -20 299.166666667 28.3333333333 211.5 125 c 128
 123.833333333 221.666666667 80 355 80 525 c 256
376 525 m 256
 376 398.333333333 395.5 308.5 434.5 255.5 c 128
 473.5 202.5 529.666666667 176 603 176 c 256
 676.333333333 176 732.5 202.5 771.5 255.5 c 128
 810.5 308.5 830 398.333333333 830 525 c 256
 830 651.666666667 810.5 741.5 771.5 794.5 c 128
 732.5 847.5 676.333333333 874 603 874 c 256
 529.666666667 874 473.5 847.5 434.5 794.5 c 128
 395.5 741.5 376 651.666666667 376 525 c 256
EndSplineSet
EndChar

StartChar: afii10081
Encoding: 1087 1087 3
Width: 1184
Flags: HW
HStem: 0 21G<166 386 798 1018> 850 200<416 768>
VStem: 136 280<1.18652 850> 768 280<1.18652 850>
LayerCount: 2
Fore
SplineSet
196 0 m 2
 156 0 136 20 136 60 c 2
 136 990 l 2
 136 1030 156 1050 196 1050 c 2
 988 1050 l 2
 1028 1050 1048 1030 1048 990 c 2
 1048 60 l 2
 1048 20 1028 0 988 0 c 2
 828 0 l 2
 788 0 768 20 768 60 c 2
 768 850 l 1
 416 850 l 1
 416 60 l 2
 416 20 396 0 356 0 c 2
 196 0 l 2
EndSplineSet
EndChar

StartChar: afii10074
Encoding: 1080 1080 4
Width: 1212
Flags: HW
HStem: 0 21G<161.5 433 826 1046> 1030 20G<166 386 779 1046>
VStem: 136 280<407 1048.81> 796 280<1.18652 643>
DStem2: 416 407 502 65 0.453371 0.891322<0 382.633>
LayerCount: 2
Back
SplineSet
187 0 m 2
 157 0 142 15 142 45 c 2
 142 1005 l 2
 142 1035 157 1050 187 1050 c 2
 273 1050 l 2
 303 1050 318 1035 318 1005 c 2
 318 267 l 2
 318 247 317.333333333 227 316 207 c 25
 318 207 l 17
 776 1001 l 2
 794.666666667 1033.66666667 823.333333333 1050 862 1050 c 2
 983 1050 l 2
 1013 1050 1028 1035 1028 1005 c 2
 1028 45 l 2
 1028 15 1013 0 983 0 c 2
 897 0 l 2
 867 0 852 15 852 45 c 2
 852 783 l 2
 852 803 852.666666667 823 854 843 c 9
 852 843 l 17
 394 49 l 2
 375.333333333 16.3333333333 346.666666667 0 308 0 c 2
 187 0 l 2
EndSplineSet
Fore
SplineSet
187 0 m 2
 153 0 136 20 136 60 c 2
 136 990 l 2
 136 1030 156 1050 196 1050 c 2
 356 1050 l 2
 396 1050 416 1030 416 990 c 2
 416 487 l 2
 416 460.333333333 414.666666667 433.666666667 412 407 c 25
 416 407 l 17
 710 985 l 6
 732 1028.33333333 767 1050 815 1050 c 6
 1016 1050 l 6
 1056 1050 1076 1030 1076 990 c 6
 1076 60 l 6
 1076 20 1056 0 1016 0 c 6
 856 0 l 6
 816 0 796 20 796 60 c 6
 796 563 l 6
 796 590.333333333 797.333333333 617 800 643 c 29
 796 643 l 21
 502 65 l 2
 480 21.6666666667 445 0 397 0 c 2
 187 0 l 2
EndSplineSet
EndChar

StartChar: afii10088
Encoding: 1094 1094 5
Width: 1240
Flags: HW
HStem: -310 21G<985.5 1160.5> 0 200<416 762> 1030 20G<166 386 792 1012>
VStem: 136 280<200 1048.81> 762 280<200 1048.81> 958 230<-309.282 0>
LayerCount: 2
Fore
SplineSet
196 0 m 2
 156 0 136 20 136 60 c 2
 136 990 l 2
 136 1030 156 1050 196 1050 c 2
 356 1050 l 2
 396 1050 416 1030 416 990 c 2
 416 200 l 1
 762 200 l 1
 762 990 l 2
 762 1030 782 1050 822 1050 c 2
 982 1050 l 2
 1022 1050 1042 1030 1042 990 c 2
 1042 200 l 1
 1128 200 l 2
 1168 200 1188 180 1188 140 c 2
 1188 -250 l 6
 1188 -290 1169.66666667 -310 1133 -310 c 6
 1013 -310 l 6
 976.333333333 -310 958 -290 958 -250 c 6
 958 0 l 1
 196 0 l 2
EndSplineSet
EndChar

StartChar: afii10077
Encoding: 1083 1083 7
Width: 1194
Flags: HW
HStem: -20 196<58.3821 252.445> 0 21G<808 1028> 850 200<572 778>
VStem: 342 230<287.315 850> 778 280<1.18652 850>
LayerCount: 2
Fore
SplineSet
63 -8 m 260
 42.3333333333 0.666666666667 34 14.3333333333 38 33 c 6
 63 158 l 6
 67 179.333333333 78 187.666666667 96 183 c 260
 114.666666667 178.333333333 131.333333333 176 146 176 c 260
 210.666666667 176 259.5 209.166666667 292.5 275.5 c 132
 325.5 341.833333333 342 508 342 774 c 6
 342 990 l 6
 342 1030 362 1050 402 1050 c 6
 998 1050 l 6
 1038 1050 1058 1030 1058 990 c 6
 1058 60 l 6
 1058 20 1038 0 998 0 c 6
 838 0 l 6
 798 0 778 20 778 60 c 6
 778 850 l 5
 572 850 l 5
 572 723 l 6
 572 455 544.666666667 264.166666667 490 150.5 c 132
 435.333333333 36.8333333333 328 -20 168 -20 c 260
 117.333333333 -20 82.3333333333 -16 63 -8 c 260
EndSplineSet
EndChar

StartChar: p
Encoding: 112 112 8
Width: 1192
Flags: HW
HStem: -400 21G<166 386> -20 196<501.022 737.585> 874 196<501.022 737.585> 1030 20G<166 379>
VStem: 136 280<-398.813 118 276.788 773.212 932 1047.89> 816 296<265.705 784.295>
LayerCount: 2
Back
SplineSet
196 0 m 6
 156 0 136 20 136 60 c 6
 136 990 l 6
 136 1030 156 1050 196 1050 c 6
 354 1050 l 6
 394 1050 414 1030 414 990 c 6
 414 929 l 5
 418 929 l 5
 448.666666667 981.666666667 487.666666667 1018.33333333 535 1039 c 132
 582.333333333 1059.66666667 639.333333333 1070 706 1070 c 260
 810 1070 896 1037.33333333 964 972 c 132
 1032 906.666666667 1066 787.333333333 1066 614 c 6
 1066 60 l 6
 1066 20 1046 0 1006 0 c 6
 846 0 l 6
 806 0 786 20 786 60 c 6
 786 542 l 6
 786 687.333333333 776 779 756 817 c 132
 736 855 693 874 627 874 c 260
 557 874 504.333333333 846.833333333 469 792.5 c 132
 433.666666667 738.166666667 416 625.333333333 416 454 c 6
 416 60 l 6
 416 20 396 0 356 0 c 6
 196 0 l 6
EndSplineSet
Fore
SplineSet
196 -400 m 2
 156 -400 136 -380 136 -340 c 2
 136 990 l 2
 136 1030 156 1050 196 1050 c 2
 354 1050 l 2
 387.333333333 1050 405.333333333 1030 408 990 c 2
 412 932 l 1
 416 932 l 1
 450.666666667 989.333333333 489.333333333 1026.66666667 532 1044 c 128
 574.666666667 1061.33333333 626 1070 686 1070 c 256
 842.666666667 1070 952.833333333 1015.83333333 1016.5 907.5 c 128
 1080.16666667 799.166666667 1112 671.666666667 1112 525 c 256
 1112 378.333333333 1080.16666667 250.833333333 1016.5 142.5 c 128
 952.833333333 34.1666666667 842.666666667 -20 686 -20 c 256
 626 -20 574.666666667 -11.3333333333 532 6 c 128
 489.333333333 23.3333333333 450.666666667 60.6666666667 416 118 c 1
 412 118 l 1
 414.666666667 91.3333333333 416 64.6666666667 416 38 c 2
 416 -340 l 2
 416 -380 396 -400 356 -400 c 2
 196 -400 l 2
416 480 m 2
 416 390 433.833333333 316.833333333 469.5 260.5 c 128
 505.166666667 204.166666667 548 176 598 176 c 256
 688 176 746.833333333 207.5 774.5 270.5 c 128
 802.166666667 333.5 816 418.333333333 816 525 c 256
 816 631.666666667 802.166666667 716.5 774.5 779.5 c 128
 746.833333333 842.5 688 874 598 874 c 256
 548 874 505.166666667 845.833333333 469.5 789.5 c 128
 433.833333333 733.166666667 416 660 416 570 c 2
 416 480 l 2
EndSplineSet
EndChar

StartChar: afii10086
Encoding: 1092 1092 12
Width: 1738
Flags: HW
HStem: -400 21G<759 979> -20 196<447.687 648.697 1089.3 1290.31> 874 196<447.687 648.697 1089.3 1290.31> 1456 20G<759 979>
VStem: 80 296<261.877 788.123> 729 280<-398.813 113 275.045 774.955 937 1474.81> 1362 296<261.877 788.123>
CounterMasks: 1 0e
LayerCount: 2
Fore
SplineSet
80 525 m 256
 80 681.666666667 116 811.666666667 188 915 c 128
 260 1018.33333333 362.666666667 1070 496 1070 c 256
 544.666666667 1070 587 1062.16666667 623 1046.5 c 128
 659 1030.83333333 694.333333333 994.333333333 729 937 c 1
 733 937 l 1
 730.333333333 963.666666667 729 990.333333333 729 1017 c 2
 729 1416 l 2
 729 1456 749 1476 789 1476 c 2
 949 1476 l 2
 989 1476 1009 1456 1009 1416 c 2
 1009 1017 l 2
 1009 990.333333333 1007.66666667 963.666666667 1005 937 c 1
 1009 937 l 1
 1043.66666667 994.333333333 1079 1030.83333333 1115 1046.5 c 128
 1151 1062.16666667 1193.33333333 1070 1242 1070 c 256
 1375.33333333 1070 1478 1018.33333333 1550 915 c 128
 1622 811.666666667 1658 681.666666667 1658 525 c 256
 1658 368.333333333 1622 238.333333333 1550 135 c 128
 1478 31.6666666667 1375.33333333 -20 1242 -20 c 256
 1193.33333333 -20 1151 -12.1666666667 1115 3.5 c 128
 1079 19.1666666667 1043.66666667 55.6666666667 1009 113 c 1
 1005 113 l 1
 1007.66666667 86.3333333333 1009 59.6666666667 1009 33 c 6
 1009 -340 l 6
 1009 -380 989 -400 949 -400 c 6
 789 -400 l 6
 749 -400 729 -380 729 -340 c 6
 729 33 l 6
 729 59.6666666667 730.333333333 86.3333333333 733 113 c 1
 729 113 l 1
 694.333333333 55.6666666667 659 19.1666666667 623 3.5 c 128
 587 -12.1666666667 544.666666667 -20 496 -20 c 256
 362.666666667 -20 260 31.6666666667 188 135 c 128
 116 238.333333333 80 368.333333333 80 525 c 256
376 525 m 256
 376 421.666666667 389.166666667 337.666666667 415.5 273 c 128
 441.833333333 208.333333333 488.333333333 176 555 176 c 256
 606.333333333 176 648.166666667 206.166666667 680.5 266.5 c 128
 712.833333333 326.833333333 729 396.333333333 729 475 c 2
 729 575 l 2
 729 653.666666667 712.833333333 723.166666667 680.5 783.5 c 128
 648.166666667 843.833333333 606.333333333 874 555 874 c 256
 488.333333333 874 441.833333333 841.666666667 415.5 777 c 128
 389.166666667 712.333333333 376 628.333333333 376 525 c 256
1009 475 m 2
 1009 396.333333333 1025.16666667 326.833333333 1057.5 266.5 c 128
 1089.83333333 206.166666667 1131.66666667 176 1183 176 c 256
 1249.66666667 176 1296.16666667 208.333333333 1322.5 273 c 128
 1348.83333333 337.666666667 1362 421.666666667 1362 525 c 256
 1362 628.333333333 1348.83333333 712.333333333 1322.5 777 c 128
 1296.16666667 841.666666667 1249.66666667 874 1183 874 c 256
 1131.66666667 874 1089.83333333 843.833333333 1057.5 783.5 c 128
 1025.16666667 723.166666667 1009 653.666666667 1009 575 c 2
 1009 475 l 2
EndSplineSet
EndChar

StartChar: afii10094
Encoding: 1100 1100 13
Width: 1062
Flags: HW
HStem: 0 196<416 649.06> 452 196<416 649.06> 1030 20G<166 386>
VStem: 136 280<196 452 648 1048.81> 696 296<226.695 421.305>
LayerCount: 2
Back
SplineSet
196 0 m 2
 156 0 136 20 136 60 c 2
 136 990 l 2
 136 1030 156 1050 196 1050 c 2
 356 1050 l 2
 396 1050 416 1030 416 990 c 2
 416 648 l 1
 776 648 l 1
 776 990 l 2
 776 1030 796 1050 836 1050 c 2
 996 1050 l 2
 1036 1050 1056 1030 1056 990 c 2
 1056 60 l 2
 1056 20 1036 0 996 0 c 2
 836 0 l 2
 796 0 776 20 776 60 c 2
 776 448 l 1
 416 448 l 1
 416 60 l 2
 416 20 396 0 356 0 c 2
 196 0 l 2
187 0 m 2
 157 0 142 15 142 45 c 2
 142 1005 l 2
 142 1035 157 1050 187 1050 c 2
 273 1050 l 2
 303 1050 318 1035 318 1005 c 2
 318 618 l 1
 540 618 l 2
 693.333333333 618 798.666666667 589.833333333 856 533.5 c 128
 913.333333333 477.166666667 942 402.333333333 942 309 c 256
 942 215.666666667 913.333333333 140.833333333 856 84.5 c 128
 798.666666667 28.1666666667 693.333333333 0 540 0 c 2
 187 0 l 2
318 131 m 1
 494 131 l 2
 587.333333333 131 654.333333333 142.333333333 695 165 c 128
 735.666666667 187.666666667 756 235.666666667 756 309 c 256
 756 382.333333333 735.666666667 430.5 695 453.5 c 128
 654.333333333 476.5 587.333333333 488 494 488 c 2
 318 488 l 1
 318 131 l 1
EndSplineSet
Fore
SplineSet
196 0 m 2
 156 0 136 20 136 60 c 2
 136 990 l 2
 136 1030 156 1050 196 1050 c 2
 356 1050 l 2
 396 1050 416 1030 416 990 c 2
 416 648 l 1
 603 648 l 2
 763 648 867.833333333 615.666666667 917.5 551 c 128
 967.166666667 486.333333333 992 410.666666667 992 324 c 256
 992 237.333333333 967.166666667 161.666666667 917.5 97 c 128
 867.833333333 32.3333333333 763 0 603 0 c 2
 196 0 l 2
416 196 m 1
 485 196 l 2
 565 196 620.166666667 205.666666667 650.5 225 c 128
 680.833333333 244.333333333 696 277.333333333 696 324 c 256
 696 370.666666667 680.833333333 403.666666667 650.5 423 c 128
 620.166666667 442.333333333 565 452 485 452 c 2
 416 452 l 1
 416 196 l 1
EndSplineSet
EndChar

StartChar: x
Encoding: 120 120 14
Width: 1086
Flags: HW
HStem: 0 21G<49 303 783 1037.5> 366 374<356 730> 1030 20G<88 342.5 743.5 998.5>
LayerCount: 2
Back
SplineSet
326 0 m 25
 1041 1050 l 1049
6 0 m 25
 721 1050 l 1049
365 1050 m 25
 1080 0 l 1049
45 1050 m 25
 760 0 l 1049
EndSplineSet
Fore
SplineSet
92 0 m 2
 34.6666666667 0 22.6666666667 24.3333333333 56 73 c 2
 387 553 l 1
 95 977 l 2
 61.6666666667 1025.66666667 73.6666666667 1050 131 1050 c 2
 320 1050 l 2
 350 1050 372.666666667 1036.66666667 388 1010 c 2
 543 740 l 1
 698 1010 l 2
 713.333333333 1036.66666667 736 1050 766 1050 c 2
 955 1050 l 2
 1013 1050 1025 1025.66666667 991 977 c 2
 697 553 l 1
 1030 73 l 2
 1064 24.3333333333 1052 0 994 0 c 2
 805 0 l 2
 775.666666667 0 753 13.3333333333 737 40 c 2
 543 366 l 1
 349 40 l 2
 333 13.3333333333 310.333333333 0 281 0 c 2
 92 0 l 2
EndSplineSet
EndChar

StartChar: c
Encoding: 99 99 15
Width: 1086
Flags: HW
HStem: -20 196<466.724 741.627> 874 196<466.724 740.406>
VStem: 80 296<276.602 773.398>
LayerCount: 2
Back
SplineSet
80 525 m 256
 80 695 123.833333333 828.333333333 211.5 925 c 128
 299.166666667 1021.66666667 429.666666667 1070 603 1070 c 256
 776.333333333 1070 906.833333333 1021.66666667 994.5 925 c 128
 1082.16666667 828.333333333 1126 695 1126 525 c 256
 1126 355 1082.16666667 221.666666667 994.5 125 c 128
 906.833333333 28.3333333333 776.333333333 -20 603 -20 c 256
 429.666666667 -20 299.166666667 28.3333333333 211.5 125 c 128
 123.833333333 221.666666667 80 355 80 525 c 256
376 525 m 256
 376 398.333333333 395.5 308.5 434.5 255.5 c 128
 473.5 202.5 529.666666667 176 603 176 c 256
 676.333333333 176 732.5 202.5 771.5 255.5 c 128
 810.5 308.5 830 398.333333333 830 525 c 256
 830 651.666666667 810.5 741.5 771.5 794.5 c 128
 732.5 847.5 676.333333333 874 603 874 c 256
 529.666666667 874 473.5 847.5 434.5 794.5 c 128
 395.5 741.5 376 651.666666667 376 525 c 256
EndSplineSet
Fore
SplineSet
80 525 m 256
 80 695 122.666666667 828.333333333 208 925 c 128
 293.333333333 1021.66666667 424.333333333 1070 601 1070 c 256
 704.333333333 1070 784.666666667 1056.33333333 842 1029 c 128
 899.333333333 1001.66666667 945.333333333 961.666666667 980 909 c 256
 1000.66666667 877.666666667 997.333333333 853 970 835 c 282
 864 765 l 274
 834 745 807.666666667 752.666666667 785 788 c 256
 773.666666667 805.333333333 752 824 720 844 c 128
 688 864 648.333333333 874 601 874 c 256
 525.666666667 874 469.333333333 847.5 432 794.5 c 128
 394.666666667 741.5 376 651.666666667 376 525 c 256
 376 398.333333333 394.666666667 308.5 432 255.5 c 128
 469.333333333 202.5 525.666666667 176 601 176 c 256
 655 176 698.666666667 187.333333333 732 210 c 128
 765.333333333 232.666666667 796.666666667 262 826 298 c 256
 851.333333333 328.666666667 878 333 906 311 c 266
 999 238 l 282
 1027 216 1028.66666667 186.666666667 1004 150 c 256
 978 111.333333333 933.833333333 73.3333333333 871.5 36 c 128
 809.166666667 -1.33333333333 719 -20 601 -20 c 256
 424.333333333 -20 293.333333333 28.3333333333 208 125 c 128
 122.666666667 221.666666667 80 355 80 525 c 256
EndSplineSet
EndChar

StartChar: afii10068
Encoding: 1075 1075 16
Width: 916
Flags: HW
HStem: 0 21G<166 386> 850 200<416 885.766>
VStem: 136 280<1.18652 850>
LayerCount: 2
Back
SplineSet
196 0 m 6
 156 0 136 20 136 60 c 6
 136 990 l 6
 136 1030 156 1050 196 1050 c 6
 356 1050 l 6
 396 1050 416 1030 416 990 c 6
 416 648 l 5
 776 648 l 5
 776 990 l 6
 776 1030 796 1050 836 1050 c 6
 996 1050 l 6
 1036 1050 1056 1030 1056 990 c 6
 1056 60 l 6
 1056 20 1036 0 996 0 c 6
 836 0 l 6
 796 0 776 20 776 60 c 6
 776 448 l 5
 416 448 l 5
 416 60 l 6
 416 20 396 0 356 0 c 6
 196 0 l 6
EndSplineSet
Fore
SplineSet
196 0 m 6
 156 0 136 20 136 60 c 6
 136 990 l 6
 136 1030 156 1050 196 1050 c 6
 826 1050 l 6
 866 1050 886 1033.33333333 886 1000 c 6
 886 900 l 6
 886 866.666666667 866 850 826 850 c 6
 416 850 l 5
 416 60 l 6
 416 20 396 0 356 0 c 6
 196 0 l 6
EndSplineSet
EndChar

StartChar: afii10084
Encoding: 1090 1090 17
Width: 1016
Flags: HW
HStem: 0 21G<398 618> 850 200<30.2344 368 648 985.766>
VStem: 368 280<1.18652 850>
LayerCount: 2
Fore
SplineSet
90 850 m 2
 50 850 30 866.666666667 30 900 c 2
 30 1000 l 2
 30 1033.33333333 50 1050 90 1050 c 2
 926 1050 l 2
 966 1050 986 1033.33333333 986 1000 c 2
 986 900 l 2
 986 866.666666667 966 850 926 850 c 2
 648 850 l 1
 648 60 l 2
 648 20 628 0 588 0 c 2
 428 0 l 2
 388 0 368 20 368 60 c 2
 368 850 l 1
 90 850 l 2
EndSplineSet
EndChar

StartChar: n
Encoding: 110 110 18
Width: 1200
Flags: HW
HStem: 0 21G<166 386 816 1036> 874 196<509.317 745.789> 1030 20G<166 384>
VStem: 136 280<1.18652 778.694 929 1048.54> 786 280<1.18652 833.5>
LayerCount: 2
Fore
SplineSet
196 0 m 2
 156 0 136 20 136 60 c 2
 136 990 l 2
 136 1030 156 1050 196 1050 c 2
 354 1050 l 2
 394 1050 414 1030 414 990 c 2
 414 932 l 1
 418 932 l 1
 448.666666667 984.666666667 487.666666667 1020.83333333 535 1040.5 c 128
 582.333333333 1060.16666667 639.333333333 1070 706 1070 c 256
 810 1070 896 1037.33333333 964 972 c 128
 1032 906.666666667 1066 787.333333333 1066 614 c 2
 1066 60 l 2
 1066 20 1046 0 1006 0 c 2
 846 0 l 2
 806 0 786 20 786 60 c 2
 786 542 l 2
 786 687.333333333 776 779 756 817 c 128
 736 855 693 874 627 874 c 256
 557 874 504.333333333 846.833333333 469 792.5 c 128
 433.666666667 738.166666667 416 625.333333333 416 454 c 2
 416 60 l 2
 416 20 396 0 356 0 c 2
 196 0 l 2
EndSplineSet
EndChar

StartChar: afii10090
Encoding: 1096 1096 19
Width: 1774
Flags: HW
HStem: 0 200<416 750 1030 1358> 1030 20G<166 386 780 1000 1388 1608>
VStem: 136 280<200 1048.81> 750 280<200 1048.81> 1358 280<200 1048.81>
LayerCount: 2
Back
SplineSet
187 0 m 2
 157 0 142 15 142 45 c 2
 142 1005 l 2
 142 1035 157 1050 187 1050 c 2
 273 1050 l 2
 303 1050 318 1035 318 1005 c 2
 318 132 l 5
 748 132 l 5
 748 1005 l 2
 748 1035 763 1050 793 1050 c 2
 879 1050 l 2
 909 1050 924 1035 924 1005 c 2
 924 132 l 5
 1354 132 l 5
 1354 1005 l 2
 1354 1035 1369 1050 1399 1050 c 2
 1485 1050 l 2
 1515 1050 1530 1035 1530 1005 c 2
 1530 45 l 2
 1530 15 1515 0 1485 0 c 2
 187 0 l 2
EndSplineSet
Fore
SplineSet
196 0 m 2
 156 0 136 20 136 60 c 2
 136 990 l 2
 136 1030 156 1050 196 1050 c 2
 356 1050 l 2
 396 1050 416 1030 416 990 c 2
 416 200 l 1
 750 200 l 1
 750 990 l 2
 750 1030 770 1050 810 1050 c 2
 970 1050 l 2
 1010 1050 1030 1030 1030 990 c 2
 1030 200 l 1
 1358 200 l 1
 1358 990 l 2
 1358 1030 1378 1050 1418 1050 c 2
 1578 1050 l 2
 1618 1050 1638 1030 1638 990 c 2
 1638 60 l 2
 1638 20 1618 0 1578 0 c 2
 196 0 l 2
EndSplineSet
EndChar

StartChar: afii10091
Encoding: 1097 1097 20
Width: 1836
Flags: HW
HStem: -310 21G<1581.5 1756.5> 0 200<416 750 1030 1358> 1030 20G<166 386 780 1000 1388 1608>
VStem: 136 280<200 1048.81> 750 280<200 1048.81> 1358 280<200 1048.81> 1554 230<-309.282 0>
LayerCount: 2
Fore
SplineSet
196 0 m 2
 156 0 136 20 136 60 c 2
 136 990 l 2
 136 1030 156 1050 196 1050 c 2
 356 1050 l 2
 396 1050 416 1030 416 990 c 2
 416 200 l 1
 750 200 l 1
 750 990 l 2
 750 1030 770 1050 810 1050 c 2
 970 1050 l 2
 1010 1050 1030 1030 1030 990 c 2
 1030 200 l 1
 1358 200 l 1
 1358 990 l 2
 1358 1030 1378 1050 1418 1050 c 2
 1578 1050 l 2
 1618 1050 1638 1030 1638 990 c 2
 1638 200 l 1
 1724 200 l 2
 1764 200 1784 180 1784 140 c 2
 1784 -250 l 2
 1784 -290 1765.66666667 -310 1729 -310 c 2
 1609 -310 l 2
 1572.33333333 -310 1554 -290 1554 -250 c 2
 1554 0 l 1
 196 0 l 2
EndSplineSet
EndChar

StartChar: afii10069
Encoding: 1076 1076 21
Width: 1222
Flags: HW
HStem: -310 21G<69.5 244.5 967.5 1142.5> 0 200<419 744> 850 200<538 744>
VStem: 42 230<-309.282 0> 308 230<388.084 850> 744 280<200 850> 940 230<-309.282 0>
LayerCount: 2
Fore
SplineSet
97 -310 m 2
 60.3333333333 -310 42 -290 42 -250 c 2
 42 140 l 2
 42 180 62 200 102 200 c 2
 133 200 l 17
 197 238.666666667 242.166666667 307 268.5 405 c 128
 294.833333333 503 308 626 308 774 c 2
 308 990 l 2
 308 1030 328 1050 368 1050 c 2
 964 1050 l 2
 1004 1050 1024 1030 1024 990 c 2
 1024 200 l 1
 1110 200 l 2
 1150 200 1170 180 1170 140 c 2
 1170 -250 l 2
 1170 -290 1151.66666667 -310 1115 -310 c 2
 995 -310 l 2
 958.333333333 -310 940 -290 940 -250 c 2
 940 0 l 1
 272 0 l 1
 272 -250 l 2
 272 -290 253.666666667 -310 217 -310 c 2
 97 -310 l 2
419 200 m 1
 744 200 l 1
 744 850 l 1
 538 850 l 1
 538 723 l 2
 538 569 526.5 449 503.5 363 c 128
 480.5 277 452.333333333 222.666666667 419 200 c 1
EndSplineSet
EndChar

StartChar: afii10089
Encoding: 1095 1095 23
Width: 1130
Flags: HW
HStem: 380 196<404.216 544 568 686.635>
VStem: 100 280<600.839 736 990 1048.81> 714 280<1.18652 60 356 436 601.105 646 990 1048.81>
LayerCount: 2
Back
SplineSet
195 1041 m 2
 217 1040 l 1
 258 1040 l 2
 278 1040 292.166666667 1037 300.5 1031 c 128
 308.833333333 1025 313 1011.66666667 313 991 c 2
 313 727 l 2
 313 700.333333333 314.5 678.833333333 317.5 662.5 c 128
 320.5 646.166666667 326.666666667 630 336 614 c 128
 345.333333333 598 360.5 586.166666667 381.5 578.5 c 128
 402.5 570.833333333 429.666666667 567 463 567 c 2
 774 567 l 1
 774 991 l 2
 774 991.666666667 774.5 994.833333333 775.5 1000.5 c 128
 776.5 1006.16666667 777.666666667 1010.66666667 779 1014 c 128
 780.333333333 1017.33333333 782.333333333 1021.5 785 1026.5 c 0
 790.155333333 1036.16666667 801.488666667 1041 819 1041 c 2
 844 1040 l 1
 893 1040 l 2
 915.666666667 1040 930.166666667 1035.33333333 936.5 1026 c 128
 942.833333333 1016.66666667 946 999.666666667 946 975 c 2
 946 51 l 1
 942.666666667 30.3333333333 938.333333333 17 933 11 c 0
 925.666666667 3.66666666667 915 0 901 0 c 2
 848 0 l 2
 815.333333333 0 794.833333333 3.83333333333 786.5 11.5 c 128
 778.166666667 19.1666666667 774 40 774 74 c 2
 774 432 l 1
 467 432 l 2
 434.333333333 432 410.333333333 432.666666667 395 434 c 0
 326.333333333 445.333333333 267.166666667 475.166666667 217.5 523.5 c 128
 167.833333333 571.833333333 143 635.666666667 143 715 c 2
 143 987 l 2
 143 1022.33333333 156.666666667 1040 184 1040 c 1
 186.666666667 1040.66666667 190.333333333 1041 195 1041 c 2
EndSplineSet
Fore
SplineSet
100 736 m 2
 100 990 l 2
 100 1030 120 1050 160 1050 c 2
 320 1050 l 2
 360 1050 380 1030 380 990 c 2
 380 724 l 2
 380 660 394 619.333333333 422 602 c 128
 450 584.666666667 490.666666667 576 544 576 c 256
 572 576 601 579 631 585 c 128
 661 591 688.666666667 611.333333333 714 646 c 9
 714 990 l 2
 714 1030 734 1050 774 1050 c 2
 934 1050 l 2
 974 1050 994 1030 994 990 c 2
 994 60 l 2
 994 20 974 0 934 0 c 2
 774 0 l 2
 734 0 714 20 714 60 c 2
 714 356 l 2
 714 382.666666667 715.333333333 409.333333333 718 436 c 1
 712 436 l 1
 672 416 624 401.666666667 568 393 c 128
 512 384.333333333 466.666666667 380 432 380 c 256
 310.666666667 380 225 413 175 479 c 128
 125 545 100 630.666666667 100 736 c 2
EndSplineSet
EndChar

StartChar: a
Encoding: 97 97 24
Width: 1123
Flags: HW
HStem: -20 196<403.904 612.293> 0 21G<736 957> 473 193<496.056 707> 874 196<375.715 662.46>
VStem: 80 296<195.086 379.982> 707 280<1.18652 90 221.173 473 666 832.585>
LayerCount: 2
Back
SplineSet
80 280 m 256
 80 413.333333333 143.666666667 510 271 570 c 128
 398.333333333 630 543.666666667 662 707 666 c 1
 707 706 l 2
 707 767.333333333 691.666666667 810.666666667 661 836 c 128
 630.333333333 861.333333333 587.666666667 874 533 874 c 256
 487 874 442.333333333 863.333333333 399 842 c 128
 355.666666667 820.666666667 321 798.666666667 295 776 c 256
 264.333333333 749.333333333 239 748 219 772 c 258
 136 874 l 258
 115.333333333 899.333333333 120.333333333 925.333333333 151 952 c 256
 186.333333333 983.333333333 237.5 1010.83333333 304.5 1034.5 c 128
 371.5 1058.16666667 455.333333333 1070 556 1070 c 256
 694.666666667 1070 801.166666667 1038 875.5 974 c 128
 949.833333333 910 987 815.666666667 987 691 c 2
 987 60 l 2
 987 20 967 0 927 0 c 2
 763 0 l 2
 727 0 709 20 709 60 c 2
 709 90 l 1
 707 90 l 1
 667.666666667 52 620.5 24.1666666667 565.5 6.5 c 128
 510.5 -11.1666666667 460 -20 414 -20 c 256
 304.666666667 -20 221.666666667 6.83333333333 165 60.5 c 128
 108.333333333 114.166666667 80 187.333333333 80 280 c 256
376 286 m 256
 376 237.333333333 391.333333333 206.833333333 422 194.5 c 128
 452.666666667 182.166666667 479 176 501 176 c 256
 535 176 568 180.666666667 600 190 c 128
 632 199.333333333 667.666666667 221.333333333 707 256 c 9
 707 473 l 1
 595.666666667 463.666666667 512.666666667 442.5 458 409.5 c 128
 403.333333333 376.5 376 335.333333333 376 286 c 256
EndSplineSet
Fore
SplineSet
80 280 m 256
 80 413.333333333 143.666666667 510 271 570 c 128
 398.333333333 630 543.666666667 662 707 666 c 1
 707 706 l 2
 707 767.333333333 691.666666667 810.666666667 661 836 c 128
 630.333333333 861.333333333 587.666666667 874 533 874 c 256
 494.333333333 874 460.166666667 868.5 430.5 857.5 c 128
 400.833333333 846.5 375.105666667 833.891333333 353.317 819.674 c 128
 331.528333333 805.456 312.089333333 790.898 295 776 c 256
 264.333333333 749.333333333 239 748 219 772 c 258
 136 874 l 258
 115.333333333 899.333333333 120.333333333 925.333333333 151 952 c 256
 174.288666667 972.652 201.444 990.648666667 232.466 1005.99 c 128
 263.488666667 1021.33 304.666666667 1035.83333333 356 1049.5 c 128
 407.333333333 1063.16666667 474 1070 556 1070 c 256
 694.666666667 1070 801.166666667 1038 875.5 974 c 128
 949.833333333 910 987 815.666666667 987 691 c 2
 987 60 l 2
 987 20 967 0 927 0 c 2
 763 0 l 2
 727 0 709 20 709 60 c 2
 709 90 l 1
 707 90 l 1
 667.666666667 52 620.5 24.1666666667 565.5 6.5 c 128
 510.5 -11.1666666667 460 -20 414 -20 c 256
 304.666666667 -20 221.666666667 6.83333333333 165 60.5 c 128
 108.333333333 114.166666667 80 187.333333333 80 280 c 256
376 286 m 256
 376 262.910666667 380.75 242.805 390.25 225.683 c 128
 399.75 208.561 414.333333333 196 434 188 c 128
 453.666666667 180 476 176 501 176 c 256
 535 176 568 180.666666667 600 190 c 128
 632 199.333333333 667.666666667 221.333333333 707 256 c 9
 707 473 l 1
 595 460.333333333 520 444 482 424 c 128
 444 404 416.833333333 383.333333333 400.5 362 c 128
 384.166666667 340.666666667 376 315.333333333 376 286 c 256
EndSplineSet
EndChar

StartChar: afii10067
Encoding: 1074 1074 26
Width: 1106
Flags: HW
HStem: 0 196<416 669.06> 447 190<416 646.397> 854 196<416 683.207>
VStem: 136 280<196 447 637 854> 699 280<675.716 832.67> 716 296<226.289 409.626>
LayerCount: 2
Back
SplineSet
187 0 m 2
 157 0 142 15 142 45 c 2
 142 1005 l 2
 142 1035 157 1050 187 1050 c 2
 510 1050 l 2
 663.333333333 1050 768.666666667 1025.16666667 826 975.5 c 128
 883.333333333 925.833333333 912 860 912 778 c 256
 912 726.666666667 903.333333333 683.166666667 886 647.5 c 128
 868.666666667 611.833333333 829.666666667 580 769 552 c 1
 769 551 l 1
 839 527.666666667 888.666666667 500.333333333 918 469 c 128
 947.333333333 437.666666667 962 375.333333333 962 282 c 256
 962 203.333333333 933 136.666666667 875 82 c 128
 817 27.3333333333 712 0 560 0 c 2
 187 0 l 2
318 131 m 1
 514 131 l 2
 607.333333333 131 674.333333333 141.166666667 715 161.5 c 128
 755.666666667 181.833333333 776 228.666666667 776 302 c 256
 776 368.666666667 752.666666667 414 706 438 c 128
 659.333333333 462 595.333333333 474 514 474 c 2
 318 474 l 1
 318 131 l 1
318 605 m 1
 474 605 l 2
 554 605 617.666666667 616.5 665 639.5 c 128
 712.333333333 662.5 736 703.333333333 736 762 c 256
 736 825.333333333 715.666666667 867.5 675 888.5 c 128
 634.333333333 909.5 567.333333333 920 474 920 c 2
 318 920 l 1
 318 605 l 1
EndSplineSet
Fore
SplineSet
196 0 m 2
 156 0 136 20 136 60 c 2
 136 990 l 2
 136 1030 156 1050 196 1050 c 2
 555 1050 l 258
 697 1050 803.166666667 1025 873.5 975 c 128
 943.833333333 925 979 865.666666667 979 797 c 256
 979 723.666666667 960.166666667 668.5 922.5 631.5 c 128
 884.833333333 594.5 843.666666667 568.333333333 799 553 c 1
 799 550 l 1
 877.666666667 523.333333333 932.833333333 489.5 964.5 448.5 c 128
 996.166666667 407.5 1012 356.666666667 1012 296 c 256
 1012 208.666666667 985.166666667 137.5 931.5 82.5 c 128
 877.833333333 27.5 775 0 623 0 c 2
 196 0 l 2
416 196 m 1
 505 196 l 2
 585 196 640.166666667 205.833333333 670.5 225.5 c 128
 700.833333333 245.166666667 716 274 716 312 c 256
 716 354 700.833333333 387 670.5 411 c 128
 640.166666667 435 585 447 505 447 c 2
 416 447 l 1
 416 196 l 1
416 637 m 1
 510 637 l 2
 568 637 614 648.333333333 648 671 c 128
 682 693.666666667 699 723.666666667 699 761 c 256
 699 803.666666667 678 829.833333333 636 839.5 c 128
 594 849.166666667 553.666666667 854 515 854 c 258
 416 854 l 1
 416 637 l 1
EndSplineSet
EndChar

StartChar: afii10092
Encoding: 1098 1098 27
Width: 1310
Flags: HW
HStem: 0 196<664 897.06> 452 196<664 897.06> 850 200<47.2344 384>
VStem: 384 280<196 452 648 850> 944 296<226.695 421.305>
LayerCount: 2
Fore
SplineSet
107 850 m 2
 67 850 47 866.666666667 47 900 c 2
 47 1000 l 2
 47 1033.33333333 67 1050 107 1050 c 2
 604 1050 l 2
 644 1050 664 1030 664 990 c 2
 664 648 l 1
 851 648 l 2
 1011 648 1115.83333333 615.666666667 1165.5 551 c 128
 1215.16666667 486.333333333 1240 410.666666667 1240 324 c 256
 1240 237.333333333 1215.16666667 161.666666667 1165.5 97 c 128
 1115.83333333 32.3333333333 1011 0 851 0 c 2
 444 0 l 2
 404 0 384 20 384 60 c 2
 384 850 l 17
 107 850 l 2
664 196 m 1
 733 196 l 2
 813 196 868.166666667 205.666666667 898.5 225 c 128
 928.833333333 244.333333333 944 277.333333333 944 324 c 256
 944 370.666666667 928.833333333 403.666666667 898.5 423 c 128
 868.166666667 442.333333333 813 452 733 452 c 2
 664 452 l 1
 664 196 l 1
EndSplineSet
EndChar

StartChar: v
Encoding: 118 118 28
Width: 1008
Flags: HW
HStem: 0 21G<379 629> 1030 20G<46 277.5 730.5 962>
LayerCount: 2
Back
SplineSet
45 1001 m 2
 33.6666666667 1033.66666667 42.6666666667 1050 72 1050 c 2
 181 1050 l 2
 202.333333333 1050 217.333333333 1037 226 1011 c 2
 438 351 l 2
 455.333333333 297 467.166666667 259.833333333 473.5 239.5 c 128
 479.833333333 219.166666667 485.666666667 194 491 164 c 1
 495 164 l 1
 500.333333333 194 506.166666667 219.166666667 512.5 239.5 c 128
 518.833333333 259.833333333 530.666666667 297 548 351 c 2
 760 1011 l 2
 768.666666667 1037 783.666666667 1050 805 1050 c 2
 914 1050 l 2
 943.333333333 1050 952.333333333 1033.66666667 941 1001 c 2
 613 61 l 2
 599 20.3333333333 581 0 559 0 c 2
 427 0 l 2
 405 0 387 20.3333333333 373 61 c 2
 45 1001 l 2
EndSplineSet
Fore
SplineSet
42 972 m 2
 25.3333333333 1024 36.3333333333 1050 75 1050 c 2
 254 1050 l 2
 285.333333333 1050 305.333333333 1033 314 999 c 2
 469 413 l 2
 477.666666667 380.333333333 484.833333333 348 490.5 316 c 128
 496.166666667 284 499.666666667 258 501 238 c 1
 507 238 l 1
 508.333333333 258 511.833333333 284 517.5 316 c 128
 523.166666667 348 530.333333333 380.333333333 539 413 c 2
 694 999 l 2
 702.666666667 1033 722.666666667 1050 754 1050 c 2
 933 1050 l 2
 971.666666667 1050 982.666666667 1024 966 972 c 2
 676 67 l 2
 662 22.3333333333 637.666666667 0 603 0 c 2
 405 0 l 2
 370.333333333 0 346 22.3333333333 332 67 c 2
 42 972 l 2
EndSplineSet
EndChar

StartChar: y
Encoding: 121 121 29
Width: 990
Flags: HW
HStem: -420 196<81.3259 293.615> 1030 20G<47 279 729 960.5>
DStem2: 378 0 964 972 0.315385 0.948964<-231.138 0 690.513 1119.44>
LayerCount: 2
Back
SplineSet
44 972 m 2
 26 1024 37 1050 77 1050 c 2
 256 1050 l 2
 286.666666667 1050 306.666666667 1033 316 999 c 2
 467 440 l 2
 474.333333333 414 480.833333333 380.5 486.5 339.5 c 128
 492.166666667 298.5 495 272.333333333 495 261 c 1
 501 261 l 1
 509 296.333333333 514.833333333 324.5 518.5 345.5 c 128
 522.166666667 366.5 532.333333333 407.333333333 549 468 c 2
 692 999 l 2
 701.333333333 1033 721.333333333 1050 752 1050 c 2
 931 1050 l 2
 970.333333333 1050 981.333333333 1024 964 972 c 2
 627 -42 l 2
 587.666666667 -160.666666667 539.333333333 -253.333333333 482 -320 c 128
 424.666666667 -386.666666667 345 -420 243 -420 c 256
 187 -420 137 -415.333333333 93 -406 c 256
 67.6666666667 -400.666666667 58 -383.333333333 64 -354 c 2
 86 -244 l 2
 92 -215.333333333 109 -205.333333333 137 -214 c 256
 157.666666667 -220.666666667 177 -224 195 -224 c 256
 249 -224 291 -196.666666667 321 -142 c 128
 351 -87.3333333333 370 -40 378 0 c 9
 44 972 l 2
42 972 m 6
 25.3333333333 1024 36.3333333333 1050 75 1050 c 6
 254 1050 l 6
 285.333333333 1050 305.333333333 1033 314 999 c 6
 469 413 l 6
 477.666666667 380.333333333 484.833333333 348 490.5 316 c 132
 496.166666667 284 499.666666667 258 501 238 c 5
 507 238 l 5
 508.333333333 258 511.833333333 284 517.5 316 c 132
 523.166666667 348 530.333333333 380.333333333 539 413 c 6
 694 999 l 6
 702.666666667 1033 722.666666667 1050 754 1050 c 6
 933 1050 l 6
 971.666666667 1050 982.666666667 1024 966 972 c 6
 676 67 l 2
 662 22.3333333333 637.666666667 0 603 0 c 2
 405 0 l 2
 370.333333333 0 346 22.3333333333 332 67 c 2
 42 972 l 6
EndSplineSet
Fore
SplineSet
44 972 m 2
 26 1024 37 1050 77 1050 c 2
 256 1050 l 2
 286.666666667 1050 306.666666667 1033 316 999 c 2
 467 440 l 2
 474.333333333 414 480.833333333 380.5 486.5 339.5 c 128
 492.166666667 298.5 495 272.333333333 495 261 c 1
 501 261 l 1
 509 296.333333333 514.833333333 324.5 518.5 345.5 c 128
 522.166666667 366.5 532.333333333 407.333333333 549 468 c 2
 692 999 l 2
 701.333333333 1033 721.333333333 1050 752 1050 c 2
 931 1050 l 2
 970.333333333 1050 981.333333333 1024 964 972 c 2
 627 -42 l 2
 587.666666667 -160.666666667 539.333333333 -253.333333333 482 -320 c 128
 424.666666667 -386.666666667 345 -420 243 -420 c 256
 187 -420 137 -415.333333333 93 -406 c 256
 67.6666666667 -400.666666667 58 -383.333333333 64 -354 c 2
 86 -244 l 2
 92 -215.333333333 109 -205.333333333 137 -214 c 256
 157.666666667 -220.666666667 177 -224 195 -224 c 256
 249 -224 290.166666667 -198.333333333 318.5 -147 c 128
 346.833333333 -95.6666666667 365.666666667 -51.6666666667 375 -15 c 2
 378 0 l 9
 44 972 l 2
EndSplineSet
EndChar

StartChar: e
Encoding: 101 101 30
Width: 1174
Flags: HW
HStem: -20 196<455.543 773.036> 428 200<377 812> 873 197<459.259 732.683>
VStem: 80 296<262.284 428 628 781.769> 812 280<628 785.662>
LayerCount: 2
Back
SplineSet
80 525 m 256
 80 695 122.666666667 828.333333333 208 925 c 128
 293.333333333 1021.66666667 424.333333333 1070 601 1070 c 256
 704.333333333 1070 784.666666667 1056.33333333 842 1029 c 128
 899.333333333 1001.66666667 945.333333333 961.666666667 980 909 c 256
 1000.66666667 877.666666667 997.333333333 853 970 835 c 282
 864 765 l 274
 834 745 807.666666667 752.666666667 785 788 c 256
 773.666666667 805.333333333 752 824 720 844 c 128
 688 864 648.333333333 874 601 874 c 256
 525.666666667 874 469.333333333 847.5 432 794.5 c 128
 394.666666667 741.5 376 651.666666667 376 525 c 256
 376 398.333333333 394.666666667 308.5 432 255.5 c 128
 469.333333333 202.5 525.666666667 176 601 176 c 256
 655 176 698.666666667 187.333333333 732 210 c 128
 765.333333333 232.666666667 796.666666667 262 826 298 c 256
 851.333333333 328.666666667 878 333 906 311 c 266
 999 238 l 282
 1027 216 1028.66666667 186.666666667 1004 150 c 256
 978 111.333333333 933.833333333 73.3333333333 871.5 36 c 128
 809.166666667 -1.33333333333 719 -20 601 -20 c 256
 424.333333333 -20 293.333333333 28.3333333333 208 125 c 128
 122.666666667 221.666666667 80 355 80 525 c 256
80 525 m 256
 80 695 123.833333333 828.333333333 211.5 925 c 128
 299.166666667 1021.66666667 429.666666667 1070 603 1070 c 256
 776.333333333 1070 906.833333333 1021.66666667 994.5 925 c 128
 1082.16666667 828.333333333 1126 695 1126 525 c 256
 1126 355 1082.16666667 221.666666667 994.5 125 c 128
 906.833333333 28.3333333333 776.333333333 -20 603 -20 c 256
 429.666666667 -20 299.166666667 28.3333333333 211.5 125 c 128
 123.833333333 221.666666667 80 355 80 525 c 256
376 525 m 256
 376 398.333333333 395.5 308.5 434.5 255.5 c 128
 473.5 202.5 529.666666667 176 603 176 c 256
 676.333333333 176 732.5 202.5 771.5 255.5 c 128
 810.5 308.5 830 398.333333333 830 525 c 256
 830 651.666666667 810.5 741.5 771.5 794.5 c 128
 732.5 847.5 676.333333333 874 603 874 c 256
 529.666666667 874 473.5 847.5 434.5 794.5 c 128
 395.5 741.5 376 651.666666667 376 525 c 256
EndSplineSet
Fore
SplineSet
80 525 m 256
 80 693.666666667 122.166666667 826.666666667 206.5 924 c 128
 290.833333333 1021.33333333 410 1070 564 1070 c 256
 742.666666667 1070 875.333333333 1024 962 932 c 128
 1048.66666667 840 1092 692 1092 488 c 0
 1092 448 1073.33333333 428 1036 428 c 2
 376 428 l 1
 386.666666667 317.333333333 414 247.666666667 458 219 c 128
 502 190.333333333 553 176 611 176 c 256
 666.333333333 176 708.666666667 183.333333333 738 198 c 128
 767.333333333 212.666666667 792 232.666666667 812 258 c 256
 834.666666667 287.333333333 862.666666667 292 896 272 c 266
 996 211 l 282
 1035.33333333 187 1041 158.333333333 1013 125 c 256
 972.333333333 76.3333333333 924.666666667 40 870 16 c 128
 815.333333333 -8 729 -20 611 -20 c 256
 419.666666667 -20 283.333333333 28.6666666667 202 126 c 128
 120.666666667 223.333333333 80 356.333333333 80 525 c 256
377 628 m 1
 812 628 l 1
 812 700 794 758.833333333 758 804.5 c 128
 722 850.166666667 664.666666667 873 586 873 c 256
 523.333333333 873 473.666666667 851.166666667 437 807.5 c 128
 400.333333333 763.833333333 380.333333333 704 377 628 c 1
EndSplineSet
EndChar

StartChar: i
Encoding: 105 105 31
Width: 552
Flags: HW
HStem: 0 21<166 386> 1030 20<166 386> 1204 248<137.187 414.813>
VStem: 136 280<1.18652 1048.81 1205.19 1450.81>
LayerCount: 2
Back
SplineSet
139 1335 m 2
 139 1419 l 2
 142.333333333 1444.33333333 158.333333333 1457 187 1457 c 2
 209 1456 l 1
 272 1456 l 2
 286 1456 296.5 1452.33333333 303.5 1445 c 128
 310.5 1437.66666667 314.5 1431 315.5 1425 c 128
 316.5 1419 317 1411 317 1401 c 2
 317 1352 l 2
 317 1319.33333333 313.166666667 1298.83333333 305.5 1290.5 c 128
 297.833333333 1282.16666667 278.833333333 1278 248.5 1278 c 128
 218.166666667 1278 195.333333333 1278.66666667 180 1280 c 0
 152.666666667 1280 139 1298.33333333 139 1335 c 2
252 1040 m 1
 269 1041 l 2
 278.333333333 1041 286 1040.33333333 292 1039 c 128
 298 1037.66666667 302.666666667 1034.5 306 1029.5 c 128
 309.333333333 1024.5 311.5 1021.16666667 312.5 1019.5 c 128
 313.5 1017.83333333 314.5 1012.83333333 315.5 1004.5 c 128
 316.5 996.166666667 317 991.666666667 317 991 c 2
 317 58 l 2
 317 32 311 14.6666666667 299 6 c 1
 298.333333333 6 295.166666667 4.83333333333 289.5 2.5 c 128
 283.833333333 0.166677333333 276 -0.999989333333 266 -1 c 2
 242 0 l 1
 178 0 l 1
 153.333333333 4 141 20.3333333333 141 49 c 2
 139 84 l 1
 139 982 l 2
 139 1007.33333333 143.166666667 1023.33333333 151.5 1030 c 128
 159.833333333 1036.66666667 174.333333333 1040 195 1040 c 2
 252 1040 l 1
EndSplineSet
Fore
Refer: 0 305 N 1 0 0 1 0 0 3
Refer: 32 729 N 1 0 0 1 -31 0 2
EndChar

StartChar: dotaccent
Encoding: 729 729 32
Width: 614
Flags: HW
HStem: 1204 248<168.187 445.813>
VStem: 167 280<1205.19 1450.81>
LayerCount: 2
Fore
SplineSet
227 1204 m 2
 187 1204 167 1224 167 1264 c 2
 167 1392 l 2
 167 1432 187 1452 227 1452 c 2
 387 1452 l 2
 427 1452 447 1432 447 1392 c 2
 447 1264 l 2
 447 1224 427 1204 387 1204 c 2
 227 1204 l 2
EndSplineSet
EndChar

StartChar: q
Encoding: 113 113 33
Width: 1192
Flags: HW
HStem: -400 21<806 1026> -20 196<454.415 690.978> 874 196<454.415 690.978> 1030 20<813 1026>
VStem: 80 296<265.705 784.295> 776 280<-398.813 118 276.788 773.212 932 1047.89>
LayerCount: 2
Fore
SplineSet
80 525 m 256
 80 671.666666667 111.833333333 799.166666667 175.5 907.5 c 128
 239.166666667 1015.83333333 349.333333333 1070 506 1070 c 256
 566 1070 617.333333333 1061.33333333 660 1044 c 128
 702.666666667 1026.66666667 741.333333333 989.333333333 776 932 c 1
 780 932 l 1
 784 990 l 2
 786.666666667 1030 804.666666667 1050 838 1050 c 2
 996 1050 l 2
 1036 1050 1056 1030 1056 990 c 2
 1056 -340 l 2
 1056 -380 1036 -400 996 -400 c 2
 836 -400 l 2
 796 -400 776 -380 776 -340 c 2
 776 38 l 2
 776 64.6666666667 777.333333333 91.3333333333 780 118 c 1
 776 118 l 1
 741.333333333 60.6666666667 702.666666667 23.3333333333 660 6 c 128
 617.333333333 -11.3333333333 566 -20 506 -20 c 256
 349.333333333 -20 239.166666667 34.1666666667 175.5 142.5 c 128
 111.833333333 250.833333333 80 378.333333333 80 525 c 256
376 525 m 256
 376 418.333333333 389.833333333 333.5 417.5 270.5 c 128
 445.166666667 207.5 504 176 594 176 c 256
 644 176 686.833333333 204.166666667 722.5 260.5 c 128
 758.166666667 316.833333333 776 390 776 480 c 2
 776 570 l 2
 776 660 758.166666667 733.166666667 722.5 789.5 c 128
 686.833333333 845.833333333 644 874 594 874 c 256
 504 874 445.166666667 842.5 417.5 779.5 c 128
 389.833333333 716.5 376 631.666666667 376 525 c 256
EndSplineSet
EndChar

StartChar: cyrbreve
Encoding: 63188 63188 38
Width: 1212
Flags: HMW
HStem: 1130 160<494.375 717.625> 1451 20G<250 414 798 962>
LayerCount: 2
Back
SplineSet
232 1405 m 2
 230 1435 245 1450 277 1450 c 2
 353 1450 l 2
 379.666666667 1450 394.666666667 1435 398 1405 c 2
 402 1371 l 2
 407.333333333 1326.33333333 426.666666667 1298.33333333 460 1287 c 128
 493.333333333 1275.66666667 535 1270 585 1270 c 256
 635 1270 676.666666667 1275.66666667 710 1287 c 128
 743.333333333 1298.33333333 762.666666667 1326.33333333 768 1371 c 2
 772 1405 l 2
 775.333333333 1435 790.333333333 1450 817 1450 c 2
 893 1450 l 2
 925 1450 940 1435 938 1405 c 2
 934 1344 l 2
 929.333333333 1277.33333333 890.833333333 1227.66666667 818.5 1195 c 128
 746.166666667 1162.33333333 668.333333333 1146 585 1146 c 260
 501.666666667 1146 423.833333333 1162.33333333 351.5 1195 c 128
 279.166666667 1227.66666667 240.666666667 1277.33333333 236 1344 c 2
 232 1405 l 2
EndSplineSet
Fore
SplineSet
223 1412 m 2
 219 1451.33333333 239 1471 283 1471 c 2
 390 1471 l 2
 422 1471 441.666666667 1453 449 1417 c 2
 454 1392 l 2
 462.666666667 1348 481 1320 509 1308 c 128
 537 1296 569.333333333 1290 606 1290 c 256
 642.666666667 1290 675 1296 703 1308 c 128
 731 1320 749.333333333 1348 758 1392 c 2
 763 1417 l 2
 770.333333333 1453 790 1471 822 1471 c 2
 929 1471 l 2
 973 1471 993 1451.33333333 989 1412 c 2
 983 1354 l 2
 975 1276.66666667 930 1220 848 1184 c 128
 766 1148 685.333333333 1130 606 1130 c 256
 526.666666667 1130 446 1148 364 1184 c 128
 282 1220 237 1276.66666667 229 1354 c 2
 223 1412 l 2
EndSplineSet
EndChar

StartChar: afii10076
Encoding: 1082 1082 39
Width: 1085
Flags: HW
HStem: 0 21G<166 386 795 1030> 448 200<416 528.479> 1030 20G<166 386 779 1009>
VStem: 136 280<1.18652 448 648 1048.81>
DStem2: 1024 74 585 338 0.502065 -0.86483<-558.226 -32.054> 590 776 837 716 0.533503 0.845798<-116.433 351.087>
LayerCount: 2
Back
SplineSet
187 0 m 2
 157 0 142 15 142 45 c 2
 142 1005 l 2
 142 1035 157 1050 187 1050 c 2
 273 1050 l 2
 303 1050 318 1035 318 1005 c 2
 318 614 l 1
 359 614 l 2
 394.333333333 614 432.666666667 631.666666667 474 667 c 128
 515.333333333 702.333333333 544.666666667 733.333333333 562 760 c 2
 731 1024 l 2
 742.333333333 1041.33333333 760 1050 784 1050 c 2
 875 1050 l 2
 919.666666667 1050 928.333333333 1030.33333333 901 991 c 2
 698 700 l 2
 684.666666667 680.666666667 661.166666667 653.333333333 627.5 618 c 128
 593.833333333 582.666666667 562.333333333 561.333333333 533 554 c 1
 533 552 l 1
 571 539.333333333 603.333333333 522.666666667 630 502 c 128
 656.666666667 481.333333333 688 442 724 384 c 2
 924 59 l 2
 948 19.6666666667 939.333333333 0 898 0 c 2
 800 0 l 2
 776.666666667 0 757.666666667 12.3333333333 743 37 c 2
 556 358 l 2
 526.666666667 408 497 441.166666667 467 457.5 c 128
 437 473.833333333 401.333333333 482 360 482 c 2
 318 482 l 1
 318 45 l 2
 318 15 303 0 273 0 c 2
 187 0 l 2
196 0 m 6
 156 0 136 20 136 60 c 6
 136 990 l 6
 136 1030 156 1050 196 1050 c 6
 356 1050 l 6
 396 1050 416 1030 416 990 c 6
 416 648 l 5
 776 648 l 5
 776 990 l 6
 776 1030 796 1050 836 1050 c 6
 996 1050 l 6
 1036 1050 1056 1030 1056 990 c 6
 1056 60 l 6
 1056 20 1036 0 996 0 c 6
 836 0 l 6
 796 0 776 20 776 60 c 6
 776 448 l 5
 416 448 l 5
 416 60 l 6
 416 20 396 0 356 0 c 6
 196 0 l 6
EndSplineSet
Fore
SplineSet
196 0 m 2
 156 0 136 20 136 60 c 2
 136 990 l 2
 136 1030 156 1050 196 1050 c 2
 356 1050 l 2
 396 1050 416 1030 416 990 c 2
 416 648 l 1
 439 648 l 2
 471.666666667 648 500.333333333 661.333333333 525 688 c 128
 549.666666667 714.666666667 571.333333333 744 590 776 c 2
 728 1009 l 2
 744 1036.33333333 770 1050 806 1050 c 2
 970 1050 l 2
 1022 1050 1032.33333333 1025.33333333 1001 976 c 2
 837 716 l 2
 812.333333333 676.666666667 782.833333333 641.833333333 748.5 611.5 c 152
 714.166666667 581.166666667 680.333333333 562 647 554 c 1
 647 552 l 1
 696.333333333 541.333333333 733.666666667 524.166666667 759 500.5 c 128
 784.333333333 476.833333333 815 434 851 372 c 2
 1024 74 l 2
 1052.66666667 24.6666666667 1042.33333333 0 993 0 c 2
 822 0 l 2
 786 0 758.666666667 17.3333333333 740 52 c 2
 585 338 l 2
 572.333333333 361.333333333 552.666666667 385.5 526 410.5 c 128
 499.333333333 435.5 470.666666667 448 440 448 c 2
 416 448 l 1
 416 60 l 2
 416 20 396 0 356 0 c 2
 196 0 l 2
EndSplineSet
EndChar

StartChar: afii10072
Encoding: 1078 1078 40
Width: 1574
Flags: HW
HStem: 0 21G<55.5 286.5 677 897 1287.5 1518.5> 448 200<542.919 647 927 1031.08> 1030 20G<75.5 301 677 897 1273 1498.5>
VStem: 647 280<1.18652 448 648 1048.81>
DStem2: 61 74 341 52 0.493307 0.869855<34.1611 553.676> 352 1009 83 976 0.524097 -0.851658<-75.7919 391.709> 1513 74 1082 338 0.493307 -0.869855<-553.676 -28.1566> 1088 776 1331 716 0.524097 0.851658<-123.043 348.394>
LayerCount: 2
Back
SplineSet
196 0 m 6
 156 0 136 20 136 60 c 6
 136 990 l 6
 136 1030 156 1050 196 1050 c 6
 356 1050 l 6
 396 1050 416 1030 416 990 c 6
 416 648 l 5
 439 648 l 6
 471.666666667 648 500.333333333 661.333333333 525 688 c 132
 549.666666667 714.666666667 571.333333333 744 590 776 c 6
 728 1009 l 6
 744 1036.33333333 770 1050 806 1050 c 6
 970 1050 l 6
 1022 1050 1032.33333333 1025.33333333 1001 976 c 6
 837 716 l 6
 812.333333333 676.666666667 782.833333333 641.833333333 748.5 611.5 c 156
 714.166666667 581.166666667 680.333333333 562 647 554 c 5
 647 552 l 5
 696.333333333 541.333333333 733.666666667 524.166666667 759 500.5 c 132
 784.333333333 476.833333333 815 434 851 372 c 6
 1024 74 l 6
 1052.66666667 24.6666666667 1042.33333333 0 993 0 c 6
 822 0 l 6
 786 0 758.666666667 17.3333333333 740 52 c 6
 585 338 l 6
 572.333333333 361.333333333 552.666666667 385.5 526 410.5 c 132
 499.333333333 435.5 470.666666667 448 440 448 c 6
 416 448 l 5
 416 60 l 6
 416 20 396 0 356 0 c 6
 196 0 l 6
EndSplineSet
Fore
SplineSet
92 0 m 2
 43.3333333333 0 33 24.6666666667 61 74 c 2
 230 372 l 2
 264 432 293.666666667 474.333333333 319 499 c 128
 344.333333333 523.666666667 381.666666667 541.333333333 431 552 c 1
 431 554 l 1
 388.333333333 564.666666667 352.666666667 584 324 612 c 128
 295.333333333 640 268.333333333 674.666666667 243 716 c 2
 83 976 l 2
 52.3333333333 1025.33333333 62.6666666667 1050 114 1050 c 2
 274 1050 l 2
 310 1050 336 1036.33333333 352 1009 c 2
 486 776 l 2
 504 744.666666667 524 715.5 546 688.5 c 128
 568 661.5 596.333333333 648 631 648 c 2
 647 648 l 1
 647 990 l 2
 647 1030 667 1050 707 1050 c 2
 867 1050 l 2
 907 1050 927 1030 927 990 c 2
 927 648 l 1
 943 648 l 2
 977.666666667 648 1006 661.5 1028 688.5 c 128
 1050 715.5 1070 744.666666667 1088 776 c 2
 1222 1009 l 2
 1238 1036.33333333 1264 1050 1300 1050 c 2
 1460 1050 l 2
 1511.33333333 1050 1521.66666667 1025.33333333 1491 976 c 2
 1331 716 l 2
 1305.66666667 674.666666667 1278.66666667 640 1250 612 c 128
 1221.33333333 584 1185.66666667 564.666666667 1143 554 c 1
 1143 552 l 1
 1192.33333333 541.333333333 1229.66666667 523.666666667 1255 499 c 128
 1280.33333333 474.333333333 1310 432 1344 372 c 2
 1513 74 l 2
 1541 24.6666666667 1530.66666667 0 1482 0 c 2
 1315 0 l 2
 1278.33333333 0 1251 17.3333333333 1233 52 c 2
 1082 338 l 2
 1070 360.666666667 1053.5 384.666666667 1032.5 410 c 128
 1011.5 435.333333333 982 448 944 448 c 2
 927 448 l 1
 927 60 l 2
 927 20 907 0 867 0 c 2
 707 0 l 2
 667 0 647 20 647 60 c 2
 647 448 l 1
 630 448 l 2
 592 448 562.5 435.333333333 541.5 410 c 128
 520.5 384.666666667 504 360.666666667 492 338 c 2
 341 52 l 2
 323 17.3333333333 295.666666667 0 259 0 c 2
 92 0 l 2
EndSplineSet
EndChar

StartChar: afii10097
Encoding: 1103 1103 41
Width: 1148
Flags: HW
HStem: 0 21G<83 318.5 762 982> 402 196<551.337 732> 854 196<455.394 732>
VStem: 114 296<632.651 822.9> 732 280<1.18652 402 598 854>
DStem2: 90 74 374 52 0.522154 0.852851<42.3696 466.954>
LayerCount: 2
Back
SplineSet
121 0 m 2
 74.3333333333 0 65.6666666667 19.6666666667 95 59 c 2
 284 314 l 2
 302 338 327.833333333 365.166666667 361.5 395.5 c 128
 395.166666667 425.833333333 424.666666667 447.333333333 450 460 c 1
 450 462 l 1
 334 486 254.666666667 521.333333333 212 568 c 128
 169.333333333 614.666666667 148 679 148 761 c 256
 148 854.333333333 176.666666667 925.833333333 234 975.5 c 128
 291.333333333 1025.16666667 396.666666667 1050 550 1050 c 2
 897 1050 l 2
 927 1050 942 1035 942 1005 c 2
 942 45 l 2
 942 15 927 0 897 0 c 2
 811 0 l 2
 781 0 766 15 766 45 c 2
 766 432 l 1
 672 432 l 2
 626.666666667 432 589.666666667 420.833333333 561 398.5 c 128
 532.333333333 376.166666667 500 339.333333333 464 288 c 2
 288 37 l 2
 270.666666667 12.3333333333 251.666666667 0 231 0 c 2
 121 0 l 2
334 761 m 256
 334 680.333333333 359.833333333 627 411.5 601 c 128
 463.166666667 575 524.333333333 562 595 562 c 2
 766 562 l 1
 766 919 l 1
 596 919 l 2
 504 919 437.333333333 907.833333333 396 885.5 c 128
 354.666666667 863.166666667 334 821.666666667 334 761 c 256
EndSplineSet
Fore
SplineSet
121 0 m 2
 70.3333333333 0 60 24.6666666667 90 74 c 2
 240 319 l 2
 266.666666667 362.333333333 290 391.666666667 310 407 c 144
 330 422.333333333 356.666666667 440 390 460 c 1
 390 462 l 1
 315.333333333 478 250.666666667 509.5 196 556.5 c 128
 141.333333333 603.5 114 666.666666667 114 746 c 256
 114 826.666666667 141 897.5 195 958.5 c 128
 249 1019.5 351.666666667 1050 503 1050 c 2
 952 1050 l 2
 992 1050 1012 1030 1012 990 c 2
 1012 60 l 2
 1012 20 992 0 952 0 c 2
 792 0 l 2
 752 0 732 20 732 60 c 2
 732 402 l 1
 643 402 l 2
 612.333333333 402 588.333333333 394.333333333 571 379 c 128
 553.666666667 363.666666667 533.333333333 335.333333333 510 294 c 2
 374 52 l 2
 354.666666667 17.3333333333 327.333333333 0 292 0 c 2
 121 0 l 2
410 731 m 256
 410 674.333333333 431.666666667 638 475 622 c 128
 518.333333333 606 573.333333333 598 640 598 c 2
 732 598 l 1
 732 854 l 1
 621 854 l 2
 539 854 483.333333333 844.166666667 454 824.5 c 128
 424.666666667 804.833333333 410 773.666666667 410 731 c 256
EndSplineSet
EndChar

StartChar: afii10096
Encoding: 1102 1102 42
Width: 1698
Flags: HW
HStem: -20 196<959.317 1231.06> 0 21G<166 386> 448 200<416 580.561> 874 196<959.377 1231.06> 1030 20G<166 386>
VStem: 136 280<1.18652 448 648 1048.81> 576 292<279.105 448 648 769.824> 1322 296<278.047 771.953>
LayerCount: 2
Back
SplineSet
572 525 m 260
 572 695 615.833333333 828.333333333 703.5 925 c 132
 791.166666667 1021.66666667 921.666666667 1070 1095 1070 c 260
 1268.33333333 1070 1398.83333333 1021.66666667 1486.5 925 c 132
 1574.16666667 828.333333333 1618 695 1618 525 c 260
 1618 355 1574.16666667 221.666666667 1486.5 125 c 132
 1398.83333333 28.3333333333 1268.33333333 -20 1095 -20 c 260
 921.666666667 -20 791.166666667 28.3333333333 703.5 125 c 132
 615.833333333 221.666666667 572 355 572 525 c 260
868 525 m 260
 868 398.333333333 887.5 308.5 926.5 255.5 c 132
 965.5 202.5 1021.66666667 176 1095 176 c 260
 1168.33333333 176 1224.5 202.5 1263.5 255.5 c 132
 1302.5 308.5 1322 398.333333333 1322 525 c 260
 1322 651.666666667 1302.5 741.5 1263.5 794.5 c 132
 1224.5 847.5 1168.33333333 874 1095 874 c 260
 1021.66666667 874 965.5 847.5 926.5 794.5 c 132
 887.5 741.5 868 651.666666667 868 525 c 260
EndSplineSet
Fore
SplineSet
196 0 m 2
 156 0 136 20 136 60 c 2
 136 990 l 2
 136 1030 156 1050 196 1050 c 2
 356 1050 l 2
 396 1050 416 1030 416 990 c 2
 416 648 l 1
 579 648 l 1
 589 750.666666667 634.166666667 846.666666667 714.5 936 c 128
 794.833333333 1025.33333333 921.666666667 1070 1095 1070 c 256
 1268.33333333 1070 1398.83333333 1021.66666667 1486.5 925 c 128
 1574.16666667 828.333333333 1618 695 1618 525 c 256
 1618 355 1574.16666667 221.666666667 1486.5 125 c 128
 1398.83333333 28.3333333333 1268.33333333 -20 1095 -20 c 256
 921.666666667 -20 794.333333333 24.3333333333 713 113 c 128
 631.666666667 201.666666667 586 313.333333333 576 448 c 1
 416 448 l 1
 416 60 l 2
 416 20 396 0 356 0 c 2
 196 0 l 2
868 525 m 256
 868 398.333333333 887.5 308.5 926.5 255.5 c 128
 965.5 202.5 1021.66666667 176 1095 176 c 256
 1168.33333333 176 1224.5 202.5 1263.5 255.5 c 128
 1302.5 308.5 1322 398.333333333 1322 525 c 256
 1322 651.666666667 1302.5 741.5 1263.5 794.5 c 128
 1224.5 847.5 1168.33333333 874 1095 874 c 256
 1021.66666667 874 965.5 847.5 926.5 794.5 c 128
 887.5 741.5 868 651.666666667 868 525 c 256
EndSplineSet
EndChar

StartChar: afii10066
Encoding: 1073 1073 43
Width: 1210
Flags: HW
HStem: -20 196<471.69 743.058> 874 196<471.49 742.703>
VStem: 84 296<296.148 771.748> 84 169<845 998.087> 834 296<278.047 771.953>
DStem2: 544 1430 615 1239 0.99289 0.119037<-159.16 455.667>
LayerCount: 2
Back
SplineSet
84 525 m 260
 84 695 127.833333333 828.333333333 215.5 925 c 132
 303.166666667 1021.66666667 433.666666667 1070 607 1070 c 260
 780.333333333 1070 910.833333333 1021.66666667 998.5 925 c 132
 1086.16666667 828.333333333 1130 695 1130 525 c 260
 1130 355 1086.16666667 221.666666667 998.5 125 c 132
 910.833333333 28.3333333333 780.333333333 -20 607 -20 c 260
 433.666666667 -20 303.166666667 28.3333333333 215.5 125 c 132
 127.833333333 221.666666667 84 355 84 525 c 260
380 525 m 260
 380 398.333333333 399.5 308.5 438.5 255.5 c 132
 477.5 202.5 533.666666667 176 607 176 c 260
 680.333333333 176 736.5 202.5 775.5 255.5 c 132
 814.5 308.5 834 398.333333333 834 525 c 260
 834 651.666666667 814.5 741.5 775.5 794.5 c 132
 736.5 847.5 680.333333333 874 607 874 c 260
 533.666666667 874 477.5 847.5 438.5 794.5 c 132
 399.5 741.5 380 651.666666667 380 525 c 260
89 600 m 256
 89 676 95.3333333333 766 108 870 c 128
 120.666666667 974 141.333333333 1057.5 170 1120.5 c 128
 198.666666667 1183.5 229.5 1234 262.5 1272 c 128
 295.5 1310 340.5 1344.5 397.5 1375.5 c 128
 454.5 1406.5 515.666666667 1424.66666667 581 1430 c 256
 660.333333333 1436.66666667 718.333333333 1440.33333333 755 1441 c 128
 791.666666667 1441.66666667 825 1448 855 1460 c 256
 881 1470.66666667 896.833333333 1482.33333333 902.5 1495 c 128
 908.166666667 1507.66666667 922.333333333 1514 945 1514 c 10
 969 1514 l 18
 992.333333333 1514 1004 1502.33333333 1004 1479 c 256
 1004 1443.66666667 989.666666667 1407.5 961 1370.5 c 128
 932.333333333 1333.5 884.666666667 1308.33333333 818 1295 c 256
 788.666666667 1289 745 1284 687 1280 c 128
 629 1276 578.166666667 1271.83333333 534.5 1267.5 c 128
 490.833333333 1263.16666667 452.333333333 1252 419 1234 c 0
 287 1165.33333333 214 1028 200 822 c 1
 208 818 l 1041
EndSplineSet
Fore
SplineSet
84 598 m 256
 84 674 91.1666666667 764.333333333 105.5 869 c 128
 119.833333333 973.666666667 139.5 1059 164.5 1125 c 128
 189.5 1191 221 1243.66666667 259 1283 c 128
 297 1322.33333333 342.666666667 1355.16666667 396 1381.5 c 128
 449.333333333 1407.83333333 498.666666667 1424 544 1430 c 256
 610.666666667 1439.33333333 671.166666667 1444.83333333 725.5 1446.5 c 128
 779.833333333 1448.16666667 819 1451.66666667 843 1457 c 256
 869 1463 887.333333333 1474 898 1490 c 128
 908.666666667 1506 929.333333333 1514 960 1514 c 10
 1030 1514 l 18
 1056 1514 1069 1499 1069 1469 c 256
 1069 1419 1052.5 1374.83333333 1019.5 1336.5 c 128
 986.5 1298.16666667 940.666666667 1274 882 1264 c 256
 854.666666667 1259.33333333 817.5 1255.5 770.5 1252.5 c 128
 723.5 1249.5 671.666666667 1245 615 1239 c 128
 558.333333333 1233 500.666666667 1215.33333333 442 1186 c 0
 321.333333333 1125.33333333 258.333333333 1011.66666667 253 845 c 1
 261 841 l 17
 274.333333333 890.333333333 313.666666667 940.833333333 379 992.5 c 128
 444.333333333 1044.16666667 529 1070 633 1070 c 256
 787 1070 908.333333333 1021.66666667 997 925 c 128
 1085.66666667 828.333333333 1130 695 1130 525 c 256
 1130 355 1086.16666667 221.666666667 998.5 125 c 128
 910.833333333 28.3333333333 780.333333333 -20 607 -20 c 256
 425 -20 292.333333333 34.3333333333 209 143 c 128
 125.666666667 251.666666667 84 403.333333333 84 598 c 256
380 525 m 256
 380 398.333333333 399.5 308.5 438.5 255.5 c 128
 477.5 202.5 533.666666667 176 607 176 c 256
 680.333333333 176 736.5 202.5 775.5 255.5 c 128
 814.5 308.5 834 398.333333333 834 525 c 256
 834 651.666666667 814.5 741.5 775.5 794.5 c 128
 736.5 847.5 680.333333333 874 607 874 c 256
 533.666666667 874 477.5 847.5 438.5 794.5 c 128
 399.5 741.5 380 651.666666667 380 525 c 256
EndSplineSet
EndChar

StartChar: afii10095
Encoding: 1101 1101 45
Width: 1070
Flags: HMW
HStem: -20 196<314.714 614.553> 448 200<281.234 686> 874 196<306.074 614.041>
VStem: 693 297<266.921 448>
LayerCount: 2
Back
SplineSet
990 525 m 256
 990 355 947.333333333 221.666666667 862 125 c 128
 776.666666667 28.3333333333 645.666666667 -20 469 -20 c 256
 351 -20 259.333333333 0 194 40 c 128
 128.666666667 80 83 119.333333333 57 158 c 256
 37 188 41.6666666667 214.666666667 71 238 c 282
 164 311 l 274
 193.333333333 333.666666667 224 326.666666667 256 290 c 256
 285.333333333 256.666666667 314.666666667 229.333333333 344 208 c 128
 373.333333333 186.666666667 415 176 469 176 c 256
 544.333333333 176 600.666666667 202.5 638 255.5 c 128
 675.333333333 308.5 694 398.333333333 694 525 c 256
 694 651.666666667 675.333333333 741.5 638 794.5 c 128
 600.666666667 847.5 544.333333333 874 469 874 c 256
 421.666666667 874 382 864 350 844 c 128
 318 824 296.333333333 805.333333333 285 788 c 256
 262.333333333 752.666666667 236 745 206 765 c 266
 100 835 l 282
 72.6666666667 853 69.3333333333 877.666666667 90 909 c 256
 124.666666667 961.666666667 170.666666667 1001.66666667 228 1029 c 128
 285.333333333 1056.33333333 365.666666667 1070 469 1070 c 256
 645.666666667 1070 776.666666667 1021.66666667 862 925 c 128
 947.333333333 828.333333333 990 695 990 525 c 256
EndSplineSet
Fore
SplineSet
74 111 m 256
 48.6666666667 135.666666667 50.3333333333 162.666666667 79 192 c 258
 160 274 l 258
 186 300 212.666666667 299.333333333 240 272 c 256
 264 248 291.666666667 226 323 206 c 128
 354.333333333 186 403 176 469 176 c 256
 544.333333333 176 598.833333333 196.666666667 632.5 238 c 128
 666.166666667 279.333333333 686.333333333 349.333333333 693 448 c 257
 341 448 l 258
 301 448 281 464.666666667 281 498 c 258
 281 598 l 258
 281 631.333333333 301 648 341 648 c 258
 689 648 l 257
 682.333333333 721.333333333 662.166666667 777.333333333 628.5 816 c 128
 594.833333333 854.666666667 541.666666667 874 469 874 c 256
 437.666666667 874 403 868.833333333 365 858.5 c 128
 327 848.166666667 291.666666667 828.666666667 259 800 c 256
 229.666666667 774 204 771.333333333 182 792 c 258
 98 870 l 258
 71.3333333333 894.666666667 70.6666666667 919.666666667 96 945 c 256
 139.333333333 989 191.833333333 1020.83333333 253.5 1040.5 c 128
 315.166666667 1060.16666667 387 1070 469 1070 c 256
 645.666666667 1070 776.666666667 1021.66666667 862 925 c 128
 947.333333333 828.333333333 990 695 990 525 c 256
 990 355 947.333333333 221.666666667 862 125 c 128
 776.666666667 28.3333333333 645.666666667 -20 469 -20 c 256
 345.666666667 -20 257.666666667 -6.66666666667 205 20 c 128
 152.333333333 46.6666666667 108.666666667 77 74 111 c 256
EndSplineSet
EndChar

StartChar: afii10073
Encoding: 1079 1079 46
Width: 1049
Flags: HW
HStem: -20 196<316.594 616.838> 448 200<293.234 598.165> 874 196<284.482 601.749>
VStem: 642 280<680.044 844.842> 659 296<217.304 428.96>
LayerCount: 2
Back
SplineSet
74 111 m 256
 48.6666666667 135.666666667 50.3333333333 162.666666667 79 192 c 258
 160 274 l 258
 184 298.666666667 215.333333333 295 254 263 c 256
 280 241.666666667 310 221.833333333 344 203.5 c 128
 378 185.166666667 419.666666667 176 469 176 c 256
 544.333333333 176 598.833333333 196.666666667 632.5 238 c 128
 666.166666667 279.333333333 686.333333333 349.333333333 693 448 c 257
 341 448 l 262
 301 448 281 464.666666667 281 498 c 262
 281 598 l 262
 281 631.333333333 301 648 341 648 c 262
 689 648 l 257
 682.333333333 721.333333333 662.166666667 777.333333333 628.5 816 c 128
 594.833333333 854.666666667 541.666666667 874 469 874 c 256
 420.333333333 874 381.333333333 868 352 856 c 128
 322.666666667 844 293.666666667 823.666666667 265 795 c 256
 237.666666667 767.666666667 212 765 188 787 c 258
 98 870 l 258
 71.3333333333 894.666666667 70.6666666667 919.666666667 96 945 c 256
 139.333333333 989 187.5 1020.83333333 240.5 1040.5 c 128
 293.5 1060.16666667 369.666666667 1070 469 1070 c 256
 645.666666667 1070 776.666666667 1021.66666667 862 925 c 128
 947.333333333 828.333333333 990 695 990 525 c 256
 990 355 947.333333333 221.666666667 862 125 c 128
 776.666666667 28.3333333333 645.666666667 -20 469 -20 c 256
 345.666666667 -20 257.666666667 -6.66666666667 205 20 c 128
 152.333333333 46.6666666667 108.666666667 77 74 111 c 256
EndSplineSet
Fore
SplineSet
81 89 m 256
 51.6666666667 111.666666667 49.3333333333 139 74 171 c 258
 144 262 l 258
 164.666666667 289.333333333 196.333333333 290.333333333 239 265 c 256
 267.666666667 247.666666667 302 228.5 342 207.5 c 128
 382 186.5 426.666666667 176 476 176 c 256
 548 176 596.5 192 621.5 224 c 128
 646.5 256 659 289.333333333 659 324 c 256
 659 356 651.5 384.666666667 636.5 410 c 128
 621.5 435.333333333 575.333333333 448 498 448 c 258
 353 448 l 258
 313 448 293 464.666666667 293 498 c 258
 293 598 l 258
 293 631.333333333 313 648 353 648 c 258
 485 648 l 258
 533 648 571.166666667 658.5 599.5 679.5 c 128
 627.833333333 700.5 642 731 642 771 c 256
 642 809 623.666666667 835.666666667 587 851 c 128
 550.333333333 866.333333333 507.333333333 874 458 874 c 256
 409.333333333 874 369 867.666666667 337 855 c 128
 305 842.333333333 272.666666667 824 240 800 c 256
 209.333333333 777.333333333 183.666666667 778.333333333 163 803 c 258
 86 897 l 258
 62.6666666667 925 65 950 93 972 c 256
 139.666666667 1008.66666667 188.5 1034.16666667 239.5 1048.5 c 128
 290.5 1062.83333333 363.333333333 1070 458 1070 c 256
 589.333333333 1070 699.5 1044.66666667 788.5 994 c 128
 877.5 943.333333333 922 881 922 807 c 256
 922 735 903.166666667 679.5 865.5 640.5 c 128
 827.833333333 601.5 786.666666667 574.333333333 742 559 c 1
 742 556 l 1
 820.666666667 529.333333333 875.833333333 495 907.5 453 c 128
 939.166666667 411 955 362.666666667 955 308 c 256
 955 204.666666667 913.166666667 124.166666667 829.5 66.5 c 128
 745.833333333 8.83333333333 628 -20 476 -20 c 256
 352 -20 263.5 -8.16666666667 210.5 15.5 c 128
 157.5 39.1666666667 114.333333333 63.6666666667 81 89 c 256
EndSplineSet
EndChar

StartChar: afii10078
Encoding: 1084 1084 47
Width: 1500
Flags: HW
HStem: 0 21G<166 386 625 875 1114 1334> 1030 20G<166 498 1002 1334>
VStem: 136 280<1.18652 645> 1084 280<1.18652 645>
DStem2: 550 985 416 645 0.274936 -0.961463<290.056 774.658> 781 394 911 61 0.274936 0.961463<-159.969 324.633>
LayerCount: 2
Back
SplineSet
289 972 m 2
 272.333333333 1024 283.333333333 1050 322 1050 c 2
 501 1050 l 2
 532.333333333 1050 552.333333333 1033 561 999 c 2
 716 413 l 2
 724.666666667 380.333333333 731.833333333 348 737.5 316 c 128
 743.166666667 284 746.666666667 258 748 238 c 1
 754 238 l 1
 755.333333333 258 758.833333333 284 764.5 316 c 128
 770.166666667 348 777.333333333 380.333333333 786 413 c 2
 941 999 l 2
 949.666666667 1033 969.666666667 1050 1001 1050 c 2
 1180 1050 l 2
 1218.66666667 1050 1229.66666667 1024 1213 972 c 2
 923 67 l 2
 909 22.3333333333 884.666666667 0 850 0 c 2
 652 0 l 2
 617.333333333 0 593 22.3333333333 579 67 c 2
 289 972 l 2
EndSplineSet
Fore
SplineSet
196 0 m 2
 156 0 136 20 136 60 c 2
 136 990 l 2
 136 1030 156 1050 196 1050 c 2
 465 1050 l 2
 509 1050 537.333333333 1028.33333333 550 985 c 2
 719 394 l 2
 725.666666667 370.666666667 732.166666667 343.166666667 738.5 311.5 c 128
 744.833333333 279.833333333 748 254.333333333 748 235 c 1
 752 235 l 1
 752 254.333333333 755.166666667 279.833333333 761.5 311.5 c 128
 767.833333333 343.166666667 774.333333333 370.666666667 781 394 c 2
 950 985 l 2
 962.666666667 1028.33333333 991 1050 1035 1050 c 2
 1304 1050 l 2
 1344 1050 1364 1030 1364 990 c 2
 1364 60 l 2
 1364 20 1344 0 1304 0 c 2
 1144 0 l 2
 1104 0 1084 20 1084 60 c 2
 1084 565 l 2
 1084 592.333333333 1085.33333333 619 1088 645 c 25
 1084 645 l 17
 911 61 l 2
 899 20.3333333333 881 0 857 0 c 2
 643 0 l 2
 619 0 601 20.3333333333 589 61 c 2
 416 645 l 9
 412 645 l 25
 414.666666667 619 416 592.333333333 416 565 c 2
 416 60 l 2
 416 20 396 0 356 0 c 2
 196 0 l 2
EndSplineSet
EndChar

StartChar: k
Encoding: 107 107 48
Width: 1115
Flags: HW
HStem: 0 21G<166 386 827 1062.5> 1030 20G<788 1021> 1456 20G<166 386>
VStem: 136 280<1.18652 264 601 1474.81>
DStem2: 416 601 704 611 0.638054 0.769991<191.46 619.013> 704 611 543 417 0.54603 -0.837766<74.6158 601.441>
LayerCount: 2
Back
SplineSet
416 264 m 13
 1006 976 l 1030
893 1224 m 10
 318 539 l 1049
893 991 m 10
 318 306 l 1049
771 16 m 10
 409 579 l 1049
EndSplineSet
Fore
SplineSet
196 0 m 2
 156 0 136 20 136 60 c 2
 136 1416 l 2
 136 1456 156 1476 196 1476 c 2
 356 1476 l 2
 396 1476 416 1456 416 1416 c 2
 416 681 l 2
 416 654.333333333 414.666666667 627.666666667 412 601 c 1
 416 601 l 1
 733 1009 l 2
 754.333333333 1036.33333333 780.333333333 1050 811 1050 c 2
 975 1050 l 2
 1036.33333333 1050 1046.66666667 1025.33333333 1006 976 c 2
 704 611 l 1
 1054 74 l 2
 1086 24.6666666667 1075.66666667 0 1023 0 c 2
 852 0 l 2
 818.666666667 0 791.333333333 17.3333333333 770 52 c 2
 543 417 l 1
 416 264 l 1
 416 60 l 2
 416 20 396 0 356 0 c 2
 196 0 l 2
EndSplineSet
EndChar

StartChar: f
Encoding: 102 102 49
Width: 682
Flags: HW
HStem: 0 21G<187 407> 850 200<42.2305 157 437 627.77> 1300 196<459.031 713.712>
VStem: 157 280<1.18652 850 1050 1283.77>
LayerCount: 2
Back
SplineSet
90 918 m 2
 60 918 45 929.666666667 45 953 c 2
 45 1015 l 2
 45 1038.33333333 60 1050 90 1050 c 2
 197 1050 l 1
 197 1199 l 2
 197 1310.33333333 227 1387.16666667 287 1429.5 c 128
 347 1471.83333333 415.666666667 1493 493 1493 c 256
 539 1493 576.166666667 1490.66666667 604.5 1486 c 128
 632.833333333 1481.33333333 666.333333333 1471 705 1455 c 256
 719.680666667 1448.99333333 724.014 1438.32666667 718 1423 c 2
 687 1344 l 2
 681.752 1330.62666667 670.085333333 1327.96 652 1336 c 256
 637.333333333 1342.66666667 619.333333333 1348.83333333 598 1354.5 c 128
 576.666666667 1360.16666667 553.666666667 1363 529 1363 c 256
 473.666666667 1363 433.833333333 1349.66666667 409.5 1323 c 128
 385.166666667 1296.33333333 373 1245.33333333 373 1170 c 2
 373 1050 l 1
 556 1050 l 2
 586 1050 601 1038.33333333 601 1015 c 2
 601 953 l 2
 601 929.666666667 586 918 556 918 c 2
 373 918 l 1
 373 45 l 2
 373 15 358 0 328 0 c 2
 242 0 l 2
 212 0 197 15 197 45 c 2
 197 918 l 1
 90 918 l 2
EndSplineSet
Fore
SplineSet
101 850 m 2
 61.6666666667 850 42 866.666666667 42 900 c 2
 42 1000 l 2
 42 1033.33333333 61.6666666667 1050 101 1050 c 2
 157 1050 l 1
 157 1190 l 2
 157 1312.66666667 192 1394.33333333 262 1435 c 128
 332 1475.66666667 415.333333333 1496 512 1496 c 256
 558 1496 597.5 1493.33333333 630.5 1488 c 128
 663.5 1482.66666667 692.666666667 1476 718 1468 c 256
 742 1460 750.666666667 1443.33333333 744 1418 c 2
 714 1305 l 2
 708 1283 692.666666667 1276.33333333 668 1285 c 256
 653.333333333 1290.33333333 632.833333333 1294.16666667 606.5 1296.5 c 128
 580.166666667 1298.83333333 559.333333333 1300 544 1300 c 256
 495.333333333 1300 465.333333333 1283 454 1249 c 128
 442.666666667 1215 437 1162 437 1090 c 2
 437 1050 l 1
 569 1050 l 2
 608.333333333 1050 628 1033.33333333 628 1000 c 2
 628 900 l 2
 628 866.666666667 608.333333333 850 569 850 c 2
 437 850 l 1
 437 60 l 2
 437 20 417 0 377 0 c 2
 217 0 l 2
 177 0 157 20 157 60 c 2
 157 850 l 1
 101 850 l 2
EndSplineSet
EndChar

StartChar: t
Encoding: 116 116 50
Width: 798
Flags: HW
HStem: -33 196<466.084 728.974> 850 200<42.2305 169 449 669.77>
VStem: 169 280<208.905 850 1050 1207.08>
LayerCount: 2
Back
SplineSet
91 918 m 2
 61 918 46 929.666666667 46 953 c 2
 46 1015 l 2
 46 1038.33333333 61 1050 91 1050 c 2
 209 1050 l 1
 209 1140 l 2
 209 1153.24 212.333333333 1165.90666667 219 1178 c 2
 289 1305 l 2
 301.860666667 1328.33333333 312.194 1340 320 1340 c 2
 355 1340 l 2
 375 1340 385 1328.33333333 385 1305 c 2
 385 1050 l 1
 598 1050 l 2
 628 1050 643 1038.33333333 643 1015 c 2
 643 953 l 2
 643 929.666666667 628 918 598 918 c 2
 385 918 l 1
 385 281 l 2
 385 211 395.5 165.5 416.5 144.5 c 128
 437.5 123.5 462.666666667 113 492 113 c 256
 514.666666667 113 541.833333333 119.666666667 573.5 133 c 128
 605.166666667 146.333333333 627 157.666666667 639 167 c 256
 651.071333333 176.388666667 660.404666667 173.388666667 667 158 c 2
 700 81 l 2
 705.636666667 67.8484 701.636666667 57.1817333333 688 49 c 256
 662 33.6666666667 624 18.8333333333 574 4.5 c 144
 524 -9.83333333333 474 -17 424 -17 c 256
 354.666666667 -17 301.5 8 264.5 58 c 128
 227.5 108 209 178.666666667 209 270 c 2
 209 918 l 1
 91 918 l 2
EndSplineSet
Fore
SplineSet
101 850 m 2
 61.6666666667 850 42 866.666666667 42 900 c 2
 42 1000 l 2
 42 1033.33333333 61.6666666667 1050 101 1050 c 2
 169 1050 l 1
 169 1085 l 2
 169 1115 176 1142.33333333 190 1167 c 2
 267 1302 l 2
 281.666666667 1327.33333333 299 1340 319 1340 c 2
 389 1340 l 2
 429 1340 449 1320 449 1280 c 2
 449 1050 l 1
 611 1050 l 2
 650.333333333 1050 670 1033.33333333 670 1000 c 2
 670 900 l 2
 670 866.666666667 650.333333333 850 611 850 c 2
 449 850 l 1
 449 354 l 2
 449 286 453.833333333 237.166666667 463.5 207.5 c 128
 473.166666667 177.833333333 498.333333333 163 539 163 c 256
 559.666666667 163 583 166.5 609 173.5 c 128
 635 180.5 655.333333333 187.333333333 670 194 c 256
 693.333333333 204.666666667 708.666666667 197 716 171 c 2
 746 57 l 2
 752 34.3333333333 743.333333333 17.6666666667 720 7 c 256
 698 -3 667.833333333 -12.1666666667 629.5 -20.5 c 128
 591.166666667 -28.8333333333 552.666666667 -33 514 -33 c 256
 418.666666667 -33 337.333333333 -13.3333333333 270 26 c 128
 202.666666667 65.3333333333 169 146.333333333 169 269 c 2
 169 850 l 1
 101 850 l 2
EndSplineSet
EndChar

StartChar: l
Encoding: 108 108 51
Width: 552
Flags: HW
HStem: 0 21G<166 386> 1476 20G<271 386>
VStem: 136 280<1.18652 1363.08>
LayerCount: 2
Fore
SplineSet
196 0 m 2
 156 0 136 20 136 60 c 2
 136 1241 l 2
 136 1271 143 1298.33333333 157 1323 c 2
 234 1458 l 2
 248.666666667 1483.33333333 266 1496 286 1496 c 2
 356 1496 l 2
 396 1496 416 1476 416 1436 c 2
 416 60 l 2
 416 20 396 0 356 0 c 2
 196 0 l 2
EndSplineSet
EndChar

StartChar: I
Encoding: 73 73 52
Width: 612
Flags: HW
HStem: 0 21G<195 417> 1414 20G<195 417>
VStem: 160 292<3.09448 1430.91>
LayerCount: 2
Fore
SplineSet
230 0 m 2
 183.333333333 0 160 25 160 75 c 2
 160 1359 l 2
 160 1409 183.333333333 1434 230 1434 c 2
 382 1434 l 2
 428.666666667 1434 452 1409 452 1359 c 2
 452 75 l 2
 452 25 428.666666667 0 382 0 c 2
 230 0 l 2
EndSplineSet
EndChar

StartChar: H
Encoding: 72 72 53
Width: 1442
Flags: HW
HStem: 0 21G<195 417 1025 1247> 622 248<452 990> 1414 20G<195 417 1025 1247>
VStem: 160 292<3.09448 622 870 1430.91> 990 292<3.09448 622 870 1430.91>
LayerCount: 2
Back
SplineSet
1179 664 m 1
 277 664 l 1
 277 828 l 1
 1179 828 l 1
 1179 664 l 1
1130 0 m 2
 1096.66666667 0 1080 18.3333333333 1080 55 c 2
 1080 1379 l 2
 1080 1415.66666667 1096.66666667 1434 1130 1434 c 2
 1222 1434 l 2
 1255.33333333 1434 1272 1415.66666667 1272 1379 c 2
 1272 55 l 2
 1272 18.3333333333 1255.33333333 0 1222 0 c 2
 1130 0 l 2
220 0 m 2
 186.666666667 0 170 18.3333333333 170 55 c 2
 170 1379 l 2
 170 1415.66666667 186.666666667 1434 220 1434 c 2
 312 1434 l 2
 345.333333333 1434 362 1415.66666667 362 1379 c 2
 362 55 l 2
 362 18.3333333333 345.333333333 0 312 0 c 2
 220 0 l 2
1128 1435 m 2
 1155 1434 l 1
 1214 1434 l 2
 1224 1434 1234.5 1433 1245.5 1431 c 0
 1249.16666667 1430.33333333 1252.33333333 1428.83333333 1255 1426.5 c 128
 1257.66666667 1424.16666667 1259.83333333 1422.66666667 1261.5 1422 c 128
 1263.16666667 1421.33333333 1264.66666667 1419 1266 1415 c 128
 1267.33333333 1411 1268.16666667 1408.16666667 1268.5 1406.5 c 128
 1268.83333333 1404.83333333 1269.33333333 1401.16666667 1270 1395.5 c 128
 1270.66666667 1389.83333333 1271.33333333 1386 1272 1384 c 1
 1272 70 l 2
 1272 40 1268.16666667 20.8333333333 1260.5 12.5 c 128
 1252.83333333 4.16666666667 1235.33333333 0 1208 0 c 2
 1135 0 l 2
 1111.66666667 0 1096.5 3.83333333333 1089.5 11.5 c 128
 1082.5 19.1666666667 1079 35.6666666667 1079 61 c 2
 1079 664 l 1
 367 664 l 1
 367 61 l 2
 367 37.6666666667 363.833333333 21.6666666667 357.5 13 c 128
 351.166666667 4.33333396912 336.333333333 6.35782666667e-07 313 0 c 2
 240 0 l 2
 225.333333333 0 214.166666667 0.666666666667 206.5 2 c 128
 198.833333333 3.33333333333 191.833333333 7.83333333333 185.5 15.5 c 128
 179.166666667 23.1666666667 176 34.3333333333 176 49 c 2
 176 1384 l 2
 176 1405.33333333 180.5 1419 189.5 1425 c 128
 198.5 1431 213 1434 233 1434 c 2
 293 1434 l 1
 319 1435 l 2
 339 1435 352 1430.33333333 358 1421 c 128
 364 1411.66666667 367 1396.66666667 367 1376 c 2
 367 827 l 1
 1079 827 l 1
 1079 1376 l 2
 1079 1389.33333333 1079.83333333 1399.66666667 1081.5 1407 c 128
 1083.16666667 1414.33333333 1087.66666667 1420.83333333 1095 1426.5 c 128
 1102.33333333 1432.16666667 1113.33333333 1435 1128 1435 c 2
EndSplineSet
Fore
SplineSet
230 0 m 2
 183.333333333 0 160 25 160 75 c 2
 160 1359 l 2
 160 1409 183.333333333 1434 230 1434 c 2
 382 1434 l 2
 428.666666667 1434 452 1409 452 1359 c 2
 452 870 l 1
 990 870 l 1
 990 1359 l 2
 990 1409 1013.33333333 1434 1060 1434 c 2
 1212 1434 l 2
 1258.66666667 1434 1282 1409 1282 1359 c 2
 1282 75 l 2
 1282 25 1258.66666667 0 1212 0 c 2
 1060 0 l 2
 1013.33333333 0 990 25 990 75 c 2
 990 622 l 1
 452 622 l 1
 452 75 l 2
 452 25 428.666666667 0 382 0 c 2
 230 0 l 2
EndSplineSet
EndChar

StartChar: afii10033
Encoding: 1055 1055 54
Width: 1436
Flags: HW
HStem: 0 21G<195 417 1019 1241> 1186 248<452 984>
VStem: 160 292<3.09448 1186> 984 292<3.09448 1186>
LayerCount: 2
Fore
SplineSet
230 0 m 2
 183.333333333 0 160 25 160 75 c 2
 160 1359 l 2
 160 1409 183.333333333 1434 230 1434 c 2
 1206 1434 l 2
 1252.66666667 1434 1276 1409 1276 1359 c 2
 1276 75 l 2
 1276 25 1252.66666667 0 1206 0 c 2
 1054 0 l 2
 1007.33333333 0 984 25 984 75 c 2
 984 1186 l 1
 452 1186 l 1
 452 75 l 2
 452 25 428.666666667 0 382 0 c 2
 230 0 l 2
EndSplineSet
EndChar

StartChar: E
Encoding: 69 69 55
Width: 1280
Flags: HW
HStem: 0 248<452 1192.78> 620 248<452 1107.78> 1186 248<452 1160.78>
VStem: 160 292<248 620 868 1186>
LayerCount: 2
Fore
SplineSet
230 0 m 2
 183.333333333 0 160 25 160 75 c 2
 160 1359 l 2
 160 1409 183.333333333 1434 230 1434 c 2
 1088 1434 l 2
 1138 1434 1163 1412.33333333 1163 1369 c 2
 1163 1251 l 2
 1163 1207.66666667 1138 1186 1088 1186 c 2
 452 1186 l 9
 452 868 l 1
 1035 868 l 2
 1085 868 1110 846.333333333 1110 803 c 2
 1110 685 l 2
 1110 641.666666667 1085 620 1035 620 c 2
 452 620 l 1
 452 248 l 17
 1120 248 l 2
 1170 248 1195 226.333333333 1195 183 c 2
 1195 65 l 2
 1195 21.6666666667 1170 0 1120 0 c 2
 230 0 l 2
EndSplineSet
EndChar

StartChar: O
Encoding: 79 79 60
Width: 1544
Flags: HW
HStem: -34 236<581.193 962.807> 1232 236<581.193 962.807>
VStem: 86 312<425.036 1010.74> 1146 312<424.146 1009.85>
LayerCount: 2
Fore
SplineSet
86 717 m 256
 86 947 145.333333333 1129.66666667 264 1265 c 128
 382.666666667 1400.33333333 552 1468 772 1468 c 256
 992 1468 1161.33333333 1400.33333333 1280 1265 c 128
 1398.66666667 1129.66666667 1458 947 1458 717 c 256
 1458 487 1398.66666667 304.333333333 1280 169 c 128
 1161.33333333 33.6666666667 992 -34 772 -34 c 256
 552 -34 382.666666667 33.6666666667 264 169 c 128
 145.333333333 304.333333333 86 487 86 717 c 256
398 717 m 256
 398 550.333333333 427.833333333 422.833333333 487.5 334.5 c 128
 547.166666667 246.166666667 642 202 772 202 c 256
 902 202 996.833333333 246.166666667 1056.5 334.5 c 128
 1116.16666667 422.833333333 1146 550.333333333 1146 717 c 256
 1146 883.666666667 1116.16666667 1011.16666667 1056.5 1099.5 c 128
 996.833333333 1187.83333333 902 1232 772 1232 c 256
 642 1232 547.166666667 1187.83333333 487.5 1099.5 c 128
 427.833333333 1011.16666667 398 883.666666667 398 717 c 256
EndSplineSet
EndChar

StartChar: s
Encoding: 115 115 61
Width: 1005
Flags: HW
LayerCount: 2
Back
SplineSet
93 70 m 256
 60.3333333333 93.3333333333 51.3333333333 118.333333333 66 145 c 2
 117 238 l 2
 135 271.333333333 163 275.333333333 201 250 c 256
 239 224.666666667 285.666666667 206 341 194 c 128
 396.333333333 182 447.333333333 176 494 176 c 256
 547.333333333 176 593.166666667 184.166666667 631.5 200.5 c 128
 669.833333333 216.833333333 689 248.666666667 689 296 c 256
 689 324 680.166666667 345.666666667 662.5 361 c 128
 644.833333333 376.333333333 617 387.666666667 579 395 c 256
 539.666666667 402.333333333 493.666666667 412.166666667 441 424.5 c 128
 388.333333333 436.833333333 337.333333333 452.666666667 288 472 c 256
 221.333333333 498.666666667 173.833333333 533.666666667 145.5 577 c 128
 117.166666667 620.333333333 103 681 103 759 c 256
 103 845 137.5 918.333333333 206.5 979 c 128
 275.5 1039.66666667 393.666666667 1070 561 1070 c 256
 629.666666667 1070 694.666666667 1061 756 1043 c 152
 817.333333333 1025 860.666666667 1008 886 992 c 256
 926 966.666666667 936 939.666666667 916 911 c 26
 855 822 l 18
 836.333333333 795.333333333 806.333333333 793.333333333 765 816 c 256
 733.666666667 833.333333333 703.333333333 847.333333333 674 858 c 128
 644.666666667 868.666666667 602 874 546 874 c 256
 494.666666667 874 454.666666667 865.666666667 426 849 c 128
 397.333333333 832.333333333 383 807.333333333 383 774 c 256
 383 740 398.333333333 715.833333333 429 701.5 c 128
 459.666666667 687.166666667 488 677.333333333 514 672 c 256
 572.666666667 660 625 648.833333333 671 638.5 c 128
 717 628.166666667 760 612.333333333 800 591 c 256
 861.333333333 558.333333333 904.833333333 517.666666667 930.5 469 c 128
 956.166666667 420.333333333 969 361.666666667 969 293 c 256
 969 197.666666667 931.5 121.666666667 856.5 65 c 128
 781.5 8.33333333333 669.666666667 -20 521 -20 c 256
 417.666666667 -20 332.166666667 -13.3333333333 264.5 0 c 152
 196.833333333 13.3333333333 139.666666667 36.6666666667 93 70 c 256
EndSplineSet
Fore
SplineSet
93 70 m 256
 60.3333333333 93.3333333333 51.3333333333 118.333333333 66 145 c 2
 117 238 l 2
 135 271.333333333 163 275.333333333 201 250 c 256
 239 224.666666667 283.833333333 206 335.5 194 c 128
 387.166666667 182 434.333333333 176 477 176 c 256
 507 176 535 179 561 185 c 128
 587 191 609 202.666666667 627 220 c 128
 645 237.333333333 654 262.666666667 654 296 c 256
 654 316 648.666666667 333 638 347 c 128
 627.333333333 361 613.666666667 371.666666667 597 379 c 128
 580.333333333 386.333333333 562.666666667 392.333333333 544 397 c 256
 519.333333333 403 483.833333333 413 437.5 427 c 128
 391.166666667 441 346.666666667 457.333333333 304 476 c 256
 268.666666667 491.333333333 234.166666667 512.833333333 200.5 540.5 c 128
 166.833333333 568.166666667 142.166666667 599 126.5 633 c 128
 110.833333333 667 103 709 103 759 c 256
 103 826.333333333 122.5 885.333333333 161.5 936 c 128
 200.5 986.666666667 251 1021.66666667 313 1041 c 128
 375 1060.33333333 452.333333333 1070 545 1070 c 256
 607.666666667 1070 668.666666667 1061 728 1043 c 152
 787.333333333 1025 829.666666667 1008 855 992 c 256
 895 966.666666667 905 939.666666667 885 911 c 26
 824 822 l 18
 805.333333333 795.333333333 775.333333333 793.333333333 734 816 c 256
 702.666666667 833.333333333 671.833333333 847.333333333 641.5 858 c 128
 611.166666667 868.666666667 577.333333333 874 540 874 c 256
 514.666666667 874 490.333333333 871.333333333 467 866 c 128
 443.666666667 860.666666667 423.833333333 850.666666667 407.5 836 c 128
 391.166666667 821.333333333 383 802 383 778 c 256
 383 752.666666667 390.5 732.833333333 405.5 718.5 c 128
 420.5 704.166666667 437.833333333 693.666666667 457.5 687 c 128
 477.166666667 680.333333333 496 674 514 668 c 256
 551.333333333 656 589 644.5 627 633.5 c 128
 665 622.5 703.666666667 609.333333333 743 594 c 256
 777 580.666666667 810 561.666666667 842 537 c 128
 874 512.333333333 897.333333333 481 912 443 c 128
 926.666666667 405 934 361.666666667 934 313 c 256
 934 248.333333333 914.666666667 188.333333333 876 133 c 128
 837.333333333 77.6666666667 786.333333333 38.3333333333 723 15 c 128
 659.666666667 -8.33333333333 586 -20 502 -20 c 256
 408 -20 328 -13.3333333333 262 0 c 152
 196 13.3333333333 139.666666667 36.6666666667 93 70 c 256
EndSplineSet
EndChar

StartChar: afii10040
Encoding: 1062 1062 62
Width: 1522
Flags: HW
HStem: -370 21G<1242 1432> 0 248<452 978> 1414 20G<195 417 1013 1235>
VStem: 160 292<248 1430.91> 978 292<248 1430.91> 1212 250<-368.616 0>
LayerCount: 2
Fore
SplineSet
230 0 m 2
 183.333333333 0 160 25 160 75 c 2
 160 1359 l 2
 160 1409 183.333333333 1434 230 1434 c 2
 382 1434 l 2
 428.666666667 1434 452 1409 452 1359 c 2
 452 248 l 1
 978 248 l 1
 978 1359 l 2
 978 1409 1001.33333333 1434 1048 1434 c 2
 1200 1434 l 2
 1246.66666667 1434 1270 1409 1270 1359 c 2
 1270 248 l 5
 1392 248 l 6
 1438.66666667 248 1462 223 1462 173 c 6
 1462 -300 l 6
 1462 -346.666666667 1442 -370 1402 -370 c 6
 1272 -370 l 6
 1232 -370 1212 -346.666666667 1212 -300 c 6
 1212 0 l 5
 230 0 l 2
EndSplineSet
EndChar

StartChar: afii10042
Encoding: 1064 1064 63
Width: 2140
Flags: HW
HStem: 0 248<452 924 1216 1688> 1414 20G<195 417 959 1181 1723 1945>
VStem: 160 292<248 1430.91> 924 292<248 1430.91> 1688 292<248 1430.91>
CounterMasks: 1 38
LayerCount: 2
Fore
SplineSet
230 0 m 2
 183.333333333 0 160 25 160 75 c 2
 160 1359 l 2
 160 1409 183.333333333 1434 230 1434 c 2
 382 1434 l 2
 428.666666667 1434 452 1409 452 1359 c 2
 452 248 l 1
 924 248 l 1
 924 1359 l 2
 924 1409 947.333333333 1434 994 1434 c 2
 1146 1434 l 2
 1192.66666667 1434 1216 1409 1216 1359 c 2
 1216 248 l 1
 1688 248 l 1
 1688 1359 l 2
 1688 1409 1711.33333333 1434 1758 1434 c 2
 1910 1434 l 2
 1956.66666667 1434 1980 1409 1980 1359 c 2
 1980 75 l 2
 1980 25 1956.66666667 0 1910 0 c 2
 230 0 l 2
EndSplineSet
EndChar

StartChar: afii10041
Encoding: 1063 1063 64
Width: 1308
Flags: HW
HStem: 0 21G<891 1113> 524 236<452.278 750.45> 1414 20G<147 369 891 1113>
VStem: 112 292<810.284 1430.91> 856 292<3.09448 611 807.194 1430.91>
LayerCount: 2
Back
SplineSet
120 912 m 2
 120 1379 l 2
 120 1415.66666667 136.666666667 1434 170 1434 c 2
 262 1434 l 2
 295.333333333 1434 312 1415.66666667 312 1379 c 2
 312 960 l 2
 312 866.666666667 330.333333333 803.333333333 367 770 c 128
 403.666666667 736.666666667 454 720 518 720 c 256
 570 720 632 723.333333333 704 730 c 128
 776 736.666666667 849.333333333 755.666666667 924 787 c 1
 924 1379 l 2
 924 1415.66666667 940.666666667 1434 974 1434 c 2
 1066 1434 l 2
 1099.33333333 1434 1116 1415.66666667 1116 1379 c 2
 1116 55 l 2
 1116 18.3333333333 1099.33333333 0 1066 0 c 2
 974 0 l 2
 940.666666667 0 924 18.3333333333 924 55 c 2
 924 573 l 2
 924 599.666666667 924.666666667 626.333333333 926 653 c 1
 922 653 l 1
 859.333333333 625.666666667 796 604.333333333 732 589 c 128
 668 573.666666667 588.333333333 566 493 566 c 256
 367 566 273.333333333 600.166666667 212 668.5 c 128
 150.666666667 736.833333333 120 818 120 912 c 2
EndSplineSet
Fore
SplineSet
112 932 m 2
 112 1359 l 2
 112 1409 135.333333333 1434 182 1434 c 2
 334 1434 l 2
 380.666666667 1434 404 1409 404 1359 c 2
 404 980 l 2
 404 898.666666667 418.666666667 841.666666667 448 809 c 128
 477.333333333 776.333333333 517.666666667 760 569 760 c 256
 617 760 662.166666667 764.333333333 704.5 773 c 128
 746.833333333 781.666666667 797.333333333 799.666666667 856 827 c 1
 856 1359 l 2
 856 1409 879.333333333 1434 926 1434 c 2
 1078 1434 l 2
 1124.66666667 1434 1148 1409 1148 1359 c 2
 1148 75 l 2
 1148 25 1124.66666667 0 1078 0 c 2
 926 0 l 2
 879.333333333 0 856 25 856 75 c 2
 856 491 l 2
 856 531 857.666666667 571 861 611 c 1
 854 611 l 1
 806 586.333333333 748.333333333 565.666666667 681 549 c 128
 613.666666667 532.333333333 551.666666667 524 495 524 c 256
 378.333333333 524 285.333333333 564.666666667 216 646 c 128
 146.666666667 727.333333333 112 822.666666667 112 932 c 2
EndSplineSet
EndChar

StartChar: uni0237
Encoding: 567 567 65
Width: 562
Flags: HW
HStem: -420 196<-91.7275 109.484> 1030 20G<176 396>
VStem: 146 280<-155.925 1048.81>
LayerCount: 2
Fore
SplineSet
-81 -409 m 260
 -106.333333333 -404.333333333 -116 -387 -110 -357 c 6
 -88 -247 l 6
 -82 -216.333333333 -65 -206.333333333 -37 -217 c 260
 -25 -221.666666667 -1 -224 35 -224 c 260
 77 -224 106 -202 122 -158 c 132
 138 -114 146 -52.6666666667 146 26 c 6
 146 990 l 2
 146 1030 166 1050 206 1050 c 2
 366 1050 l 2
 406 1050 426 1030 426 990 c 2
 426 -4 l 6
 426 -169.333333333 393.666666667 -280 329 -336 c 132
 264.333333333 -392 178 -420 70 -420 c 260
 10 -420 -40.3333333333 -416.333333333 -81 -409 c 260
EndSplineSet
EndChar

StartChar: four
Encoding: 52 52 67
Width: 1200
Flags: HW
HStem: 0 21G<704.5 919.5> 312 248<341 672 952 1136.08> 1420 20G<711 919>
VStem: 672 280<1.92017 312 560 1027>
DStem2: 92 608 341 560 0.579061 0.815284<105.053 677.459>
LayerCount: 2
Back
SplineSet
340 558 m 6
 894 1338 l 1030
92 608 m 2
 646 1388 l 1026
EndSplineSet
Fore
SplineSet
127 312 m 2
 83.6666666667 312 62 333.666666667 62 377 c 2
 62 509 l 2
 62 547 72 580 92 608 c 2
 646 1388 l 2
 670.666666667 1422.66666667 701.666666667 1440 739 1440 c 2
 886 1440 l 2
 930 1440 952 1418.33333333 952 1375 c 2
 952 560 l 1
 1073 560 l 2
 1116.33333333 560 1138 538.333333333 1138 495 c 2
 1138 377 l 2
 1138 333.666666667 1116.66666667 312 1074 312 c 2
 952 312 l 1
 952 65 l 2
 952 21.6666666667 930.333333333 0 887 0 c 2
 737 0 l 2
 693.666666667 0 672 21.6666666667 672 65 c 2
 672 312 l 1
 127 312 l 2
341 560 m 1
 672 560 l 1
 672 947 l 2
 672 973.666666667 673.333333333 1000.33333333 676 1027 c 1
 672 1027 l 1
 341 560 l 1
EndSplineSet
EndChar

StartChar: zero
Encoding: 48 48 68
Width: 1200
Flags: HW
HStem: -34 218<477.25 722.75> 1238 218<477.25 722.75>
VStem: 88 296<313.916 1108.08> 816 296<313.916 1108.08>
LayerCount: 2
Fore
SplineSet
88 711 m 256
 88 981 130 1172.66666667 214 1286 c 128
 298 1399.33333333 426.666666667 1456 600 1456 c 256
 773.333333333 1456 902 1399.33333333 986 1286 c 128
 1070 1172.66666667 1112 981 1112 711 c 256
 1112 441 1070 249.333333333 986 136 c 128
 902 22.6666666667 773.333333333 -34 600 -34 c 256
 426.666666667 -34 298 22.6666666667 214 136 c 128
 130 249.333333333 88 441 88 711 c 256
384 711 m 256
 384 587.666666667 394.166666667 469 414.5 355 c 128
 434.833333333 241 496.666666667 184 600 184 c 256
 703.333333333 184 765.166666667 241 785.5 355 c 128
 805.833333333 469 816 587.666666667 816 711 c 256
 816 834.333333333 805.833333333 953 785.5 1067 c 128
 765.166666667 1181 703.333333333 1238 600 1238 c 256
 496.666666667 1238 434.833333333 1181 414.5 1067 c 128
 394.166666667 953 384 834.333333333 384 711 c 256
EndSplineSet
EndChar

StartChar: seven
Encoding: 55 55 69
Width: 1112
Flags: HW
HStem: -6 21G<362.5 577.5> 1174 248<84.9202 767>
VStem: 330 280<-4.07983 481.817>
LayerCount: 2
Back
SplineSet
133 1258 m 2
 103 1258 88 1273 88 1303 c 2
 88 1377 l 2
 88 1407 103 1422 133 1422 c 2
 967 1422 l 2
 997 1422 1012 1407 1012 1377 c 2
 1012 1308 l 2
 1012 1286.66666667 1000 1262.66666667 976 1236 c 0
 842.666666667 1084.66666667 735.666666667 917.166666667 655 733.5 c 128
 574.333333333 549.833333333 534 349.666666667 534 133 c 2
 534 39 l 2
 534 9 519 -6 489 -6 c 2
 398 -6 l 2
 368 -6 353 9 353 39 c 2
 353 98 l 2
 353 338.666666667 398.666666667 550.5 490 733.5 c 128
 581.333333333 916.5 695 1091.33333333 831 1258 c 1
 831 1260 l 1
 811 1258.66666667 791 1258 771 1258 c 2
 133 1258 l 2
EndSplineSet
Fore
SplineSet
148 1174 m 2
 104.666666667 1174 83 1195.66666667 83 1239 c 2
 83 1357 l 2
 83 1400.33333333 104.666666667 1422 148 1422 c 2
 964 1422 l 2
 1007.33333333 1422 1029 1400.33333333 1029 1357 c 2
 1029 1244 l 2
 1029 1210 1012.33333333 1174.33333333 979 1137 c 0
 842.333333333 983 746.666666667 829.333333333 692 676 c 128
 637.333333333 522.666666667 610 337.666666667 610 121 c 2
 610 59 l 2
 610 15.6666666667 588.333333333 -6 545 -6 c 2
 395 -6 l 2
 351.666666667 -6 330 15.6666666667 330 59 c 2
 330 86 l 2
 330 326.666666667 369.833333333 529 449.5 693 c 128
 529.166666667 857 635 1017.33333333 767 1174 c 1
 767 1178 l 1
 740.333333333 1175.33333333 713.666666667 1174 687 1174 c 2
 148 1174 l 2
EndSplineSet
EndChar

StartChar: afii10046
Encoding: 1068 1068 70
Width: 1350
Flags: HW
HStem: 0 244<452 887.492> 626 244<452 887.492> 1414 20G<195 417>
VStem: 160 292<244 626 870 1430.91> 953 312<305.785 564.215>
LayerCount: 2
Back
SplineSet
220 0 m 2
 186.666666667 0 170 18.3333333333 170 55 c 2
 170 1379 l 2
 170 1415.66666667 186.666666667 1434 220 1434 c 2
 312 1434 l 2
 345.333333333 1434 362 1415.66666667 362 1379 c 2
 362 828 l 1
 650 828 l 2
 874.666666667 828 1028.83333333 790.666666667 1112.5 716 c 128
 1196.16666667 641.333333333 1238 540.666666667 1238 414 c 256
 1238 287.333333333 1196.16666667 186.666666667 1112.5 112 c 128
 1028.83333333 37.3333333333 874.666666667 0 650 0 c 2
 220 0 l 2
362 164 m 1
 618 164 l 2
 761.333333333 164 866.333333333 183.166666667 933 221.5 c 128
 999.666666667 259.833333333 1033 324 1033 414 c 256
 1033 504 999.666666667 568.166666667 933 606.5 c 128
 866.333333333 644.833333333 761.333333333 664 618 664 c 2
 362 664 l 1
 362 164 l 1
EndSplineSet
Fore
SplineSet
230 0 m 6
 183.333333333 0 160 25 160 75 c 2
 160 1359 l 2
 160 1409 183.333333333 1434 230 1434 c 2
 382 1434 l 6
 428.666666667 1434 452 1409 452 1359 c 6
 452 870 l 5
 607 870 l 6
 853.666666667 870 1025 830.833333333 1121 752.5 c 132
 1217 674.166666667 1265 568.333333333 1265 435 c 260
 1265 301.666666667 1217 195.833333333 1121 117.5 c 132
 1025 39.1666666667 853.666666667 0 607 0 c 6
 230 0 l 6
452 244 m 5
 578 244 l 6
 718 244 815.5 255.833333333 870.5 279.5 c 132
 925.5 303.166666667 953 355 953 435 c 260
 953 515 925.5 566.833333333 870.5 590.5 c 132
 815.5 614.166666667 718 626 578 626 c 6
 452 626 l 5
 452 244 l 5
EndSplineSet
EndChar

StartChar: afii10020
Encoding: 1043 1043 71
Width: 1118
Flags: HW
HStem: 0 21G<195 417> 1186 248<452 1081.78>
VStem: 160 292<3.09448 1186>
LayerCount: 2
Fore
SplineSet
230 0 m 2
 183.333333333 0 160 25 160 75 c 2
 160 1359 l 2
 160 1409 183.333333333 1434 230 1434 c 2
 1009 1434 l 2
 1059 1434 1084 1412.33333333 1084 1369 c 2
 1084 1251 l 2
 1084 1207.66666667 1059 1186 1009 1186 c 2
 452 1186 l 9
 452 75 l 2
 452 25 428.666666667 0 382 0 c 2
 230 0 l 2
EndSplineSet
EndChar

StartChar: afii10018
Encoding: 1041 1041 72
Width: 1370
Flags: HW
HStem: 0 244<452 888.964> 632 244<452 888.964> 1186 248<452 1151.78>
VStem: 160 292<244 632 876 1186> 963 312<308.292 567.708>
LayerCount: 2
Fore
SplineSet
230 0 m 2
 183.333333333 0 160 25 160 75 c 2
 160 1359 l 2
 160 1409 183.333333333 1434 230 1434 c 2
 1079 1434 l 2
 1129 1434 1154 1412.33333333 1154 1369 c 2
 1154 1251 l 2
 1154 1207.66666667 1129 1186 1079 1186 c 2
 452 1186 l 1
 452 876 l 1
 617 876 l 2
 863.666666667 876 1035 836.333333333 1131 757 c 128
 1227 677.666666667 1275 571.333333333 1275 438 c 256
 1275 304.666666667 1227 198.333333333 1131 119 c 128
 1035 39.6666666667 863.666666667 0 617 0 c 2
 230 0 l 2
452 244 m 1
 588 244 l 2
 728 244 825.5 256.333333333 880.5 281 c 128
 935.5 305.666666667 963 358 963 438 c 256
 963 518 935.5 570.333333333 880.5 595 c 128
 825.5 619.666666667 728 632 588 632 c 2
 452 632 l 1
 452 244 l 1
EndSplineSet
EndChar

StartChar: afii10194
Encoding: 1123 1123 73
Width: 1280
Flags: HW
HStem: 0 196<634 867.06> 452 196<634 867.06> 850 200<47.2344 354 634 940.766> 1456 20G<384 604>
VStem: 354 280<196 452 648 850 1050 1474.81> 914 296<226.695 421.305>
LayerCount: 2
Back
SplineSet
445 0 m 2
 415 0 400 15 400 45 c 2
 400 918 l 1
 95 918 l 2
 65 918 50 929.666666667 50 953 c 2
 50 1015 l 2
 50 1038.33333333 65 1050 95 1050 c 2
 400 1050 l 1
 400 1431 l 2
 400 1461 415 1476 445 1476 c 2
 531 1476 l 2
 561 1476 576 1461 576 1431 c 2
 576 1050 l 1
 881 1050 l 2
 911 1050 926 1038.33333333 926 1015 c 2
 926 953 l 2
 926 929.666666667 911 918 881 918 c 2
 576 918 l 1
 576 618 l 1
 798 618 l 2
 951.333333333 618 1056.66666667 589.833333333 1114 533.5 c 128
 1171.33333333 477.166666667 1200 402.333333333 1200 309 c 256
 1200 215.666666667 1171.33333333 140.833333333 1114 84.5 c 128
 1056.66666667 28.1666666667 951.333333333 0 798 0 c 2
 445 0 l 2
576 131 m 1
 752 131 l 2
 845.333333333 131 912.333333333 142.333333333 953 165 c 128
 993.666666667 187.666666667 1014 235.666666667 1014 309 c 256
 1014 382.333333333 993.666666667 430.5 953 453.5 c 128
 912.333333333 476.5 845.333333333 488 752 488 c 2
 576 488 l 1
 576 131 l 1
EndSplineSet
Fore
SplineSet
107 850 m 2
 67 850 47 866.666666667 47 900 c 2
 47 1000 l 2
 47 1033.33333333 67 1050 107 1050 c 2
 354 1050 l 1
 354 1416 l 2
 354 1456 374 1476 414 1476 c 2
 574 1476 l 2
 614 1476 634 1456 634 1416 c 2
 634 1050 l 25
 881 1050 l 18
 921 1050 941 1033.33333333 941 1000 c 2
 941 900 l 2
 941 866.666666667 921 850 881 850 c 2
 634 850 l 25
 634 648 l 1
 821 648 l 2
 981 648 1085.83333333 615.666666667 1135.5 551 c 128
 1185.16666667 486.333333333 1210 410.666666667 1210 324 c 256
 1210 237.333333333 1185.16666667 161.666666667 1135.5 97 c 128
 1085.83333333 32.3333333333 981 0 821 0 c 2
 414 0 l 2
 374 0 354 20 354 60 c 2
 354 850 l 17
 107 850 l 2
634 196 m 1
 703 196 l 2
 783 196 838.166666667 205.666666667 868.5 225 c 128
 898.833333333 244.333333333 914 277.333333333 914 324 c 256
 914 370.666666667 898.833333333 403.666666667 868.5 423 c 128
 838.166666667 442.333333333 783 452 703 452 c 2
 634 452 l 1
 634 196 l 1
EndSplineSet
EndChar

StartChar: period
Encoding: 46 46 74
Width: 668
Flags: HW
HStem: 0 284<191.845 476.155>
VStem: 188 292<3.09448 280.906>
LayerCount: 2
Back
SplineSet
244 0 m 2
 214 0 199 15 199 45 c 2
 199 167 l 2
 199 197 214 212 244 212 c 2
 356 212 l 2
 386 212 401 197 401 167 c 2
 401 45 l 2
 401 15 386 0 356 0 c 2
 244 0 l 2
EndSplineSet
Fore
SplineSet
258 0 m 2
 211.333333333 0 188 25 188 75 c 2
 188 209 l 2
 188 259 211.333333333 284 258 284 c 2
 410 284 l 2
 456.666666667 284 480 259 480 209 c 2
 480 75 l 2
 480 25 456.666666667 0 410 0 c 2
 258 0 l 2
EndSplineSet
EndChar

StartChar: h
Encoding: 104 104 75
Width: 1200
Flags: HW
HStem: 0 21G<166 386 816 1036> 874 196<505.093 745.789> 1456 20G<166 386>
VStem: 136 280<1.18652 778.694 932 1474.81> 786 280<1.18652 833.5>
LayerCount: 2
Fore
SplineSet
196 0 m 2
 156 0 136 20 136 60 c 2
 136 1416 l 2
 136 1456 156 1476 196 1476 c 2
 356 1476 l 2
 396 1476 416 1456 416 1416 c 2
 416 1012 l 2
 416 985.333333333 414.666666667 958.666666667 412 932 c 1
 418 932 l 1
 448.666666667 984.666666667 487.666666667 1020.83333333 535 1040.5 c 128
 582.333333333 1060.16666667 639.333333333 1070 706 1070 c 256
 810 1070 896 1037.33333333 964 972 c 128
 1032 906.666666667 1066 787.333333333 1066 614 c 2
 1066 60 l 2
 1066 20 1046 0 1006 0 c 2
 846 0 l 2
 806 0 786 20 786 60 c 2
 786 542 l 2
 786 687.333333333 776 779 756 817 c 128
 736 855 693 874 627 874 c 256
 557 874 504.333333333 846.833333333 469 792.5 c 128
 433.666666667 738.166666667 416 625.333333333 416 454 c 2
 416 60 l 2
 416 20 396 0 356 0 c 2
 196 0 l 2
EndSplineSet
EndChar

StartChar: b
Encoding: 98 98 76
Width: 1192
Flags: HW
HStem: -20 196<501.022 737.585> 0 21G<166 378.931> 874 196<501.022 737.585> 1456 20G<166 386>
VStem: 136 280<2.10938 118 276.788 773.212 932 1474.81> 816 296<265.705 784.295>
LayerCount: 2
Fore
SplineSet
196 0 m 2
 156 0 136 20 136 60 c 2
 136 1416 l 6
 136 1456 156 1476 196 1476 c 6
 356 1476 l 6
 396 1476 416 1456 416 1416 c 6
 416 1012 l 6
 416 985.333333333 414.666666667 958.666666667 412 932 c 5
 416 932 l 5
 450.666666667 989.333333333 489.333333333 1026.66666667 532 1044 c 128
 574.666666667 1061.33333333 626 1070 686 1070 c 256
 842.666666667 1070 952.833333333 1015.83333333 1016.5 907.5 c 128
 1080.16666667 799.166666667 1112 671.666666667 1112 525 c 256
 1112 378.333333333 1080.16666667 250.833333333 1016.5 142.5 c 128
 952.833333333 34.1666666667 842.666666667 -20 686 -20 c 256
 626 -20 574.666666667 -11.3333333333 532 6 c 128
 489.333333333 23.3333333333 450.666666667 60.6666666667 416 118 c 1
 412 118 l 1
 408 60 l 2
 405.241333333 20 387.241333333 0 354 0 c 2
 196 0 l 2
416 480 m 2
 416 390 433.833333333 316.833333333 469.5 260.5 c 128
 505.166666667 204.166666667 548 176 598 176 c 256
 688 176 746.833333333 207.5 774.5 270.5 c 128
 802.166666667 333.5 816 418.333333333 816 525 c 256
 816 631.666666667 802.166666667 716.5 774.5 779.5 c 128
 746.833333333 842.5 688 874 598 874 c 256
 548 874 505.166666667 845.833333333 469.5 789.5 c 128
 433.833333333 733.166666667 416 660 416 570 c 2
 416 480 l 2
EndSplineSet
EndChar

StartChar: d
Encoding: 100 100 77
Width: 1192
Flags: HW
HStem: -20 196<454.415 690.978> 0 21<813.069 1026> 874 196<454.415 690.978> 1456 20<806 1026>
VStem: 80 296<265.705 784.295> 776 280<2.10938 118 276.788 773.212 932 1474.81>
LayerCount: 2
Fore
SplineSet
80 525 m 256
 80 671.666666667 111.833333333 799.166666667 175.5 907.5 c 128
 239.166666667 1015.83333333 349.333333333 1070 506 1070 c 256
 566 1070 617.333333333 1061.33333333 660 1044 c 128
 702.666666667 1026.66666667 741.333333333 989.333333333 776 932 c 1
 780 932 l 1
 777.333333333 958.666666667 776 985.333333333 776 1012 c 2
 776 1416 l 2
 776 1456 796 1476 836 1476 c 2
 996 1476 l 2
 1036 1476 1056 1456 1056 1416 c 2
 1056 60 l 2
 1056 20 1036 0 996 0 c 2
 838 0 l 2
 804.758666667 0 786.758666667 20 784 60 c 2
 780 118 l 1
 776 118 l 1
 741.333333333 60.6666666667 702.666666667 23.3333333333 660 6 c 128
 617.333333333 -11.3333333333 566 -20 506 -20 c 256
 349.333333333 -20 239.166666667 34.1666666667 175.5 142.5 c 128
 111.833333333 250.833333333 80 378.333333333 80 525 c 256
376 525 m 256
 376 418.333333333 389.833333333 333.5 417.5 270.5 c 128
 445.166666667 207.5 504 176 594 176 c 256
 644 176 686.833333333 204.166666667 722.5 260.5 c 128
 758.166666667 316.833333333 776 390 776 480 c 2
 776 570 l 2
 776 660 758.166666667 733.166666667 722.5 789.5 c 128
 686.833333333 845.833333333 644 874 594 874 c 256
 504 874 445.166666667 842.5 417.5 779.5 c 128
 389.833333333 716.5 376 631.666666667 376 525 c 256
EndSplineSet
EndChar

StartChar: X
Encoding: 88 88 78
Width: 1418
Flags: HMW
HStem: 0 21G<60 339 1079 1358> 537 406<506 912> 1414 20G<96 372.5 1045.5 1322>
DStem2: 70 86 403 59 0.56082 0.827938<63.2803 731.764> 709 943 106 1348 0.556276 -0.830997<-620.482 0> 709 943 904 740 0.557219 0.830366<0 620.532> 904 740 709 537 0.561687 -0.82735<58.423 737.732>
LayerCount: 2
Back
SplineSet
1024 1434 m 25
 9 0 l 1049
1373 1434 m 25
 361 0 l 1049
394 1434 m 25
 1409 0 l 1049
45 1434 m 25
 1057 0 l 1049
EndSplineSet
Fore
SplineSet
108 0 m 2
 44 0 31.3333333333 28.6666666667 70 86 c 2
 513 740 l 1
 106 1348 l 2
 67.3333333333 1405.33333333 80 1434 144 1434 c 2
 346 1434 l 2
 381.333333333 1434 411.333333333 1414.33333333 436 1375 c 2
 709 943 l 1
 982 1375 l 2
 1006.66666667 1414.33333333 1036.66666667 1434 1072 1434 c 2
 1274 1434 l 2
 1338 1434 1350.66666667 1405.33333333 1312 1348 c 2
 904 740 l 1
 1348 86 l 2
 1386.66666667 28.6666666667 1374 0 1310 0 c 2
 1105 0 l 2
 1070.33333333 0 1040.33333333 19.6666666667 1015 59 c 2
 709 537 l 1
 403 59 l 2
 377.666666667 19.6666666667 347.666666667 0 313 0 c 2
 108 0 l 2
EndSplineSet
EndChar

StartChar: comma
Encoding: 44 44 82
Width: 668
Flags: HW
HStem: 0 284<189.845 325>
VStem: 186 296<5.72021 280.906> 325 157<-165.447 0>
LayerCount: 2
Back
SplineSet
258 0 m 6
 211.333333333 0 188 25 188 75 c 6
 188 209 l 6
 188 259 211.333333333 284 258 284 c 6
 410 284 l 6
 456.666666667 284 480 259 480 209 c 6
 480 75 l 6
 480 25 456.666666667 0 410 0 c 6
 258 0 l 6
EndSplineSet
Fore
SplineSet
256 0 m 2
 209.333333333 0 186 25 186 75 c 2
 186 209 l 2
 186 259 209.333333333 284 256 284 c 2
 412 284 l 2
 458.666666667 284 482 259 482 209 c 2
 482 75 l 258
 482 -11 476.333333333 -83.1666666667 465 -141.5 c 128
 453.666666667 -199.833333333 424.666666667 -247 378 -283 c 256
 344 -309 317.333333333 -311.666666667 298 -291 c 2
 260 -250 l 2
 236 -224.666666667 239.666666667 -199.666666667 271 -175 c 256
 292.333333333 -158.333333333 306.666666667 -136.666666667 314 -110 c 128
 321.333333333 -83.3333333333 325 -46.6666666667 325 0 c 9
 256 0 l 2
EndSplineSet
EndChar

StartChar: afii10028
Encoding: 1050 1050 83
Width: 1348
Flags: HW
HStem: 0 21G<195 417 1037 1298> 611 244<452 603.859> 1414 20G<195 417 1018 1269.5>
VStem: 160 292<3.09448 611 855 1430.91>
DStem2: 744 1050 990 954 0.563857 0.825872<-210.494 495.649> 1290 86 786 384 0.529612 -0.84824<-734.186 -40.0242>
LayerCount: 2
Back
SplineSet
220 0 m 2
 186.666666667 0 170 18.3333333333 170 55 c 2
 170 1379 l 2
 170 1415.66666667 186.666666667 1434 220 1434 c 2
 312 1434 l 2
 345.333333333 1434 362 1415.66666667 362 1379 c 2
 362 813 l 1
 404 813 l 2
 480 813 540.833333333 832.166666667 586.5 870.5 c 128
 632.166666667 908.833333333 674.666666667 956.666666667 714 1014 c 2
 974 1395 l 2
 992 1421 1015.33333333 1434 1044 1434 c 2
 1161 1434 l 2
 1203.66666667 1434 1209.66666667 1412 1179 1368 c 2
 872 932 l 2
 836 881.333333333 795.833333333 837.5 751.5 800.5 c 128
 707.166666667 763.5 676.333333333 741.666666667 659 735 c 1
 659 734 l 1
 696.333333333 726 735 708.166666667 775 680.5 c 128
 815 652.833333333 864 594.666666667 922 506 c 2
 1210 66 l 2
 1238.66666667 22 1232.66666667 0 1192 0 c 2
 1065 0 l 2
 1033.66666667 0 1010.33333333 13 995 39 c 2
 774 408 l 2
 730.666666667 480 678.5 538.833333333 617.5 584.5 c 128
 556.5 630.166666667 490.333333333 653 419 653 c 2
 362 653 l 1
 362 55 l 2
 362 18.3333333333 345.333333333 0 312 0 c 2
 220 0 l 2
EndSplineSet
Fore
SplineSet
230 0 m 2
 183.333333333 0 160 25 160 75 c 2
 160 1359 l 2
 160 1409 183.333333333 1434 230 1434 c 2
 382 1434 l 2
 428.666666667 1434 452 1409 452 1359 c 2
 452 855 l 1
 482 855 l 2
 526.666666667 855 572.666666667 873.666666667 620 911 c 128
 667.333333333 948.333333333 708.666666667 994.666666667 744 1050 c 2
 954 1375 l 2
 979.333333333 1414.33333333 1009.33333333 1434 1044 1434 c 2
 1221 1434 l 2
 1285.66666667 1434 1298.33333333 1405.33333333 1259 1348 c 2
 990 954 l 2
 956.666666667 905.333333333 923.833333333 864.666666667 891.5 832 c 128
 859.166666667 799.333333333 818.666666667 767 770 735 c 1
 770 734 l 1
 820.666666667 714.666666667 866.666666667 687.166666667 908 651.5 c 128
 949.333333333 615.833333333 994.666666667 558.666666667 1044 480 c 2
 1290 86 l 2
 1326 28.6666666667 1313.33333333 0 1252 0 c 2
 1065 0 l 2
 1027.66666667 0 997.666666667 19.6666666667 975 59 c 2
 786 384 l 2
 750.666666667 445.333333333 705.833333333 498.5 651.5 543.5 c 128
 597.166666667 588.5 545.666666667 611 497 611 c 2
 452 611 l 1
 452 75 l 2
 452 25 428.666666667 0 382 0 c 2
 230 0 l 2
EndSplineSet
EndChar

StartChar: afii10024
Encoding: 1046 1046 84
Width: 2040
Flags: HW
HStem: 0 21G<50.5 311.5 909 1131 1728.5 1989.5> 611 244<738.013 874 1166 1301.99> 1414 20G<79 330.5 909 1131 1709.5 1961>
VStem: 874 292<3.09448 611 855 1430.91>
DStem2: 58 86 373 59 0.5218 0.853068<44.9799 725.772> 599 1050 89 1348 0.556645 -0.83075<-490.916 211.996> 1441 1050 1687 954 0.556645 0.83075<-211.996 490.916> 1982 86 1483 384 0.5218 -0.853068<-725.772 -37.9427>
LayerCount: 2
Fore
SplineSet
96 0 m 2
 35.3333333333 0 22.6666666667 28.6666666667 58 86 c 2
 299 480 l 2
 346.333333333 557.333333333 391.166666667 614.166666667 433.5 650.5 c 128
 475.833333333 686.833333333 522.333333333 714.666666667 573 734 c 1
 573 735 l 1
 535 755 495.333333333 786.833333333 454 830.5 c 128
 412.666666667 874.166666667 379 915.333333333 353 954 c 2
 89 1348 l 2
 50.3333333333 1405.33333333 63 1434 127 1434 c 2
 304 1434 l 2
 339.333333333 1434 369.333333333 1414.33333333 394 1375 c 2
 599 1050 l 2
 633.666666667 995.333333333 674.833333333 949.166666667 722.5 911.5 c 128
 770.166666667 873.833333333 813 855 851 855 c 2
 874 855 l 1
 874 1359 l 2
 874 1409 897.333333333 1434 944 1434 c 2
 1096 1434 l 2
 1142.66666667 1434 1166 1409 1166 1359 c 2
 1166 855 l 1
 1189 855 l 2
 1227 855 1269.83333333 873.833333333 1317.5 911.5 c 128
 1365.16666667 949.166666667 1406.33333333 995.333333333 1441 1050 c 2
 1646 1375 l 2
 1670.66666667 1414.33333333 1700.66666667 1434 1736 1434 c 2
 1913 1434 l 2
 1977 1434 1989.66666667 1405.33333333 1951 1348 c 2
 1687 954 l 2
 1661 915.333333333 1627.33333333 874.166666667 1586 830.5 c 128
 1544.66666667 786.833333333 1505 755 1467 735 c 1
 1467 734 l 1
 1517.66666667 714.666666667 1564.16666667 686.833333333 1606.5 650.5 c 128
 1648.83333333 614.166666667 1693.66666667 557.333333333 1741 480 c 2
 1982 86 l 2
 2017.33333333 28.6666666667 2004.66666667 0 1944 0 c 2
 1757 0 l 2
 1719 0 1689 19.6666666667 1667 59 c 2
 1483 384 l 2
 1448.33333333 445.333333333 1403.66666667 498.5 1349 543.5 c 128
 1294.33333333 588.5 1246 611 1204 611 c 2
 1166 611 l 1
 1166 75 l 2
 1166 25 1142.66666667 0 1096 0 c 2
 944 0 l 2
 897.333333333 0 874 25 874 75 c 2
 874 611 l 1
 836 611 l 2
 794 611 745.666666667 588.5 691 543.5 c 128
 636.333333333 498.5 591.666666667 445.333333333 557 384 c 2
 373 59 l 2
 351 19.6666666667 321 0 283 0 c 2
 96 0 l 2
EndSplineSet
EndChar

StartChar: P
Encoding: 80 80 85
Width: 1328
Flags: HW
HStem: 0 21G<195 417> 536 244<452 868.506> 1190 244<452 868.506>
VStem: 160 292<3.09448 536 780 1190> 947 296<852.865 1117.14>
LayerCount: 2
Fore
SplineSet
230 0 m 2
 183.333333333 0 160 25 160 75 c 2
 160 1359 l 2
 160 1409 183.333333333 1434 230 1434 c 2
 604 1434 l 2
 844 1434 1010.5 1395 1103.5 1317 c 128
 1196.5 1239 1243 1128.33333333 1243 985 c 256
 1243 841.666666667 1196.5 731 1103.5 653 c 128
 1010.5 575 844 536 604 536 c 2
 452 536 l 1
 452 75 l 2
 452 25 428.666666667 0 382 0 c 2
 230 0 l 2
452 780 m 1
 603 780 l 2
 736.333333333 780 827 795.833333333 875 827.5 c 128
 923 859.166666667 947 911.666666667 947 985 c 256
 947 1058.33333333 923 1110.83333333 875 1142.5 c 128
 827 1174.16666667 736.333333333 1190 603 1190 c 2
 452 1190 l 1
 452 780 l 1
EndSplineSet
EndChar

StartChar: B
Encoding: 66 66 86
Width: 1379
Flags: HW
HStem: 0 244<452 894.551> 618 236<452 824.031> 1190 244<452 876.772>
VStem: 160 292<244 618 854 1190> 937 296<940.387 1136.95> 963 312<303.177 547.558>
LayerCount: 2
Back
SplineSet
260 0 m 2
 213.333333333 0 190 25 190 75 c 2
 190 1359 l 2
 190 1409 213.333333333 1434 260 1434 c 2
 634 1434 l 2
 874 1434 1040.5 1395 1133.5 1317 c 128
 1226.5 1239 1273 1128.33333333 1273 985 c 256
 1273 841.666666667 1226.5 731 1133.5 653 c 128
 1040.5 575 874 536 634 536 c 2
 482 536 l 1
 482 75 l 2
 482 25 458.666666667 0 412 0 c 2
 260 0 l 2
482 780 m 1
 633 780 l 2
 766.333333333 780 857 795.833333333 905 827.5 c 128
 953 859.166666667 977 911.666666667 977 985 c 256
 977 1058.33333333 953 1110.83333333 905 1142.5 c 128
 857 1174.16666667 766.333333333 1190 633 1190 c 2
 482 1190 l 1
 482 780 l 1
240 0 m 2
 193.333333333 0 170 25 170 75 c 2
 170 1359 l 2
 170 1409 193.333333333 1434 240 1434 c 2
 392 1434 l 2
 438.666666667 1434 462 1409 462 1359 c 2
 462 870 l 1
 617 870 l 2
 863.666666667 870 1035 830.833333333 1131 752.5 c 128
 1227 674.166666667 1275 568.333333333 1275 435 c 256
 1275 301.666666667 1227 195.833333333 1131 117.5 c 128
 1035 39.1666666667 863.666666667 0 617 0 c 2
 240 0 l 2
462 244 m 1
 588 244 l 2
 728 244 825.5 255.833333333 880.5 279.5 c 128
 935.5 303.166666667 963 355 963 435 c 256
 963 515 935.5 566.833333333 880.5 590.5 c 128
 825.5 614.166666667 728 626 588 626 c 2
 462 626 l 1
 462 244 l 1
EndSplineSet
Fore
SplineSet
240 0 m 2
 186.666666667 0 160 25 160 75 c 2
 160 1359 l 2
 160 1409 186.666666667 1434 240 1434 c 2
 580 1434 l 2
 836 1434 1008.83333333 1402.5 1098.5 1339.5 c 128
 1188.16666667 1276.5 1233 1179.66666667 1233 1049 c 256
 1233 957.666666667 1199.5 887 1132.5 837 c 128
 1065.5 787 1000.66666667 758 938 750 c 1
 938 747 l 1
 998.666666667 743 1070 712.333333333 1152 655 c 128
 1234 597.666666667 1275 516.666666667 1275 412 c 256
 1275 289.333333333 1225 190 1125 114 c 128
 1025 38 860 0 630 0 c 2
 240 0 l 2
452 244 m 1
 598 244 l 2
 739.333333333 244 835.5 256.333333333 886.5 281 c 128
 937.5 305.666666667 963 355.666666667 963 431 c 256
 963 501.666666667 933.5 550.5 874.5 577.5 c 128
 815.5 604.5 723.333333333 618 598 618 c 2
 452 618 l 1
 452 244 l 1
452 854 m 1
 583 854 l 2
 669 854 749.5 869 824.5 899 c 128
 899.5 929 937 975.666666667 937 1039 c 256
 937 1088.33333333 916.166666667 1125.83333333 874.5 1151.5 c 128
 832.833333333 1177.16666667 735.666666667 1190 583 1190 c 2
 452 1190 l 1
 452 854 l 1
EndSplineSet
EndChar

StartChar: hyphen
Encoding: 45 45 89
Width: 700
Flags: HW
HStem: 446 214<53.2344 646.766>
VStem: 53 594<446.989 659.011>
LayerCount: 2
Fore
SplineSet
113 446 m 2
 73 446 53 462.666666667 53 496 c 2
 53 610 l 2
 53 643.333333333 73 660 113 660 c 2
 587 660 l 2
 627 660 647 643.333333333 647 610 c 2
 647 496 l 2
 647 462.666666667 627 446 587 446 c 2
 113 446 l 2
EndSplineSet
EndChar

StartChar: endash
Encoding: 8211 8211 90
Width: 1024
Flags: HW
HStem: 453 200<35.2344 988.766>
LayerCount: 2
Fore
SplineSet
95 453 m 6
 55 453 35 469.666666667 35 503 c 6
 35 603 l 6
 35 636.333333333 55 653 95 653 c 6
 929 653 l 6
 969 653 989 636.333333333 989 603 c 6
 989 503 l 6
 989 469.666666667 969 453 929 453 c 6
 95 453 l 6
EndSplineSet
EndChar

StartChar: C
Encoding: 67 67 91
Width: 1418
Flags: HW
HStem: -34 236<576.29 954.712> 1232 236<575.094 952.917>
VStem: 86 312<417.211 1016.79>
LayerCount: 2
Back
SplineSet
86 717 m 256
 86 947 145.333333333 1129.66666667 264 1265 c 128
 382.666666667 1400.33333333 552 1468 772 1468 c 256
 992 1468 1161.33333333 1400.33333333 1280 1265 c 128
 1398.66666667 1129.66666667 1458 947 1458 717 c 256
 1458 487 1398.66666667 304.333333333 1280 169 c 128
 1161.33333333 33.6666666667 992 -34 772 -34 c 256
 552 -34 382.666666667 33.6666666667 264 169 c 128
 145.333333333 304.333333333 86 487 86 717 c 256
398 717 m 256
 398 550.333333333 427.833333333 422.833333333 487.5 334.5 c 128
 547.166666667 246.166666667 642 202 772 202 c 256
 902 202 996.833333333 246.166666667 1056.5 334.5 c 128
 1116.16666667 422.833333333 1146 550.333333333 1146 717 c 256
 1146 883.666666667 1116.16666667 1011.16666667 1056.5 1099.5 c 128
 996.833333333 1187.83333333 902 1232 772 1232 c 256
 642 1232 547.166666667 1187.83333333 487.5 1099.5 c 128
 427.833333333 1011.16666667 398 883.666666667 398 717 c 256
EndSplineSet
Fore
SplineSet
86 717 m 256
 86 947 144.333333333 1129.66666667 261 1265 c 128
 377.666666667 1400.33333333 546 1468 766 1468 c 256
 892.666666667 1468 1000 1448.33333333 1088 1409 c 128
 1176 1369.66666667 1238 1312.66666667 1274 1238 c 256
 1298 1188.66666667 1294 1155.33333333 1262 1138 c 258
 1142 1074 l 258
 1100 1051.33333333 1065.33333333 1064 1038 1112 c 256
 1020.66666667 1142.66666667 988.5 1170.33333333 941.5 1195 c 128
 894.5 1219.66666667 839.333333333 1232 776 1232 c 256
 636 1232 538 1187.83333333 482 1099.5 c 128
 426 1011.16666667 398 883.666666667 398 717 c 256
 398 550.333333333 426 422.833333333 482 334.5 c 128
 538 246.166666667 636 202 776 202 c 256
 851.333333333 202 914.833333333 219 966.5 253 c 152
 1018.16666667 287 1054 319.333333333 1074 350 c 256
 1106.66666667 400 1141.33333333 412.666666667 1178 388 c 258
 1298 308 l 258
 1330.66666667 286 1334 252.666666667 1308 208 c 256
 1269.33333333 141.333333333 1203 84.3333333333 1109 37 c 152
 1015 -10.3333333333 900.666666667 -34 766 -34 c 256
 549.333333333 -34 381.833333333 33.6666666667 263.5 169 c 128
 145.166666667 304.333333333 86 487 86 717 c 256
EndSplineSet
EndChar

StartChar: T
Encoding: 84 84 92
Width: 1246
Flags: HW
HStem: 0 21G<502 744> 1178 256<36.2156 477 769 1209.78>
VStem: 477 292<0.214844 1178>
LayerCount: 2
Back
SplineSet
76 1313 m 2
 76 1372 l 2
 76 1394.66666667 78.8333333333 1409.16666667 84.5 1415.5 c 128
 90.1666666667 1421.83333333 100.666666667 1426.33333333 116 1429 c 0
 118.666666667 1429.66666667 121 1430 123 1430 c 2
 1339 1430 l 2
 1369 1430 1387.5 1425.66666667 1394.5 1417 c 128
 1401.5 1408.33333333 1405 1390 1405 1362 c 2
 1405 1327 l 2
 1405 1302.33333333 1401.33333333 1286 1394 1278 c 128
 1386.66666667 1270 1370.66666667 1266 1346 1266 c 2
 836 1266 l 1
 836 61 l 2
 836 31.6666666667 830.333333333 13.3333333333 819 6 c 1
 817.666666667 6 816.166666667 5.66666666667 814.5 5 c 128
 812.833333333 4.33333333333 811.666666667 4 811 4 c 2
 805.666666667 1.33333333333 797.333333333 0 786 0 c 2
 711 0 l 2
 694.333333333 0 681.333333333 0.833333333333 672 2.5 c 128
 662.666666667 4.16666666667 656.166666667 8.66666666667 652.5 16 c 128
 648.833333333 23.3333333333 646.666666667 29.8333333333 646 35.5 c 128
 645.333333333 41.1666666667 645 52 645 68 c 2
 645 1266 l 1
 133 1266 l 2
 123 1266 114.666666667 1266.5 108 1267.5 c 128
 101.333333333 1268.5 95.8333333333 1271.16666667 91.5 1275.5 c 128
 87.1666666667 1279.83333333 84 1282.83333333 82 1284.5 c 128
 80 1286.16666667 78.5 1290.83333333 77.5 1298.5 c 128
 76.5 1306.16666667 76 1311 76 1313 c 2
EndSplineSet
Fore
SplineSet
109 1178 m 2
 59 1178 34 1199.66666667 34 1243 c 2
 34 1369 l 2
 34 1412.33333333 59 1434 109 1434 c 2
 1137 1434 l 2
 1187 1434 1212 1412.33333333 1212 1369 c 2
 1212 1243 l 2
 1212 1199.66666667 1187 1178 1137 1178 c 2
 769 1178 l 1
 769 55 l 2
 769 18.3333333333 752.333333333 0 719 0 c 2
 527 0 l 2
 493.666666667 0 477 18.3333333333 477 55 c 2
 477 1178 l 1
 109 1178 l 2
EndSplineSet
EndChar

StartChar: V
Encoding: 86 86 93
Width: 1370
Flags: HW
HStem: 0 21G<583 787> 1414 20G<54 282.5 1087.5 1316>
DStem2: 341 1365 43 1368 0.348168 -0.937432<-88.2024 1047.49> 723 530 849 81 0.348168 0.937432<-158.198 979.396>
LayerCount: 2
Back
SplineSet
1304 1434 m 2
 1352 1434 1367.66666667 1412 1351 1368 c 2
 861 81 l 2
 840.333333333 27 809 0 767 0 c 2
 627 0 l 2
 585 0 553.666666667 27 533 81 c 2
 43 1368 l 2
 26.3333333333 1412 42 1434 90 1434 c 2
 249 1434 l 2
 293 1434 323.666666667 1411 341 1365 c 2
 443 1096 l 1
 951 1096 l 1
 1053 1365 l 2
 1070.33333333 1411 1101 1434 1145 1434 c 2
 1304 1434 l 2
858 848 m 1
 536 848 l 1
 659 530 l 2
 673.666666667 492.666666667 682.5 465.5 685.5 448.5 c 128
 688.5 431.5 691.666666667 406.333333333 695 373 c 1
 699 373 l 1
 702.333333333 406.333333333 705.5 431.5 708.5 448.5 c 128
 711.5 465.5 720.333333333 492.666666667 735 530 c 2
 858 848 l 1
EndSplineSet
Fore
SplineSet
43 1368 m 2
 26.3333333333 1412 42 1434 90 1434 c 2
 249 1434 l 2
 293.666666667 1434 324.333333333 1411 341 1365 c 2
 647 530 l 2
 662.333333333 487.333333333 671.333333333 458.833333333 674 444.5 c 128
 676.666666667 430.166666667 679.666666667 406.333333333 683 373 c 1
 687 373 l 1
 690.333333333 406.333333333 693.333333333 430.166666667 696 444.5 c 128
 698.666666667 458.833333333 707.666666667 487.333333333 723 530 c 2
 1029 1365 l 2
 1045.66666667 1411 1076.33333333 1434 1121 1434 c 2
 1280 1434 l 2
 1328 1434 1343.66666667 1412 1327 1368 c 2
 849 81 l 2
 829 27 797.666666667 0 755 0 c 2
 615 0 l 2
 572.333333333 0 541 27 521 81 c 2
 43 1368 l 2
EndSplineSet
EndChar

StartChar: A
Encoding: 65 65 94
Width: 1394
Flags: HW
HStem: 0 21G<54 282 1112 1340> 338 248<536 858> 1414 20G<595.5 798.5>
DStem2: 43 66 341 69 0.355814 0.934557<20.1825 396.525 661.386 1160.36> 861 1353 735 904 0.355814 -0.934557<216.759 715.738 980.598 1356.94>
LayerCount: 2
Back
SplineSet
556 1373 m 2
 1054 66 l 1026
340 66 m 6
 838 1373 l 1030
43 66 m 6
 541 1373 l 1030
853 1373 m 2
 1351 66 l 1026
EndSplineSet
Fore
SplineSet
90 0 m 2
 42 0 26.3333333333 22 43 66 c 2
 533 1353 l 2
 553.666666667 1407 585 1434 627 1434 c 2
 767 1434 l 2
 809 1434 840.333333333 1407 861 1353 c 2
 1351 66 l 2
 1367.66666667 22 1352 0 1304 0 c 2
 1145 0 l 2
 1101 0 1070.33333333 23 1053 69 c 2
 951 338 l 1
 443 338 l 1
 341 69 l 2
 323.666666667 23 293 0 249 0 c 2
 90 0 l 2
536 586 m 1
 858 586 l 1
 735 904 l 2
 720.333333333 941.333333333 711.5 968.5 708.5 985.5 c 128
 705.5 1002.5 702.333333333 1027.66666667 699 1061 c 1
 695 1061 l 1
 691.666666667 1027.66666667 688.5 1002.5 685.5 985.5 c 128
 682.5 968.5 673.666666667 941.333333333 659 904 c 2
 536 586 l 1
EndSplineSet
EndChar

StartChar: afii10029
Encoding: 1051 1051 98
Width: 1494
Flags: HW
HStem: -34 236<70.3105 301.152> 0 21G<1077 1299> 1186 248<704 1042>
VStem: 454 250<502.478 1186> 1042 292<3.09448 1186>
LayerCount: 2
Fore
SplineSet
68 -10 m 256
 40 -0.666666666667 30 22 38 58 c 2
 64 172 l 2
 72 207.333333333 93 220 127 210 c 256
 145.666666667 204.666666667 165 202 185 202 c 0
 287 202 357.333333333 274.833333333 396 420.5 c 128
 434.666666667 566.166666667 454 789.333333333 454 1090 c 2
 454 1359 l 2
 454 1409 477.333333333 1434 524 1434 c 2
 1264 1434 l 2
 1310.66666667 1434 1334 1409 1334 1359 c 2
 1334 75 l 2
 1334 25 1310.66666667 0 1264 0 c 2
 1112 0 l 2
 1065.33333333 0 1042 25 1042 75 c 2
 1042 1186 l 1
 704 1186 l 1
 704 1034 l 2
 704 637.333333333 665 360.166666667 587 202.5 c 128
 509 44.8333333333 382.666666667 -34 208 -34 c 0
 164 -34 117.333333333 -26 68 -10 c 256
EndSplineSet
EndChar

StartChar: afii10038
Encoding: 1060 1060 99
Width: 1858
Flags: HW
HStem: -15 21G<818 1040> 160 230<535.01 783 1075 1322.99> 1070 230<535.01 783 1075 1322.99> 1422 20G<818 1040>
VStem: 86 302<535.015 924.985> 783 292<-11.9055 160 390 1070 1300 1438.91> 1470 302<535.015 924.985>
CounterMasks: 1 0e
LayerCount: 2
Fore
SplineSet
86 730 m 256
 86 910 143.333333333 1050 258 1150 c 128
 372.666666667 1250 533.333333333 1300 740 1300 c 2
 783 1300 l 1
 783 1367 l 2
 783 1417 806.333333333 1442 853 1442 c 2
 1005 1442 l 2
 1051.66666667 1442 1075 1417 1075 1367 c 2
 1075 1300 l 1
 1118 1300 l 2
 1324.66666667 1300 1485.33333333 1250 1600 1150 c 128
 1714.66666667 1050 1772 910 1772 730 c 256
 1772 550 1714.66666667 410 1600 310 c 128
 1485.33333333 210 1324.66666667 160 1118 160 c 2
 1075 160 l 1
 1075 60 l 2
 1075 10 1051.66666667 -15 1005 -15 c 2
 853 -15 l 2
 806.333333333 -15 783 10 783 60 c 2
 783 160 l 1
 740 160 l 2
 533.333333333 160 372.666666667 210 258 310 c 128
 143.333333333 410 86 550 86 730 c 256
388 730 m 256
 388 626.666666667 414.666666667 544.166666667 468 482.5 c 128
 521.333333333 420.833333333 616.333333333 390 753 390 c 2
 783 390 l 1
 783 1070 l 1
 753 1070 l 2
 616.333333333 1070 521.333333333 1039.16666667 468 977.5 c 128
 414.666666667 915.833333333 388 833.333333333 388 730 c 256
1075 390 m 1
 1105 390 l 2
 1241.66666667 390 1336.66666667 420.833333333 1390 482.5 c 128
 1443.33333333 544.166666667 1470 626.666666667 1470 730 c 256
 1470 833.333333333 1443.33333333 915.833333333 1390 977.5 c 128
 1336.66666667 1039.16666667 1241.66666667 1070 1105 1070 c 2
 1075 1070 l 1
 1075 390 l 1
EndSplineSet
EndChar

StartChar: g
Encoding: 103 103 100
Width: 1192
Flags: HMW
HStem: -420 196<266.535 701.812> -10 196<454.415 690.978> 874 196<454.415 690.978> 1030 20G<813 1026>
VStem: 80 296<275.059 784.295> 776 280<-151.375 128 286.788 773.212 932 1047.89>
LayerCount: 2
Fore
SplineSet
80 525 m 256
 80 671.666666667 111.833333333 799.166666667 175.5 907.5 c 128
 239.166666667 1015.83333333 349.333333333 1070 506 1070 c 256
 566 1070 617.333333333 1061.33333333 660 1044 c 128
 702.666666667 1026.66666667 741.333333333 989.333333333 776 932 c 1
 780 932 l 1
 784 990 l 2
 786.666666667 1030 804.666666667 1050 838 1050 c 2
 996 1050 l 2
 1036 1050 1056 1030 1056 990 c 2
 1056 11 l 2
 1056 -152.333333333 1012 -265 924 -327 c 128
 836 -389 708.666666667 -420 542 -420 c 256
 471.333333333 -420 406 -416.333333333 346 -409 c 152
 286 -401.666666667 225.333333333 -383.333333333 164 -354 c 256
 132 -338.666666667 126.666666667 -309.666666667 148 -267 c 2
 184 -195 l 2
 198.666666667 -165.666666667 223 -159 257 -175 c 256
 284.333333333 -187.666666667 318.166666667 -199 358.5 -209 c 128
 398.833333333 -219 450 -224 512 -224 c 256
 597.333333333 -224 662.666666667 -208.166666667 708 -176.5 c 128
 753.333333333 -144.833333333 776 -75.6666666667 776 31 c 2
 776 48 l 2
 776 74.6666666667 777.333333333 101.333333333 780 128 c 1
 776 128 l 1
 741.333333333 70.6666666667 702.666666667 33.3333333333 660 16 c 128
 617.333333333 -1.33333333333 566 -10 506 -10 c 256
 349.333333333 -10 239.166666667 44.1666666667 175.5 152.5 c 128
 111.833333333 260.833333333 80 385 80 525 c 256
376 525 m 256
 376 425 389.833333333 343.5 417.5 280.5 c 128
 445.166666667 217.5 504 186 594 186 c 256
 644 186 686.833333333 214.166666667 722.5 270.5 c 128
 758.166666667 326.833333333 776 400 776 490 c 2
 776 570 l 2
 776 660 758.166666667 733.166666667 722.5 789.5 c 128
 686.833333333 845.833333333 644 874 594 874 c 256
 504 874 445.166666667 842.5 417.5 779.5 c 128
 389.833333333 716.5 376 631.666666667 376 525 c 256
EndSplineSet
EndChar

StartChar: u
Encoding: 117 117 101
Width: 1194
Flags: HW
HStem: -20 196<453.039 689.039> 0 21G<810 1028> 1030 20G<164 384 808 1028>
VStem: 134 280<216.5 1048.81> 778 280<1.46484 118 271.306 1048.81>
LayerCount: 2
Fore
SplineSet
134 436 m 2
 134 990 l 2
 134 1030 154 1050 194 1050 c 2
 354 1050 l 2
 394 1050 414 1030 414 990 c 2
 414 508 l 2
 414 362.666666667 424 271 444 233 c 128
 464 195 506 176 570 176 c 256
 638 176 689.666666667 203.166666667 725 257.5 c 128
 760.333333333 311.833333333 778 424.666666667 778 596 c 2
 778 990 l 2
 778 1030 798 1050 838 1050 c 2
 998 1050 l 2
 1038 1050 1058 1030 1058 990 c 2
 1058 60 l 2
 1058 20 1038 0 998 0 c 2
 840 0 l 2
 800 0 780 20 780 60 c 2
 780 118 l 1
 776 118 l 1
 745.333333333 65.3333333333 706.333333333 29.1666666667 659 9.5 c 128
 611.666666667 -10.1666666667 555.666666667 -20 491 -20 c 256
 389 -20 304 12.6666666667 236 78 c 128
 168 143.333333333 134 262.666666667 134 436 c 2
EndSplineSet
EndChar

StartChar: z
Encoding: 122 122 102
Width: 964
Flags: HW
HStem: 0 200<394 911.766> 850 200<85.1553 541>
DStem2: 93 234 394 200 0.58701 0.809579<149.164 761.682>
LayerCount: 2
Back
SplineSet
372 166 m 2
 920 920 l 1033
46 166 m 2
 594 920 l 1033
EndSplineSet
Fore
SplineSet
112 0 m 2
 72 0 52 16.6666666667 52 50 c 2
 52 126 l 2
 52 160.666666667 65.6666666667 196.666666667 93 234 c 2
 541 850 l 9
 541 854 l 25
 514.333333333 851.333333333 487.666666667 850 461 850 c 2
 136 850 l 2
 96 850 76 866.666666667 76 900 c 2
 76 932 l 2
 76 1010.66666667 96 1050 136 1050 c 2
 828 1050 l 2
 868 1050 888 1033.33333333 888 1000 c 2
 888 930 l 2
 888 897.333333333 873.666666667 861.333333333 845 822 c 2
 394 200 l 9
 394 196 l 17
 429.333333333 198.666666667 456 200 474 200 c 2
 852 200 l 2
 892 200 912 183.333333333 912 150 c 2
 912 50 l 2
 912 16.6666666667 892 0 852 0 c 2
 112 0 l 2
EndSplineSet
EndChar

StartChar: m
Encoding: 109 109 103
Width: 1750
Flags: HW
HStem: 0 21G<166 386 766 986 1366 1586> 874 196<505.561 698.363 1105.38 1297.62> 1030 20G<166 384>
VStem: 136 280<1.18652 769.383 932 1048.54> 736 280<1.18652 768.781> 1336 280<1.18652 839.054>
CounterMasks: 1 1c
LayerCount: 2
Back
SplineSet
187 0 m 2
 157 0 142 15 142 45 c 2
 142 1005 l 2
 142 1035 157 1050 187 1050 c 2
 271 1050 l 2
 301 1050 316 1035 316 1005 c 2
 316 925 l 1
 320 925 l 1
 363.333333333 973 410.333333333 1008.66666667 461 1032 c 128
 511.666666667 1055.33333333 560.333333333 1067 607 1067 c 256
 693 1067 759.166666667 1045.5 805.5 1002.5 c 128
 851.833333333 959.5 881.666666667 916.333333333 895 873 c 1
 899 873 l 1
 935.666666667 927.666666667 982 973.666666667 1038 1011 c 128
 1094 1048.33333333 1153.66666667 1067 1217 1067 c 256
 1323 1067 1403 1032.83333333 1457 964.5 c 128
 1511 896.166666667 1538 802.666666667 1538 684 c 2
 1538 45 l 2
 1538 15 1523 0 1493 0 c 2
 1407 0 l 2
 1377 0 1362 15 1362 45 c 2
 1362 626 l 2
 1362 756.666666667 1345.66666667 841.166666667 1313 879.5 c 128
 1280.33333333 917.833333333 1230 937 1162 937 c 256
 1095.33333333 937 1039.66666667 908.5 995 851.5 c 128
 950.333333333 794.5 928 708.666666667 928 594 c 2
 928 45 l 2
 928 15 913 0 883 0 c 2
 797 0 l 2
 767 0 752 15 752 45 c 2
 752 626 l 2
 752 756.666666667 735.666666667 841.166666667 703 879.5 c 128
 670.333333333 917.833333333 620 937 552 937 c 256
 485.333333333 937 429.666666667 911.166666667 385 859.5 c 128
 340.333333333 807.833333333 318 719.333333333 318 594 c 2
 318 45 l 2
 318 15 303 0 273 0 c 2
 187 0 l 2
EndSplineSet
Fore
SplineSet
196 0 m 2
 156 0 136 20 136 60 c 2
 136 990 l 2
 136 1030 156 1050 196 1050 c 2
 354 1050 l 2
 394 1050 414 1030 414 990 c 2
 414 932 l 1
 418 932 l 1
 437.333333333 974.666666667 470 1008.33333333 516 1033 c 128
 562 1057.66666667 605 1070 645 1070 c 256
 725 1070 787.166666667 1051.33333333 831.5 1014 c 128
 875.833333333 976.666666667 906.333333333 935 923 889 c 1
 927 889 l 1
 985 964.333333333 1037.5 1013.33333333 1084.5 1036 c 128
 1131.5 1058.66666667 1191.66666667 1070 1265 1070 c 256
 1363.66666667 1070 1446.83333333 1037.33333333 1514.5 972 c 128
 1582.16666667 906.666666667 1616 787.333333333 1616 614 c 2
 1616 60 l 2
 1616 20 1596 0 1556 0 c 2
 1396 0 l 2
 1356 0 1336 20 1336 60 c 2
 1336 542 l 2
 1336 687.333333333 1326.16666667 779 1306.5 817 c 128
 1286.83333333 855 1252 874 1202 874 c 256
 1155.33333333 874 1112.66666667 846.666666667 1074 792 c 128
 1035.33333333 737.333333333 1016 624.666666667 1016 454 c 2
 1016 60 l 2
 1016 20 996 0 956 0 c 2
 796 0 l 2
 756 0 736 20 736 60 c 2
 736 542 l 2
 736 687.333333333 726.166666667 779 706.5 817 c 128
 686.833333333 855 652 874 602 874 c 256
 555.333333333 874 512.666666667 846.833333333 474 792.5 c 128
 435.333333333 738.166666667 416 625.333333333 416 454 c 2
 416 60 l 2
 416 20 396 0 356 0 c 2
 196 0 l 2
EndSplineSet
EndChar

StartChar: afii10044
Encoding: 1066 1066 105
Width: 1746
Flags: HW
HStem: 0 244<848 1283.49> 626 244<848 1283.49> 1186 248<36.2156 556>
VStem: 556 292<244 626 870 1186> 1349 312<305.785 564.215>
LayerCount: 2
Fore
SplineSet
109 1186 m 2
 59 1186 34 1207.66666667 34 1251 c 2
 34 1369 l 2
 34 1412.33333333 59 1434 109 1434 c 2
 778 1434 l 2
 824.666666667 1434 848 1409 848 1359 c 2
 848 870 l 1
 1003 870 l 2
 1249.66666667 870 1421 830.833333333 1517 752.5 c 128
 1613 674.166666667 1661 568.333333333 1661 435 c 256
 1661 301.666666667 1613 195.833333333 1517 117.5 c 128
 1421 39.1666666667 1249.66666667 0 1003 0 c 2
 626 0 l 2
 579.333333333 0 556 25 556 75 c 2
 556 1186 l 1
 109 1186 l 2
848 244 m 1
 974 244 l 2
 1114 244 1211.5 255.833333333 1266.5 279.5 c 128
 1321.5 303.166666667 1349 355 1349 435 c 256
 1349 515 1321.5 566.833333333 1266.5 590.5 c 128
 1211.5 614.166666667 1114 626 974 626 c 2
 848 626 l 1
 848 244 l 1
EndSplineSet
EndChar

StartChar: afii10043
Encoding: 1065 1065 106
Width: 2232
Flags: HW
HStem: -370 21G<1952 2142> 0 248<452 924 1216 1688> 1414 20G<195 417 959 1181 1723 1945>
VStem: 160 292<248 1430.91> 924 292<248 1430.91> 1688 292<248 1430.91> 1922 250<-368.616 0>
LayerCount: 2
Fore
SplineSet
230 0 m 2
 183.333333333 0 160 25 160 75 c 2
 160 1359 l 2
 160 1409 183.333333333 1434 230 1434 c 2
 382 1434 l 2
 428.666666667 1434 452 1409 452 1359 c 2
 452 248 l 1
 924 248 l 1
 924 1359 l 2
 924 1409 947.333333333 1434 994 1434 c 2
 1146 1434 l 2
 1192.66666667 1434 1216 1409 1216 1359 c 2
 1216 248 l 1
 1688 248 l 1
 1688 1359 l 2
 1688 1409 1711.33333333 1434 1758 1434 c 2
 1910 1434 l 2
 1956.66666667 1434 1980 1409 1980 1359 c 2
 1980 248 l 17
 2102 248 l 2
 2148.66666667 248 2172 223 2172 173 c 2
 2172 -300 l 2
 2172 -346.666666667 2152 -370 2112 -370 c 2
 1982 -370 l 2
 1942 -370 1922 -346.666666667 1922 -300 c 2
 1922 0 l 25
 230 0 l 2
EndSplineSet
EndChar

StartChar: afii10048
Encoding: 1070 1070 107
Width: 2096
Flags: HW
HStem: -34 236<1133.8 1514.81> 0 21G<195 417> 622 248<452 646.163> 1232 236<1134.19 1514.81> 1414 20G<195 417>
VStem: 160 292<3.09448 622 870 1430.91> 642 308<425.477 622 870 1006.66> 1698 312<424.146 1009.85>
LayerCount: 2
Fore
SplineSet
230 0 m 2
 183.333333333 0 160 25 160 75 c 2
 160 1359 l 2
 160 1409 183.333333333 1434 230 1434 c 2
 382 1434 l 2
 428.666666667 1434 452 1409 452 1359 c 2
 452 870 l 1
 648 870 l 1
 653.333333333 1010 712.333333333 1144.66666667 825 1274 c 128
 937.666666667 1403.33333333 1104 1468 1324 1468 c 256
 1544 1468 1713.33333333 1400.33333333 1832 1265 c 128
 1950.66666667 1129.66666667 2010 947 2010 717 c 256
 2010 487 1950.66666667 304.333333333 1832 169 c 128
 1713.33333333 33.6666666667 1544 -34 1324 -34 c 256
 1104 -34 937.5 30.8333333333 824.5 160.5 c 128
 711.5 290.166666667 650.666666667 444 642 622 c 1
 452 622 l 1
 452 75 l 2
 452 25 428.666666667 0 382 0 c 2
 230 0 l 2
950 717 m 256
 950 550.333333333 979.833333333 422.833333333 1039.5 334.5 c 128
 1099.16666667 246.166666667 1194 202 1324 202 c 256
 1454 202 1548.83333333 246.166666667 1608.5 334.5 c 128
 1668.16666667 422.833333333 1698 550.333333333 1698 717 c 256
 1698 883.666666667 1668.16666667 1011.16666667 1608.5 1099.5 c 128
 1548.83333333 1187.83333333 1454 1232 1324 1232 c 256
 1194 1232 1099.16666667 1187.83333333 1039.5 1099.5 c 128
 979.833333333 1011.16666667 950 883.666666667 950 717 c 256
EndSplineSet
EndChar

StartChar: M
Encoding: 77 77 108
Width: 1828
Flags: HW
HStem: 0 21G<195 417 798.5 1029.5 1411 1633> 1414 20G<195 549 1279 1633>
VStem: 160 292<3.09448 1021> 1376 292<3.09448 1021>
DStem2: 603 1354 454 1021 0.293871 -0.955845<274.51 1099.3> 954 477 1085 81 0.293871 0.955845<-181.389 643.406>
LayerCount: 2
Back
SplineSet
378.75 1069.62 m 2
 917.25 -678.625 l 1026
790.75 -678.625 m 2
 1329.25 1069.62 l 1026
468.5 1598.25 m 2
 827.5 432.75 l 1026
880.5 432.75 m 2
 1239.5 1598.25 l 1026
EndSplineSet
Fore
SplineSet
230 0 m 2
 183.333333333 0 160 25 160 75 c 2
 160 1359 l 2
 160 1409 183.333333333 1434 230 1434 c 2
 520 1434 l 2
 558.666666667 1434 586.333333333 1407.33333333 603 1354 c 2
 874 477 l 2
 886 439 894.333333333 407.833333333 899 383.5 c 128
 903.666666667 359.166666667 907.666666667 330.333333333 911 297 c 1
 917 297 l 1
 920.333333333 330.333333333 924.333333333 359.166666667 929 383.5 c 128
 933.666666667 407.833333333 942 439 954 477 c 2
 1225 1354 l 2
 1241.66666667 1407.33333333 1269.33333333 1434 1308 1434 c 2
 1598 1434 l 2
 1644.66666667 1434 1668 1409 1668 1359 c 2
 1668 75 l 2
 1668 25 1644.66666667 0 1598 0 c 2
 1446 0 l 2
 1399.33333333 0 1376 25 1376 75 c 2
 1376 901 l 2
 1376 941 1377.66666667 981 1381 1021 c 9
 1374 1021 l 25
 1085 81 l 2
 1068.33333333 27 1039.66666667 0 999 0 c 2
 829 0 l 2
 788.333333333 0 759.666666667 27 743 81 c 2
 454 1021 l 25
 447 1021 l 17
 450.333333333 981 452 941 452 901 c 2
 452 75 l 2
 452 25 428.666666667 0 382 0 c 2
 230 0 l 2
EndSplineSet
EndChar

StartChar: Z
Encoding: 90 90 109
Width: 1252
Flags: HW
HStem: 0 248<438 1188.78> 1186 248<103.216 762>
DStem2: 112 286 438 250 0.58726 0.809398<162.309 1108.56>
LayerCount: 2
Back
SplineSet
298.5 61.5 m 2
 1273.5 1408.5 l 1033
108 286 m 2
 758 1184 l 1033
120 0 m 2
 83.3333333333 0 65 15 65 45 c 2
 65 93 l 2
 65 125 75 154.666666667 95 182 c 2
 881 1268 l 9
 881 1272 l 25
 854.333333333 1270.66666667 827.666666667 1270 801 1270 c 2
 152 1270 l 2
 115.333333333 1270 97 1285 97 1315 c 2
 97 1389 l 2
 97 1419 115.333333333 1434 152 1434 c 2
 1074 1434 l 2
 1110.66666667 1434 1129 1419 1129 1389 c 2
 1129 1358 l 2
 1129 1336 1122.33333333 1315.66666667 1109 1297 c 2
 313 166 l 9
 313 162 l 17
 331 163.333333333 357.666666667 164 393 164 c 2
 1096 164 l 2
 1132.66666667 164 1151 149 1151 119 c 2
 1151 45 l 2
 1151 15 1132.66666667 0 1096 0 c 2
 120 0 l 2
EndSplineSet
Fore
SplineSet
136 0 m 2
 86 0 61 21.6666666667 61 65 c 2
 61 147 l 2
 61 193 78 239.333333333 112 286 c 2
 762 1184 l 9
 762 1191 l 25
 722 1187.66666667 682 1186 642 1186 c 2
 176 1186 l 2
 126 1186 101 1207.66666667 101 1251 c 2
 101 1369 l 2
 101 1412.33333333 126 1434 176 1434 c 2
 1088 1434 l 2
 1138 1434 1163 1412.33333333 1163 1369 c 2
 1163 1302 l 2
 1163 1266.66666667 1151.33333333 1233 1128 1201 c 2
 438 250 l 9
 438 243 l 17
 478 246.333333333 518 248 558 248 c 2
 1116 248 l 2
 1166 248 1191 226.333333333 1191 183 c 2
 1191 65 l 2
 1191 21.6666666667 1166 0 1116 0 c 2
 136 0 l 2
EndSplineSet
EndChar

StartChar: afii10026
Encoding: 1048 1048 110
Width: 1492
Flags: HW
HStem: 0 21G<195 464 1075 1297> 1414 20G<195 417 1028 1297>
VStem: 160 292<450 1430.91> 1040 292<3.09448 984>
DStem2: 454 450 548 70 0.472489 0.881337<0 746.567>
LayerCount: 2
Back
SplineSet
230 0 m 2
 183.333333333 0 160 25 160 75 c 2
 160 1359 l 2
 160 1409 183.333333333 1434 230 1434 c 2
 382 1434 l 2
 428.666666667 1434 452 1409 452 1359 c 2
 452 540 l 2
 452 500 450.333333333 460 447 420 c 25
 454 420 l 17
 954 1384 l 2
 971.289333333 1417.33333333 1011.28933333 1434 1074 1434 c 2
 1262 1434 l 2
 1308.66666667 1434 1332 1409 1332 1359 c 2
 1332 75 l 2
 1332 25 1308.66666667 0 1262 0 c 2
 1110 0 l 2
 1063.33333333 0 1040 25 1040 75 c 2
 1040 894 l 2
 1040 934 1041.66666667 974 1045 1014 c 9
 1038 1014 l 17
 538 50 l 2
 520.710666667 16.6666666667 480.710666667 0 418 0 c 2
 230 0 l 2
EndSplineSet
Fore
SplineSet
230 0 m 2
 183.333333333 0 160 25 160 75 c 2
 160 1359 l 2
 160 1409 183.333333333 1434 230 1434 c 2
 382 1434 l 2
 428.666666667 1434 452 1409 452 1359 c 2
 452 570 l 2
 452 530 450.333333333 490 447 450 c 25
 454 450 l 17
 944 1364 l 2
 969.333333333 1410.66666667 1012.66666667 1434 1074 1434 c 2
 1262 1434 l 2
 1308.66666667 1434 1332 1409 1332 1359 c 2
 1332 75 l 2
 1332 25 1308.66666667 0 1262 0 c 2
 1110 0 l 2
 1063.33333333 0 1040 25 1040 75 c 2
 1040 864 l 2
 1040 904 1041.66666667 944 1045 984 c 9
 1038 984 l 17
 548 70 l 2
 522.666666667 23.3333333333 479.333333333 0 418 0 c 2
 230 0 l 2
EndSplineSet
EndChar

StartChar: afii10049
Encoding: 1071 1071 111
Width: 1426
Flags: HW
HStem: 0 21G<103 366 1009 1231> 573 244<766.508 974> 1190 244<507.885 974>
VStem: 133 296<886.582 1122.17> 974 292<3.09448 573 817 1190>
DStem2: 113 86 430 59 0.555899 0.83125<53.0598 663.407>
LayerCount: 2
Fore
SplineSet
151 0 m 6
 87 0 74.3333333333 28.6666666667 113 86 c 2
 327 406 l 2
 346.333333333 434.666666667 378.166666667 473.833333333 422.5 523.5 c 128
 466.833333333 573.166666667 510.333333333 610.666666667 553 636 c 1
 553 638 l 1
 419 644.666666667 315.5 684.5 242.5 757.5 c 128
 169.5 830.5 133 915 133 1011 c 256
 133 1149 179 1254 271 1326 c 128
 363 1398 516.666666667 1434 732 1434 c 2
 1196 1434 l 2
 1242.66666667 1434 1266 1409 1266 1359 c 2
 1266 75 l 2
 1266 25 1242.66666667 0 1196 0 c 2
 1044 0 l 2
 997.333333333 0 974 25 974 75 c 2
 974 573 l 1
 913 573 l 2
 848.333333333 573 796.333333333 556.333333333 757 523 c 128
 717.666666667 489.666666667 678.333333333 442.666666667 639 382 c 2
 430 59 l 2
 404.666666667 19.6666666667 374.666666667 0 340 0 c 2
 151 0 l 6
429 1013 m 256
 429 925.666666667 464.666666667 871.166666667 536 849.5 c 128
 607.333333333 827.833333333 690 817 784 817 c 2
 974 817 l 1
 974 1190 l 1
 746 1190 l 2
 645.333333333 1190 567.333333333 1176.66666667 512 1150 c 128
 456.666666667 1123.33333333 429 1077.66666667 429 1013 c 256
EndSplineSet
EndChar

StartChar: S
Encoding: 83 83 112
Width: 1308
Flags: HW
LayerCount: 2
Fore
SplineSet
145 107 m 256
 103.666666667 138.333333333 93.6666666667 170 115 202 c 258
 192 318 l 258
 217.333333333 356 254.333333333 358 303 324 c 256
 340.333333333 298 389.166666667 271.166666667 449.5 243.5 c 128
 509.833333333 215.833333333 573.333333333 202 640 202 c 256
 686.666666667 202 731.666666667 207.333333333 775 218 c 128
 818.333333333 228.666666667 851.333333333 249.333333333 874 280 c 128
 896.666666667 310.666666667 908 347 908 389 c 256
 908 419 903 445.333333333 893 468 c 128
 883 490.666666667 866.666666667 509.333333333 844 524 c 128
 821.333333333 538.666666667 798 551 774 561 c 256
 732 578.333333333 679.166666667 595.5 615.5 612.5 c 128
 551.833333333 629.5 489 650 427 674 c 256
 371.666666667 695.333333333 321 724.666666667 275 762 c 128
 229 799.333333333 193.333333333 841.333333333 168 888 c 128
 142.666666667 934.666666667 130 997 130 1075 c 256
 130 1167.66666667 160 1247 220 1313 c 128
 280 1379 349 1421.33333333 427 1440 c 128
 505 1458.66666667 583.666666667 1468 663 1468 c 256
 741.666666667 1468 822.833333333 1456 906.5 1432 c 152
 990.166666667 1408 1053.33333333 1378 1096 1342 c 256
 1138 1306.66666667 1148.33333333 1274.66666667 1127 1246 c 258
 1046 1137 l 258
 1018.66666667 1099.66666667 982 1096.66666667 936 1128 c 256
 906.666666667 1148 866.5 1170.33333333 815.5 1195 c 128
 764.5 1219.66666667 711.333333333 1232 656 1232 c 256
 616.666666667 1232 580.5 1228.66666667 547.5 1222 c 128
 514.5 1215.33333333 485.333333333 1199.33333333 460 1174 c 128
 434.666666667 1148.66666667 422 1117.33333333 422 1080 c 256
 422 1044 431.333333333 1014.83333333 450 992.5 c 128
 468.666666667 970.166666667 489.333333333 953.5 512 942.5 c 128
 534.666666667 931.5 557.666666667 922.333333333 581 915 c 256
 653 891.666666667 717.333333333 871.166666667 774 853.5 c 128
 830.666666667 835.833333333 883 816.333333333 931 795 c 256
 997.666666667 765 1048.66666667 735 1084 705 c 128
 1119.33333333 675 1148.5 634 1171.5 582 c 128
 1194.5 530 1206 468 1206 396 c 256
 1206 289.333333333 1172 201.166666667 1104 131.5 c 128
 1036 61.8333333333 960.5 16.8333333333 877.5 -3.5 c 128
 794.5 -23.8333333333 713.666666667 -34 635 -34 c 256
 519 -34 424.666666667 -22.8333333333 352 -0.5 c 152
 279.333333333 21.8333333333 210.333333333 57.6666666667 145 107 c 256
EndSplineSet
EndChar

StartChar: afii10025
Encoding: 1047 1047 113
Width: 1354
Flags: HW
HStem: -34 236<442.665 851.346> 636 236<427.216 836.458> 1232 236<430.713 843.609>
VStem: 903 296<937.666 1176.58> 938 312<278.571 561.268>
LayerCount: 2
Fore
SplineSet
124 150 m 256
 90.6666666667 188 87.6666666667 221 115 249 c 258
 211 348 l 258
 239 377.333333333 275.666666667 371.666666667 321 331 c 256
 353 302.333333333 394 273.666666667 444 245 c 128
 494 216.333333333 560 202 642 202 c 256
 720 202 788.833333333 216.333333333 848.5 245 c 128
 908.166666667 273.666666667 938 330 938 414 c 256
 938 498 913.166666667 556 863.5 588 c 128
 813.833333333 620 748 636 666 636 c 2
 500 636 l 2
 450 636 425 657 425 699 c 2
 425 807 l 2
 425 850.333333333 450 872 500 872 c 2
 624 872 l 2
 736.666666667 872 811.333333333 889.666666667 848 925 c 128
 884.666666667 960.333333333 903 1006 903 1062 c 256
 903 1120 882.166666667 1162.83333333 840.5 1190.5 c 128
 798.833333333 1218.16666667 732.666666667 1232 642 1232 c 256
 572 1232 510.833333333 1221.16666667 458.5 1199.5 c 128
 406.166666667 1177.83333333 367 1155 341 1131 c 256
 297.666666667 1091.66666667 260.666666667 1088.66666667 230 1122 c 258
 147 1213 l 258
 115.666666667 1247 120 1280.33333333 160 1313 c 256
 231.333333333 1371.66666667 306.5 1412.16666667 385.5 1434.5 c 128
 464.5 1456.83333333 553.333333333 1468 652 1468 c 256
 832 1468 968.166666667 1433.33333333 1060.5 1364 c 128
 1152.83333333 1294.66666667 1199 1204 1199 1092 c 256
 1199 996 1173.16666667 922.5 1121.5 871.5 c 128
 1069.83333333 820.5 1006.33333333 785.666666667 931 767 c 1
 931 763 l 1
 1014.33333333 754.333333333 1088.33333333 717 1153 651 c 128
 1217.66666667 585 1250 500.333333333 1250 397 c 256
 1250 262.333333333 1196.16666667 156.833333333 1088.5 80.5 c 128
 980.833333333 4.16666666667 830.333333333 -34 637 -34 c 256
 499.666666667 -34 392.5 -17.8333333333 315.5 14.5 c 128
 238.5 46.8333333333 174.666666667 92 124 150 c 256
EndSplineSet
EndChar

StartChar: afii10021
Encoding: 1044 1044 114
Width: 1550
Flags: HW
HStem: -370 21G<90 280 1270 1460> 0 248<489 1008> 1186 248<670 1008>
VStem: 60 250<-368.616 0> 420 250<566.845 1186> 1008 292<248 1186> 1240 250<-368.616 0>
LayerCount: 2
Back
SplineSet
22 -10 m 260
 -6 -0.666666666667 -16 22 -8 58 c 6
 18 172 l 6
 26 207.333333333 47 220 81 210 c 260
 99.6666666667 204.666666667 119 202 139 202 c 4
 241 202 311.333333333 274.833333333 350 420.5 c 132
 388.666666667 566.166666667 408 789.333333333 408 1090 c 6
 408 1359 l 6
 408 1409 431.333333333 1434 478 1434 c 6
 1218 1434 l 6
 1264.66666667 1434 1288 1409 1288 1359 c 6
 1288 75 l 6
 1288 25 1264.66666667 0 1218 0 c 6
 1066 0 l 6
 1019.33333333 0 996 25 996 75 c 6
 996 1186 l 5
 658 1186 l 5
 658 1034 l 6
 658 637.333333333 619 360.166666667 541 202.5 c 132
 463 44.8333333333 336.666666667 -34 162 -34 c 4
 118 -34 71.3333333333 -26 22 -10 c 260
EndSplineSet
Fore
SplineSet
120 -370 m 2
 80 -370 60 -346.666666667 60 -300 c 2
 60 173 l 2
 60 223 90 248 150 248 c 2
 193 248 l 1
 280.333333333 338.666666667 340 439.333333333 372 550 c 128
 404 660.666666667 420 844 420 1100 c 2
 420 1359 l 2
 420 1409 443.333333333 1434 490 1434 c 2
 1230 1434 l 2
 1276.66666667 1434 1300 1409 1300 1359 c 2
 1300 248 l 1
 1400 248 l 2
 1460 248 1490 223 1490 173 c 2
 1490 -300 l 2
 1490 -346.666666667 1470 -370 1430 -370 c 2
 1300 -370 l 2
 1260 -370 1240 -346.666666667 1240 -300 c 2
 1240 0 l 1
 310 0 l 1
 310 -300 l 2
 310 -346.666666667 290 -370 250 -370 c 2
 120 -370 l 2
489 248 m 1
 1008 248 l 1
 1008 1186 l 1
 670 1186 l 1
 670 1044 l 2
 670 806.666666667 653 624 619 496 c 128
 585 368 541.666666667 285.333333333 489 248 c 1
EndSplineSet
EndChar

StartChar: afii10047
Encoding: 1069 1069 115
Width: 1418
Flags: HMW
HStem: -34 236<442.574 850.778> 622 248<406.216 1012> 1232 236<439.736 854.818>
VStem: 1014 318<399.593 622>
LayerCount: 2
Back
SplineSet
1332 717 m 256
 1332 465 1272.83333333 276.833333333 1154.5 152.5 c 128
 1036.16666667 28.1666666667 868.666666667 -34 652 -34 c 256
 517.333333333 -34 406.666666667 -16.6666666667 320 18 c 152
 233.333333333 52.6666666667 166.333333333 100.333333333 119 161 c 256
 87 201.666666667 85.6666666667 235 115 261 c 258
 222 357 l 258
 255.333333333 386.333333333 291.666666667 378.666666667 331 334 c 256
 355 306 394 277 448 247 c 152
 502 217 566.666666667 202 642 202 c 256
 782 202 880 242.833333333 936 324.5 c 128
 992 406.166666667 1020 537 1020 717 c 256
 1020 899 992 1030.33333333 936 1111 c 128
 880 1191.66666667 782 1232 642 1232 c 256
 578.666666667 1232 523 1220.5 475 1197.5 c 128
 427 1174.5 392 1149.33333333 370 1122 c 256
 334 1080 297.333333333 1073.66666667 260 1103 c 258
 154 1187 l 258
 124.666666667 1209.66666667 126.333333333 1243.33333333 159 1288 c 256
 207.666666667 1354.66666667 270.333333333 1401.33333333 347 1428 c 128
 423.666666667 1454.66666667 525.333333333 1468 652 1468 c 256
 872 1468 1040.33333333 1405.83333333 1157 1281.5 c 128
 1273.66666667 1157.16666667 1332 969 1332 717 c 256
1121 622 m 257
 479 622 l 2
 429 622 404 643.666666667 404 687 c 2
 404 805 l 2
 404 848.333333333 429 870 479 870 c 2
 1117 870 l 257
 1121 622 l 257
1320 717 m 260
 1320 487 1260.83333333 304.333333333 1142.5 169 c 132
 1024.16666667 33.6666666667 856.666666667 -34 640 -34 c 260
 505.333333333 -34 391 -10.3333333333 297 37 c 156
 203 84.3333333333 136.666666667 141.333333333 98 208 c 260
 72 252.666666667 75.3333333333 286 108 308 c 262
 228 388 l 262
 264.666666667 412.666666667 299.333333333 400 332 350 c 260
 352 319.333333333 387.833333333 287 439.5 253 c 156
 491.166666667 219 554.666666667 202 630 202 c 260
 770 202 868 246.166666667 924 334.5 c 132
 980 422.833333333 1008 550.333333333 1008 717 c 260
 1008 883.666666667 980 1011.16666667 924 1099.5 c 132
 868 1187.83333333 770 1232 630 1232 c 260
 566.666666667 1232 511.5 1219.66666667 464.5 1195 c 132
 417.5 1170.33333333 385.333333333 1142.66666667 368 1112 c 260
 340.666666667 1064 306 1051.33333333 264 1074 c 262
 144 1138 l 262
 112 1155.33333333 108 1188.66666667 132 1238 c 260
 168 1312.66666667 230 1369.66666667 318 1409 c 132
 406 1448.33333333 513.333333333 1468 640 1468 c 260
 860 1468 1028.33333333 1400.33333333 1145 1265 c 132
 1261.66666667 1129.66666667 1320 947 1320 717 c 260
125 172 m 256
 95.6666666667 206 91.6666666667 231.333333333 113 248 c 258
 190 310 l 258
 212 328 237.333333333 320 266 286 c 256
 308 236.666666667 357 197.666666667 413 169 c 128
 469 140.333333333 542 126 632 126 c 256
 795.333333333 126 914.166666667 170.166666667 988.5 258.5 c 128
 1062.83333333 346.833333333 1103 483.333333333 1109 668 c 257
 437 668 l 2
 400.333333333 668 382 683 382 713 c 2
 382 787 l 2
 382 817 400.333333333 832 437 832 c 2
 1105 832 l 257
 1093 978 1050 1093.83333333 976 1179.5 c 128
 902 1265.16666667 783.333333333 1308 620 1308 c 256
 547.333333333 1308 481.333333333 1294.5 422 1267.5 c 128
 362.666666667 1240.5 319 1208 291 1170 c 256
 266.333333333 1136 243.333333333 1128.33333333 222 1147 c 258
 153 1206 l 258
 130.333333333 1226 134.333333333 1254.33333333 165 1291 c 256
 207 1340.33333333 267.166666667 1381.5 345.5 1414.5 c 128
 423.833333333 1447.5 522.666666667 1464 642 1464 c 256
 858.666666667 1464 1024.83333333 1403.5 1140.5 1282.5 c 128
 1256.16666667 1161.5 1314 973.666666667 1314 719 c 256
 1314 465.666666667 1256.16666667 277.5 1140.5 154.5 c 128
 1024.83333333 31.5 858.666666667 -30 642 -30 c 256
 513.333333333 -30 407.166666667 -10.5 323.5 28.5 c 128
 239.833333333 67.5 173.666666667 115.333333333 125 172 c 256
EndSplineSet
Fore
SplineSet
119 161 m 256
 87 201.666666667 85.6666666667 235 115 261 c 258
 222 357 l 258
 255.333333333 386.333333333 291.666666667 378.666666667 331 334 c 256
 355 306 391.833333333 277 441.5 247 c 128
 491.166666667 217 558 202 642 202 c 256
 782 202 876.833333333 239 926.5 313 c 128
 976.166666667 387 1005.33333333 490 1014 622 c 1
 479 622 l 2
 429 622 404 643.666666667 404 687 c 2
 404 805 l 2
 404 848.333333333 429 870 479 870 c 2
 1012 870 l 1
 1000 974.666666667 970.333333333 1061.16666667 923 1129.5 c 128
 875.666666667 1197.83333333 782 1232 642 1232 c 256
 574 1232 514 1220.83333333 462 1198.5 c 128
 410 1176.16666667 372 1152 348 1126 c 256
 308 1082.66666667 271.333333333 1076.33333333 238 1107 c 258
 147 1190 l 258
 114.333333333 1219.33333333 116 1253 152 1291 c 256
 216 1358.33333333 285.333333333 1404.66666667 360 1430 c 128
 434.666666667 1455.33333333 532 1468 652 1468 c 256
 872 1468 1040.33333333 1405.83333333 1157 1281.5 c 128
 1273.66666667 1157.16666667 1332 969 1332 717 c 256
 1332 465 1272.83333333 276.833333333 1154.5 152.5 c 128
 1036.16666667 28.1666666667 868.666666667 -34 652 -34 c 256
 502.666666667 -34 388.333333333 -16.6666666667 309 18 c 128
 229.666666667 52.6666666667 166.333333333 100.333333333 119 161 c 256
EndSplineSet
EndChar

StartChar: afii10037
Encoding: 1059 1059 120
Width: 1382
Flags: HW
HStem: -34 236<236.233 561.099> 1414 20G<63 315 1079.5 1326>
DStem2: 676 754 62 1348 0.467134 -0.884187<-792.472 224.79> 603 324 1332 1348 0.379377 0.925242<-135.728 0 295.132 1217.14>
LayerCount: 2
Back
SplineSet
228 15 m 256
 204.666666667 28.3333333333 197 45.3333333333 205 66 c 2
 238 150 l 2
 248.666666667 176.666666667 267 181.333333333 293 164 c 256
 329.666666667 139.333333333 369.666666667 127 413 127 c 256
 467 127 508.166666667 135.833333333 536.5 153.5 c 128
 564.833333333 171.166666667 588 194.666666667 606 224 c 2
 636 272 l 9
 66 1368 l 18
 43.3333333333 1412 52.3333333333 1434 93 1434 c 2
 195 1434 l 2
 226.333333333 1434 250.333333333 1417.66666667 267 1385 c 10
 612 716 l 2
 632.666666667 675.333333333 653.833333333 631.333333333 675.5 584 c 128
 697.166666667 536.666666667 715.333333333 489 730 441 c 1
 734 441 l 1
 744.666666667 493 758.166666667 542.666666667 774.5 590 c 128
 790.833333333 637.333333333 808.666666667 684.666666667 828 732 c 2
 1091 1385 l 18
 1104.33333333 1417.66666667 1128.33333333 1434 1163 1434 c 2
 1265 1434 l 2
 1301.66666667 1434 1310.66666667 1412 1292 1368 c 10
 855 331 l 2
 804.333333333 210.333333333 751 120 695 60 c 128
 639 0 552.666666667 -30 436 -30 c 256
 349.333333333 -30 280 -15 228 15 c 256
EndSplineSet
Fore
SplineSet
62 1348 m 22
 32 1405.33333333 47.6666666667 1434 109 1434 c 2
 286 1434 l 2
 324.666666667 1434 355.333333333 1411 378 1365 c 10
 676 754 l 2
 695.333333333 714.666666667 710 675.666666667 720 637 c 128
 730 598.333333333 737.666666667 560.666666667 743 524 c 1
 747 524 l 1
 753 562.666666667 760 601.166666667 768 639.5 c 128
 776 677.833333333 786.666666667 716 800 754 c 2
 1021 1365 l 18
 1037.66666667 1411 1068.33333333 1434 1113 1434 c 2
 1285 1434 l 2
 1339.66666667 1434 1355.33333333 1405.33333333 1332 1348 c 10
 915 331 l 2
 854.333333333 183 791.666666667 85.1666666667 727 37.5 c 128
 662.333333333 -10.1666666667 570.666666667 -34 452 -34 c 256
 366 -34 297 -22.6666666667 245 0 c 256
 204.333333333 18 189 44 199 78 c 2
 236 207 l 2
 244.666666667 237 269.333333333 243.666666667 310 227 c 256
 351.333333333 210.333333333 387.666666667 202 419 202 c 256
 457.666666667 202 491.666666667 207.333333333 521 218 c 128
 550.333333333 228.666666667 573 253 589 291 c 2
 603 324 l 9
 62 1348 l 22
EndSplineSet
EndChar

StartChar: cyrBreve
Encoding: 63185 63185 122
Width: 1492
Flags: HMW
HStem: 1540 158<611.677 880.323> 1857 20G<367 539 953 1125>
VStem: 338 235<1731 1875.34> 919 235<1731 1875.34>
LayerCount: 2
Back
SplineSet
360 1819 m 2
 357.333333333 1851 373.333333333 1867 408 1867 c 2
 489 1867 l 2
 517 1867 533.333333333 1851 538 1819 c 2
 543 1783 l 2
 547 1751.66666667 566.833333333 1727.33333333 602.5 1710 c 128
 638.166666667 1692.66666667 686 1684 746 1684 c 256
 806 1684 853.833333333 1692.66666667 889.5 1710 c 128
 925.166666667 1727.33333333 945 1751.66666667 949 1783 c 2
 954 1819 l 2
 958.666666667 1851 975 1867 1003 1867 c 2
 1084 1867 l 2
 1118.66666667 1867 1134.66666667 1851 1132 1819 c 2
 1126 1749 l 2
 1120.66666667 1689.66666667 1080.16666667 1641.33333333 1004.5 1604 c 128
 928.833333333 1566.66666667 842.666666667 1548 746 1548 c 256
 649.333333333 1548 563.166666667 1566.66666667 487.5 1604 c 128
 411.833333333 1641.33333333 371.333333333 1689.66666667 366 1749 c 2
 360 1819 l 2
EndSplineSet
Fore
SplineSet
338 1809 m 2
 334.666666667 1854.33333333 355.666666667 1877 401 1877 c 2
 509 1877 l 2
 549 1877 570.333333333 1861 573 1829 c 2
 576 1796 l 2
 578 1773.33333333 592 1751.33333333 618 1730 c 128
 644 1708.66666667 686.666666667 1698 746 1698 c 256
 805.333333333 1698 848 1708.66666667 874 1730 c 128
 900 1751.33333333 914 1773.33333333 916 1796 c 2
 919 1829 l 2
 921.666666667 1861 943 1877 983 1877 c 2
 1091 1877 l 2
 1136.33333333 1877 1157.33333333 1854.33333333 1154 1809 c 2
 1150 1756 l 2
 1144 1676 1100.16666667 1620 1018.5 1588 c 128
 936.833333333 1556 846 1540 746 1540 c 256
 646 1540 555.166666667 1556 473.5 1588 c 128
 391.833333333 1620 348 1676 342 1756 c 2
 338 1809 l 2
EndSplineSet
EndChar

StartChar: dieresis
Encoding: 168 168 123
Width: 614
Flags: HW
HStem: 1206 236<-22.8135 210.813 403.187 636.813>
VStem: -24 236<1207.19 1440.81> 402 236<1207.19 1440.81>
LayerCount: 2
Back
SplineSet
61 1240 m 2
 31 1240 16 1255 16 1285 c 2
 16 1371 l 2
 16 1401 31 1416 61 1416 c 2
 147 1416 l 2
 177 1416 192 1401 192 1371 c 2
 192 1285 l 2
 192 1255 177 1240 147 1240 c 2
 61 1240 l 2
467 1240 m 2
 437 1240 422 1255 422 1285 c 2
 422 1371 l 2
 422 1401 437 1416 467 1416 c 2
 553 1416 l 2
 583 1416 598 1401 598 1371 c 2
 598 1285 l 2
 598 1255 583 1240 553 1240 c 2
 467 1240 l 2
EndSplineSet
Fore
SplineSet
36 1206 m 2
 -4 1206 -24 1226 -24 1266 c 2
 -24 1382 l 2
 -24 1422 -4 1442 36 1442 c 2
 152 1442 l 2
 192 1442 212 1422 212 1382 c 2
 212 1266 l 2
 212 1226 192 1206 152 1206 c 2
 36 1206 l 2
462 1206 m 2
 422 1206 402 1226 402 1266 c 2
 402 1382 l 2
 402 1422 422 1442 462 1442 c 2
 578 1442 l 2
 618 1442 638 1422 638 1382 c 2
 638 1266 l 2
 638 1226 618 1206 578 1206 c 2
 462 1206 l 2
EndSplineSet
EndChar

StartChar: dieresis.cap
Encoding: 63179 63179 125
Width: 820
Flags: HW
HStem: 1530 256<13.8452 298.155 521.845 806.155>
VStem: 10 292<1533.09 1782.91> 518 292<1533.09 1782.91>
LayerCount: 2
Back
SplineSet
125 1550 m 2
 95 1550 80 1565 80 1595 c 2
 80 1687 l 2
 80 1717 95 1732 125 1732 c 2
 217 1732 l 2
 247 1732 262 1717 262 1687 c 2
 262 1595 l 2
 262 1565 247 1550 217 1550 c 2
 125 1550 l 2
603 1550 m 2
 573 1550 558 1565 558 1595 c 2
 558 1687 l 2
 558 1717 573 1732 603 1732 c 2
 695 1732 l 2
 725 1732 740 1717 740 1687 c 2
 740 1595 l 2
 740 1565 725 1550 695 1550 c 2
 603 1550 l 2
EndSplineSet
Fore
SplineSet
80 1530 m 2
 33.3333333333 1530 10 1555 10 1605 c 2
 10 1711 l 2
 10 1761 33.3333333333 1786 80 1786 c 2
 232 1786 l 2
 278.666666667 1786 302 1761 302 1711 c 2
 302 1605 l 2
 302 1555 278.666666667 1530 232 1530 c 2
 80 1530 l 2
588 1530 m 2
 541.333333333 1530 518 1555 518 1605 c 2
 518 1711 l 2
 518 1761 541.333333333 1786 588 1786 c 2
 740 1786 l 2
 786.666666667 1786 810 1761 810 1711 c 2
 810 1605 l 2
 810 1555 786.666666667 1530 740 1530 c 2
 588 1530 l 2
EndSplineSet
EndChar

StartChar: r
Encoding: 114 114 129
Width: 786
Flags: HW
HStem: 0 21G<166 386> 874 196<532.74 748.206> 1030 20G<166 384>
VStem: 136 280<1.18652 720.499 908 1048.54>
LayerCount: 2
Fore
SplineSet
196 0 m 2
 156 0 136 20 136 60 c 2
 136 990 l 2
 136 1030 156 1050 196 1050 c 2
 354 1050 l 2
 394 1050 414 1030 414 990 c 2
 414 908 l 1
 418 908 l 1
 435.333333333 950.666666667 464.333333333 988.333333333 505 1021 c 128
 545.666666667 1053.66666667 593.666666667 1070 649 1070 c 256
 687 1070 718.333333333 1065.33333333 743 1056 c 256
 766.333333333 1047.33333333 775.333333333 1031.33333333 770 1008 c 2
 742 889 l 2
 736 862.333333333 718 854.333333333 688 865 c 256
 670.666666667 871 654 874 638 874 c 256
 574 874 521 835.666666667 479 759 c 128
 437 682.333333333 416 570.666666667 416 424 c 2
 416 60 l 2
 416 20 396 0 356 0 c 2
 196 0 l 2
EndSplineSet
EndChar

StartChar: F
Encoding: 70 70 130
Width: 1176
Flags: HW
HStem: 0 21G<195 417> 590 248<452 1011.78> 1186 248<452 1093.78>
VStem: 160 292<3.09448 590 838 1186>
LayerCount: 2
Fore
SplineSet
230 0 m 2
 183.333333333 0 160 25 160 75 c 2
 160 1359 l 2
 160 1409 183.333333333 1434 230 1434 c 2
 1021 1434 l 2
 1071 1434 1096 1412.33333333 1096 1369 c 2
 1096 1251 l 2
 1096 1207.66666667 1071 1186 1021 1186 c 2
 452 1186 l 9
 452 838 l 1
 939 838 l 2
 989 838 1014 816.333333333 1014 773 c 2
 1014 655 l 2
 1014 611.666666667 989 590 939 590 c 2
 452 590 l 1
 452 75 l 2
 452 25 428.666666667 0 382 0 c 2
 230 0 l 2
EndSplineSet
EndChar

StartChar: w
Encoding: 119 119 133
Width: 1604
Flags: HW
HStem: 0 21G<348 584.5 1019.5 1256> 1030 20G<47.5 268 687 917 1336 1556.5>
DStem2: 488 316.5 629 67 0.235415 0.971895<-77.9527 552.884> 953 999 811.5 742 0.232295 -0.972645<149.413 779.671>
LayerCount: 2
Back
SplineSet
45 1001 m 2
 36.3333333333 1033.66666667 45.3333333333 1050 72 1050 c 2
 177 1050 l 2
 201 1050 216 1037 222 1011 c 2
 369 351 l 2
 373.666666667 331.666666667 380.833333333 301.333333333 390.5 260 c 128
 400.166666667 218.666666667 407 188.333333333 411 169 c 1
 415 169 l 1
 418.333333333 187.666666667 424.166666667 215.666666667 432.5 253 c 152
 440.833333333 290.333333333 448.666666667 323 456 351 c 2
 632 1011 l 2
 638.666666667 1037 653.666666667 1050 677 1050 c 2
 767 1050 l 2
 790.333333333 1050 805.333333333 1037 812 1011 c 2
 988 351 l 2
 995.333333333 323 1003.16666667 290.333333333 1011.5 253 c 152
 1019.83333333 215.666666667 1025.66666667 187.666666667 1029 169 c 1
 1033 169 l 1
 1037 188.333333333 1043.83333333 218.666666667 1053.5 260 c 128
 1063.16666667 301.333333333 1070.33333333 331.666666667 1075 351 c 2
 1222 1011 l 2
 1228 1037 1243 1050 1267 1050 c 2
 1372 1050 l 2
 1398.66666667 1050 1407.66666667 1033.66666667 1399 1001 c 2
 1151 61 l 2
 1140.33333333 20.3333333333 1122.33333333 0 1097 0 c 2
 977 0 l 2
 951.666666667 0 933.666666667 20.3333333333 923 61 c 2
 753 722 l 2
 741 768.666666667 733.5 801.333333333 730.5 820 c 128
 727.5 838.666666667 725 856.333333333 723 873 c 1
 721 873 l 1
 719 856.333333333 716.5 838.666666667 713.5 820 c 128
 710.5 801.333333333 703 768.666666667 691 722 c 2
 521 61 l 2
 510.333333333 20.3333333333 492.333333333 0 467 0 c 2
 347 0 l 2
 321.666666667 0 303.666666667 20.3333333333 293 61 c 2
 45 1001 l 2
EndSplineSet
Fore
SplineSet
42 972 m 2
 27.3333333333 1024 38.3333333333 1050 75 1050 c 2
 244 1050 l 2
 276 1050 296 1033 304 999 c 2
 439 413 l 2
 447 379 454 346.333333333 460 315 c 128
 466 283.666666667 469.666666667 258 471 238 c 1
 477 238 l 1
 478.333333333 258 482 284.166666667 488 316.5 c 128
 494 348.833333333 501 381 509 413 c 2
 651 999 l 2
 659 1033 679 1050 711 1050 c 2
 893 1050 l 2
 925 1050 945 1033 953 999 c 2
 1095 413 l 2
 1103 381 1110 348.833333333 1116 316.5 c 128
 1122 284.166666667 1125.66666667 258 1127 238 c 1
 1133 238 l 1
 1134.33333333 258 1138 283.666666667 1144 315 c 128
 1150 346.333333333 1157 379 1165 413 c 2
 1300 999 l 2
 1308 1033 1328 1050 1360 1050 c 2
 1529 1050 l 2
 1565.66666667 1050 1576.66666667 1024 1562 972 c 2
 1302 67 l 2
 1289.33333333 22.3333333333 1265 0 1229 0 c 2
 1048 0 l 2
 1010 0 985.666666667 22.3333333333 975 67 c 2
 830 660 l 2
 821.333333333 694 815.166666667 721.333333333 811.5 742 c 128
 807.833333333 762.666666667 805.333333333 785.666666667 804 811 c 1
 800 811 l 1
 798.666666667 785.666666667 796.166666667 762.666666667 792.5 742 c 128
 788.833333333 721.333333333 782.666666667 694 774 660 c 2
 629 67 l 2
 618.333333333 22.3333333333 594 0 556 0 c 2
 375 0 l 2
 339 0 314.666666667 22.3333333333 302 67 c 2
 42 972 l 2
EndSplineSet
EndChar

StartChar: L
Encoding: 76 76 134
Width: 1162
Flags: HW
HStem: 0 248<452 1107.78> 1414 20G<195 422>
VStem: 160 292<248 1430.91>
LayerCount: 2
Fore
SplineSet
230 0 m 2
 183.333333333 0 160 25 160 75 c 2
 160 1359 l 2
 160 1409 183.333333333 1434 230 1434 c 2
 392 1434 l 2
 432 1434 452 1409 452 1359 c 2
 452 248 l 17
 1035 248 l 2
 1085 248 1110 226.333333333 1110 183 c 2
 1110 65 l 2
 1110 21.6666666667 1085 0 1035 0 c 2
 230 0 l 2
EndSplineSet
EndChar

StartChar: D
Encoding: 68 68 135
Width: 1450
Flags: HW
HStem: 0 248<452 856.49> 1188 246<452 860.096>
VStem: 160 292<248 1188> 1052 312<445.797 991.764>
LayerCount: 2
Fore
SplineSet
230 0 m 2
 183.333333333 0 160 25 160 75 c 2
 160 1359 l 2
 160 1409 183.333333333 1434 230 1434 c 2
 579 1434 l 2
 885.666666667 1434 1093.16666667 1372 1201.5 1248 c 128
 1309.83333333 1124 1364 947.666666667 1364 719 c 256
 1364 490.333333333 1309.83333333 313.333333333 1201.5 188 c 128
 1093.16666667 62.6666666667 885.666666667 0 579 0 c 10
 230 0 l 2
452 248 m 1
 560 248 l 2
 766.666666667 248 900.333333333 286.5 961 363.5 c 128
 1021.66666667 440.5 1052 559 1052 719 c 256
 1052 879 1021.66666667 997.166666667 961 1073.5 c 128
 900.333333333 1149.83333333 766.666666667 1188 560 1188 c 2
 452 1188 l 1
 452 248 l 1
EndSplineSet
EndChar

StartChar: exclam
Encoding: 33 33 136
Width: 668
Flags: HW
HStem: 0 284<191.845 476.155> 1414 20G<218 450>
VStem: 188 292<3.09448 280.906 966.232 1431.78> 211 246<422.285 949.062>
LayerCount: 2
Fore
SplineSet
184 1359 m 2
 182.666666667 1409 206 1434 254 1434 c 2
 414 1434 l 2
 462 1434 485.333333333 1409 484 1359 c 2
 457 485 l 2
 455.666666667 441.666666667 434 420 392 420 c 2
 276 420 l 2
 234 420 212.333333333 441.666666667 211 485 c 2
 184 1359 l 2
258 0 m 2
 211.333333333 0 188 25 188 75 c 2
 188 209 l 2
 188 259 211.333333333 284 258 284 c 2
 410 284 l 2
 456.666666667 284 480 259 480 209 c 2
 480 75 l 2
 480 25 456.666666667 0 410 0 c 2
 258 0 l 2
EndSplineSet
EndChar

StartChar: one
Encoding: 49 49 137
Width: 907
Flags: HW
HStem: 0 21G<469 689> 1420 20G<479.5 689>
VStem: 439 280<1.18652 1091>
LayerCount: 2
Back
SplineSet
161 1151 m 2
 152.1 1172.24666667 160.1 1187.58 185 1197 c 256
 236.333333333 1216.33333333 285 1247.33333333 331 1290 c 128
 377 1332.66666667 413.333333333 1370.66666667 440 1404 c 256
 459.333333333 1428 478 1440 496 1440 c 2
 581 1440 l 6
 611.666666667 1440 627 1425 627 1395 c 6
 627 45 l 6
 627 15 612 0 582 0 c 6
 496 0 l 6
 466 0 451 15 451 45 c 6
 451 1121 l 2
 451 1147.66666667 452.333333333 1174.33333333 455 1201 c 1
 451 1201 l 1
 430.333333333 1175 400 1148.33333333 360 1121 c 128
 320 1093.66666667 283.333333333 1073.66666667 250 1061 c 256
 220.566 1049.62666667 201.232666667 1054.96 192 1077 c 258
 161 1151 l 2
EndSplineSet
Fore
SplineSet
155 1138 m 2
 137.666666667 1170.66666667 149.333333333 1196 190 1214 c 256
 228.666666667 1231.33333333 269 1255.66666667 311 1287 c 128
 353 1318.33333333 387.333333333 1350.66666667 414 1384 c 256
 444 1421.33333333 472.666666667 1440 500 1440 c 2
 659 1440 l 2
 699 1440 719 1420 719 1380 c 2
 719 60 l 2
 719 20 699 0 659 0 c 2
 499 0 l 6
 459 0 439 20 439 60 c 2
 439 1011 l 2
 439 1037.66666667 440.333333333 1064.33333333 443 1091 c 1
 439 1091 l 1
 418.333333333 1065 395.666666667 1042.66666667 371 1024 c 128
 346.333333333 1005.33333333 321.333333333 990.666666667 296 980 c 256
 264.666666667 966.666666667 241 975.333333333 225 1006 c 258
 155 1138 l 2
EndSplineSet
EndChar

StartChar: one.tab
Encoding: 65536 -1 138
Width: 1200
Flags: HW
HStem: 0 248<187.234 460 740 1012.77> 1420 20G<500.5 710>
VStem: 460 280<248 1091>
LayerCount: 2
Fore
SplineSet
176 1138 m 258
 158.674666667 1170.67333333 170.341333333 1196.00666667 211 1214 c 256
 249.666666667 1231.33333333 290 1255.66666667 332 1287 c 128
 374 1318.33333333 408.333333333 1350.66666667 435 1384 c 0
 465 1421.33333333 493.666666667 1440 521 1440 c 2
 680 1440 l 2
 720 1440 740 1420 740 1380 c 2
 740 248 l 5
 938 248 l 6
 988 248 1013 226.333333333 1013 183 c 6
 1013 65 l 6
 1013 21.6666666667 988.333333333 0 939 0 c 6
 261 0 l 6
 211.666666667 0 187 21.6666666667 187 65 c 6
 187 183 l 6
 187 226.333333333 212 248 262 248 c 6
 460 248 l 5
 460 1011 l 2
 460 1037.66666667 461.333333333 1064.33333333 464 1091 c 1
 460 1091 l 1
 439.333333333 1065 416.666666667 1042.66666667 392 1024 c 128
 367.333333333 1005.33333333 342.333333333 990.666666667 317 980 c 256
 285.880666667 966.758 262.214 975.424666667 246 1006 c 258
 176 1138 l 258
EndSplineSet
EndChar

StartChar: U
Encoding: 85 85 139
Width: 1422
Flags: HW
HStem: -34 236<562.054 859.946> 1414 20G<195 417 1005 1227>
VStem: 160 292<322.828 1431.73> 970 292<322.828 1431.73>
LayerCount: 2
Fore
SplineSet
160 597 m 2
 160 1379 l 2
 160 1415.66666667 183.333333333 1434 230 1434 c 2
 382 1434 l 2
 428.666666667 1434 452 1415.66666667 452 1379 c 2
 452 607 l 2
 452 427 478.5 314.5 531.5 269.5 c 128
 584.5 224.5 644.333333333 202 711 202 c 256
 777.666666667 202 837.5 224.5 890.5 269.5 c 128
 943.5 314.5 970 427 970 607 c 2
 970 1379 l 2
 970 1415.66666667 993.333333333 1434 1040 1434 c 2
 1192 1434 l 2
 1238.66666667 1434 1262 1415.66666667 1262 1379 c 2
 1262 597 l 2
 1262 363.666666667 1212.66666667 200.166666667 1114 106.5 c 128
 1015.33333333 12.8333333333 881 -34 711 -34 c 256
 541 -34 406.666666667 12.8333333333 308 106.5 c 128
 209.333333333 200.166666667 160 363.666666667 160 597 c 2
EndSplineSet
EndChar

StartChar: N
Encoding: 78 78 140
Width: 1472
Flags: HW
HStem: 0 21G<195 417 1061 1277> 1414 20G<195 421 1055 1277>
VStem: 160 292<3.09448 904> 1020 292<545 1430.91>
DStem2: 508 1364 454 904 0.529084 -0.848569<361.771 964.811>
LayerCount: 2
Back
SplineSet
974 616 m 6
 454 1450 l 1037
974 70 m 2
 454 904 l 1033
220 0 m 2
 186.666666667 0 170 18.3333333333 170 55 c 2
 170 1379 l 2
 170 1415.66666667 186.666666667 1434 220 1434 c 2
 348 1434 l 2
 394.666666667 1434 428 1417.33333333 448 1384 c 2
 1074 335 l 9
 1078 335 l 17
 1076.66666667 361.666666667 1076 388.333333333 1076 415 c 2
 1076 1379 l 2
 1076 1415.66666667 1092.66666667 1434 1126 1434 c 2
 1218 1434 l 2
 1251.33333333 1434 1268 1415.66666667 1268 1379 c 2
 1268 55 l 2
 1268 18.3333333333 1251.33333333 0 1218 0 c 2
 1130 0 l 2
 1083.33333333 0 1050 16.6666666667 1030 50 c 2
 364 1163 l 9
 360 1163 l 25
 361.333333333 1136.33333333 362 1109.66666667 362 1083 c 2
 362 55 l 2
 362 18.3333333333 345.333333333 0 312 0 c 2
 220 0 l 2
376 1144 m 2
 1002 95 l 1033
448 1384 m 2
 1074 335 l 1033
EndSplineSet
Fore
SplineSet
230 0 m 2
 183.333333333 0 160 25 160 75 c 2
 160 1359 l 2
 160 1409 183.333333333 1434 230 1434 c 2
 378 1434 l 2
 435.333333333 1434 478.666666667 1410.66666667 508 1364 c 2
 1018 545 l 9
 1025 545 l 25
 1021.66666667 585 1020 625 1020 665 c 2
 1020 1359 l 2
 1020 1409 1043.33333333 1434 1090 1434 c 2
 1242 1434 l 2
 1288.66666667 1434 1312 1409 1312 1359 c 2
 1312 75 l 2
 1312 25 1288.66666667 0 1242 0 c 2
 1104 0 l 2
 1046.66666667 0 1003.33333333 23.3333333333 974 70 c 2
 454 904 l 9
 447 904 l 17
 450.333333333 864 452 824 452 784 c 2
 452 75 l 2
 452 25 428.666666667 0 382 0 c 2
 230 0 l 2
EndSplineSet
EndChar

StartChar: G
Encoding: 71 71 141
Width: 1506
Flags: HMW
HStem: -34 236<585.21 1023.83> 476 248<812.216 1102> 1232 236<584.014 965.098>
VStem: 86 312<424.146 1009.85> 1102 292<265.169 476>
LayerCount: 2
Back
SplineSet
86 717 m 256
 86 947 144.333333333 1129.66666667 261 1265 c 128
 377.666666667 1400.33333333 546 1468 766 1468 c 256
 892.666666667 1468 1000 1448.33333333 1088 1409 c 128
 1176 1369.66666667 1238 1312.66666667 1274 1238 c 256
 1298 1188.66666667 1294 1155.33333333 1262 1138 c 258
 1142 1074 l 258
 1100 1051.33333333 1065.33333333 1064 1038 1112 c 256
 1020.66666667 1142.66666667 988.5 1170.33333333 941.5 1195 c 128
 894.5 1219.66666667 839.333333333 1232 776 1232 c 256
 636 1232 538 1187.83333333 482 1099.5 c 128
 426 1011.16666667 398 883.666666667 398 717 c 256
 398 550.333333333 426 422.833333333 482 334.5 c 128
 538 246.166666667 636 202 776 202 c 256
 851.333333333 202 914.833333333 219 966.5 253 c 152
 1018.16666667 287 1054 319.333333333 1074 350 c 256
 1106.66666667 400 1141.33333333 412.666666667 1178 388 c 258
 1298 308 l 258
 1330.66666667 286 1334 252.666666667 1308 208 c 256
 1269.33333333 141.333333333 1203 84.3333333333 1109 37 c 152
 1015 -10.3333333333 900.666666667 -34 766 -34 c 256
 549.333333333 -34 381.833333333 33.6666666667 263.5 169 c 128
 145.166666667 304.333333333 86 487 86 717 c 256
92 719 m 256
 92 952.333333333 152.333333333 1134.83333333 273 1266.5 c 128
 393.666666667 1398.16666667 561.333333333 1464 776 1464 c 256
 904.666666667 1464 1009.66666667 1441.83333333 1091 1397.5 c 128
 1172.33333333 1353.16666667 1232 1301 1270 1241 c 256
 1293.33333333 1204.33333333 1293 1177.33333333 1269 1160 c 2
 1194 1108 l 2
 1169.33333333 1090.66666667 1144.66666667 1101 1120 1139 c 256
 1100 1169 1062.33333333 1204.66666667 1007 1246 c 128
 951.666666667 1287.33333333 878 1308 786 1308 c 256
 622.666666667 1308 500.333333333 1256.16666667 419 1152.5 c 128
 337.666666667 1048.83333333 297 903.666666667 297 717 c 256
 297 530.333333333 336.666666667 385.166666667 416 281.5 c 128
 495.333333333 177.833333333 622 126 796 126 c 256
 882.666666667 126 958.166666667 136.5 1022.5 157.5 c 152
 1086.83333333 178.5 1132 207.666666667 1158 245 c 9
 1158 510 l 1
 861 510 l 2
 824.333333333 510 806 525 806 555 c 2
 806 629 l 2
 806 659 824.333333333 674 861 674 c 2
 1295 674 l 2
 1331.66666667 674 1350 659 1350 629 c 2
 1350 157 l 17
 1268.66666667 97.6666666667 1187.33333333 51.6666666667 1106 19 c 152
 1024.66666667 -13.6666666667 918 -30 786 -30 c 256
 566 -30 395.333333333 36.5 274 169.5 c 128
 152.666666667 302.5 92 485.666666667 92 719 c 256
EndSplineSet
Fore
SplineSet
86 717 m 256
 86 947 146 1129.66666667 266 1265 c 128
 386 1400.33333333 556 1468 776 1468 c 256
 908.666666667 1468 1012.83333333 1451 1088.5 1417 c 128
 1164.16666667 1383 1230.66666667 1330.33333333 1288 1259 c 256
 1322.66666667 1215.66666667 1321.66666667 1182 1285 1158 c 258
 1171 1084 l 258
 1137.66666667 1062 1102 1071.66666667 1064 1113 c 256
 1032.66666667 1147 993 1175.33333333 945 1198 c 128
 897 1220.66666667 844 1232 786 1232 c 256
 646 1232 546.333333333 1187.83333333 487 1099.5 c 128
 427.666666667 1011.16666667 398 883.666666667 398 717 c 256
 398 550.333333333 427.666666667 422.833333333 487 334.5 c 128
 546.333333333 246.166666667 646 202 786 202 c 256
 854 202 912.666666667 208.833333333 962 222.5 c 152
 1011.33333333 236.166666667 1058 261 1102 297 c 9
 1102 476 l 1
 885 476 l 2
 835 476 810 497.666666667 810 541 c 2
 810 659 l 2
 810 702.333333333 835 724 885 724 c 2
 1319 724 l 2
 1369 724 1394 702.333333333 1394 659 c 2
 1394 151 l 17
 1300.66666667 82.3333333333 1206.5 34.3333333333 1111.5 7 c 152
 1016.5 -20.3333333333 904.666666667 -34 776 -34 c 256
 559.333333333 -34 390.166666667 33.6666666667 268.5 169 c 128
 146.833333333 304.333333333 86 487 86 717 c 256
EndSplineSet
EndChar

StartChar: J
Encoding: 74 74 142
Width: 947
Flags: HW
HStem: -34 236<168.399 439.114> 1414 20G<530 752>
VStem: 495 292<263.019 1430.91>
LayerCount: 2
Fore
SplineSet
77 19 m 256
 41.6666666667 39.6666666667 28.3333333333 64.6666666667 37 94 c 2
 79 231 l 2
 91 270.333333333 122.333333333 274.333333333 173 243 c 256
 216.333333333 215.666666667 264.666666667 202 318 202 c 256
 391.333333333 202 439.166666667 227.333333333 461.5 278 c 128
 483.833333333 328.666666667 495 413 495 531 c 2
 495 1359 l 2
 495 1409 518.333333333 1434 565 1434 c 2
 717 1434 l 2
 763.666666667 1434 787 1409 787 1359 c 2
 787 551 l 2
 787 305.666666667 745.833333333 146.833333333 663.5 74.5 c 128
 581.166666667 2.16666666667 467 -34 321 -34 c 256
 219 -34 137.666666667 -16.3333333333 77 19 c 256
EndSplineSet
EndChar

StartChar: K
Encoding: 75 75 143
Width: 1361
Flags: HW
HStem: 0 21G<195 417 1052 1311.5> 1414 20G<195 417 1013 1291.5>
VStem: 160 292<3.09448 447 841 1430.91>
DStem2: 454 841 816 850 0.672632 0.739977<250.153 840.263> 816 850 620 636 0.537518 -0.843252<75.1024 857.589>
LayerCount: 2
Back
SplineSet
511 810 m 1
 998 46 l 1026
816 850 m 1
 1303 86 l 1026
190.25 159.25 m 1
 1283.75 1360.75 l 1026
454 841 m 1
 940 1375 l 1026
220 0 m 2
 186.666666667 0 170 18.3333333333 170 55 c 2
 170 1379 l 2
 170 1415.66666667 186.666666667 1434 220 1434 c 2
 312 1434 l 2
 345.333333333 1434 362 1415.66666667 362 1379 c 2
 362 791 l 2
 362 764.333333333 361.333333333 737.666666667 360 711 c 1
 364 711 l 1
 1032 1395 l 2
 1057.33333333 1421 1080.66666667 1434 1102 1434 c 2
 1223 1434 l 2
 1278.33333333 1434 1284.33333333 1412 1241 1368 c 2
 733 850 l 1
 1268 66 l 2
 1297.33333333 22 1291.33333333 0 1250 0 c 2
 1128 0 l 2
 1098.66666667 0 1075.33333333 13 1058 39 c 2
 601 714 l 1
 362 471 l 1
 362 55 l 2
 362 18.3333333333 345.333333333 0 312 0 c 2
 220 0 l 2
EndSplineSet
Fore
SplineSet
230 0 m 2
 183.333333333 0 160 25 160 75 c 2
 160 1359 l 2
 160 1409 183.333333333 1434 230 1434 c 2
 382 1434 l 2
 428.666666667 1434 452 1409 452 1359 c 2
 452 961 l 2
 452 921 450.333333333 881 447 841 c 1
 454 841 l 1
 940 1375 l 2
 976 1414.33333333 1006.66666667 1434 1032 1434 c 2
 1233 1434 l 2
 1311 1434 1323.66666667 1405.33333333 1271 1348 c 2
 816 850 l 1
 1303 86 l 2
 1339.66666667 28.6666666667 1327 0 1265 0 c 2
 1078 0 l 2
 1043.33333333 0 1013.33333333 19.6666666667 988 59 c 2
 620 636 l 1
 452 447 l 1
 452 75 l 2
 452 25 428.666666667 0 382 0 c 2
 230 0 l 2
EndSplineSet
EndChar

StartChar: Q
Encoding: 81 81 144
Width: 1544
Flags: HW
HStem: -407 205<967.344 1283.9> 1232 236<581.193 962.807>
VStem: 86 312<424.146 1009.85> 1146 312<424.146 1009.85>
LayerCount: 2
Back
SplineSet
86 717 m 256
 86 947 145.333333333 1129.66666667 264 1265 c 128
 382.666666667 1400.33333333 552 1468 772 1468 c 256
 992 1468 1161.33333333 1400.33333333 1280 1265 c 128
 1398.66666667 1129.66666667 1458 947 1458 717 c 256
 1458 487 1398.66666667 304.333333333 1280 169 c 128
 1161.33333333 33.6666666667 992 -34 772 -34 c 256
 552 -34 382.666666667 33.6666666667 264 169 c 128
 145.333333333 304.333333333 86 487 86 717 c 256
398 717 m 256
 398 550.333333333 427.833333333 422.833333333 487.5 334.5 c 128
 547.166666667 246.166666667 642 202 772 202 c 256
 902 202 996.833333333 246.166666667 1056.5 334.5 c 128
 1116.16666667 422.833333333 1146 550.333333333 1146 717 c 256
 1146 883.666666667 1116.16666667 1011.16666667 1056.5 1099.5 c 128
 996.833333333 1187.83333333 902 1232 772 1232 c 256
 642 1232 547.166666667 1187.83333333 487.5 1099.5 c 128
 427.833333333 1011.16666667 398 883.666666667 398 717 c 256
918 -17 m 1
 923.333333333 -80.3333333333 943 -127 977 -157 c 128
 1011 -187 1057.33333333 -202 1116 -202 c 0
 1150.26666667 -202 1185.6 -197.333333333 1222 -188 c 256
 1255.08 -179.516666667 1274.41333333 -186.85 1280 -210 c 2
 1308 -326 l 2
 1314.24666667 -351.890666667 1302.24666667 -368.557333333 1272 -376 c 0
 1193.33333333 -396.666666667 1130.66666667 -407 1084 -407 c 0
 905.333333333 -407 786 -369.166666667 726 -293.5 c 128
 666 -217.833333333 632.666666667 -126.333333333 626 -19 c 1
 918 -17 l 1
86 717 m 260
 86 947 145.333333333 1129.66666667 264 1265 c 132
 382.666666667 1400.33333333 552 1468 772 1468 c 260
 992 1468 1161.33333333 1400.33333333 1280 1265 c 132
 1398.66666667 1129.66666667 1458 947 1458 717 c 260
 1458 487 1398.66666667 304.333333333 1280 169 c 132
 1161.33333333 33.6666666667 992 -34 772 -34 c 260
 552 -34 382.666666667 33.6666666667 264 169 c 132
 145.333333333 304.333333333 86 487 86 717 c 260
398 717 m 260
 398 550.333333333 427.833333333 422.833333333 487.5 334.5 c 132
 547.166666667 246.166666667 642 202 772 202 c 260
 902 202 996.833333333 246.166666667 1056.5 334.5 c 132
 1116.16666667 422.833333333 1146 550.333333333 1146 717 c 260
 1146 883.666666667 1116.16666667 1011.16666667 1056.5 1099.5 c 132
 996.833333333 1187.83333333 902 1232 772 1232 c 260
 642 1232 547.166666667 1187.83333333 487.5 1099.5 c 132
 427.833333333 1011.16666667 398 883.666666667 398 717 c 260
867 -24 m 1
 873.666666667 -88.6666666667 897.666666667 -140.333333333 939 -179 c 128
 980.333333333 -217.666666667 1039.33333333 -237 1116 -237 c 0
 1157.33333333 -237 1191 -233.666666667 1217 -227 c 256
 1243 -220.333333333 1257.66666667 -224 1261 -238 c 2
 1281 -326 l 2
 1284.33333333 -342 1276 -352.333333333 1256 -357 c 0
 1196.66666667 -370.333333333 1139.33333333 -377 1084 -377 c 0
 940.666666667 -377 838.166666667 -341.166666667 776.5 -269.5 c 128
 714.833333333 -197.833333333 681 -116.666666667 675 -26 c 1025
92 719 m 260
 92 952.333333333 149.5 1134.83333333 264.5 1266.5 c 132
 379.5 1398.16666667 545.333333333 1464 762 1464 c 260
 978.666666667 1464 1144.5 1397.83333333 1259.5 1265.5 c 132
 1374.5 1133.16666667 1432 950.333333333 1432 717 c 260
 1432 483.666666667 1374.5 300.833333333 1259.5 168.5 c 132
 1144.5 36.1666666667 978.666666667 -30 762 -30 c 260
 545.333333333 -30 379.5 36.5 264.5 169.5 c 132
 149.5 302.5 92 485.666666667 92 719 c 260
297 719 m 260
 297 532.333333333 335.333333333 386.833333333 412 282.5 c 132
 488.666666667 178.166666667 605.333333333 126 762 126 c 260
 918.666666667 126 1035.33333333 178.166666667 1112 282.5 c 132
 1188.66666667 386.833333333 1227 532.333333333 1227 719 c 260
 1227 905.666666667 1188.66666667 1050.5 1112 1153.5 c 132
 1035.33333333 1256.5 918.666666667 1308 762 1308 c 260
 605.333333333 1308 488.666666667 1256.5 412 1153.5 c 132
 335.333333333 1050.5 297 905.666666667 297 719 c 260
EndSplineSet
Fore
SplineSet
86 717 m 256
 86 947 145.333333333 1129.66666667 264 1265 c 128
 382.666666667 1400.33333333 552 1468 772 1468 c 256
 992 1468 1161.33333333 1400.33333333 1280 1265 c 128
 1398.66666667 1129.66666667 1458 947 1458 717 c 256
 1458 487 1398.66666667 304.333333333 1280 169 c 0
 1189.33333333 65.6666666667 1069 1.66666666667 919 -23 c 1
 925 -83 940.833333333 -127.833333333 966.5 -157.5 c 128
 992.166666667 -187.166666667 1042 -202 1116 -202 c 256
 1150 -202 1185.33333333 -197.333333333 1222 -188 c 256
 1255.33333333 -179.333333333 1274.66666667 -186.666666667 1280 -210 c 258
 1308 -326 l 258
 1314 -352 1302 -368.666666667 1272 -376 c 256
 1193.33333333 -396.666666667 1130.66666667 -407 1084 -407 c 256
 905.333333333 -407 786.166666667 -369.333333333 726.5 -294 c 128
 666.833333333 -218.666666667 633.333333333 -128.333333333 626 -23 c 1
 475.333333333 1 354.666666667 65 264 169 c 0
 145.333333333 304.333333333 86 487 86 717 c 256
398 717 m 256
 398 550.333333333 427.833333333 422.833333333 487.5 334.5 c 128
 547.166666667 246.166666667 642 202 772 202 c 256
 902 202 996.833333333 246.166666667 1056.5 334.5 c 128
 1116.16666667 422.833333333 1146 550.333333333 1146 717 c 256
 1146 883.666666667 1116.16666667 1011.16666667 1056.5 1099.5 c 128
 996.833333333 1187.83333333 902 1232 772 1232 c 256
 642 1232 547.166666667 1187.83333333 487.5 1099.5 c 128
 427.833333333 1011.16666667 398 883.666666667 398 717 c 256
EndSplineSet
EndChar

StartChar: R
Encoding: 82 82 145
Width: 1428
Flags: HW
HStem: 0 21G<195 417 1084.5 1332.5> 579 248<452 667.485> 1190 244<452 938.742>
VStem: 160 292<3.09448 579 827 1190> 1000 286<903.447 1134.35>
DStem2: 1324 86 820 396 0.535457 -0.844562<-661.949 -35.0615>
LayerCount: 2
Back
SplineSet
220 0 m 2
 186.666666667 0 170 18.3333333333 170 55 c 6
 170 1379 l 2
 170 1415.66666667 186.666666667 1434 220 1434 c 2
 703 1434 l 2
 895.666666667 1434 1035.16666667 1398 1121.5 1326 c 128
 1207.83333333 1254 1251 1159 1251 1041 c 256
 1251 937 1216.16666667 849.666666667 1146.5 779 c 128
 1076.83333333 708.333333333 977.666666667 667.666666667 849 657 c 1
 849 655 l 1
 917 604.333333333 962 565.833333333 984 539.5 c 128
 1006 513.166666667 1030.66666667 477.666666667 1058 433 c 2
 1284 66 l 6
 1311.33333333 22 1305.33333333 0 1266 0 c 2
 1152 0 l 2
 1120.66666667 0 1097.33333333 13 1082 39 c 6
 874 396 l 2
 844 447.333333333 801 497.666666667 745 547 c 128
 689 596.333333333 619.333333333 621 536 621 c 2
 362 621 l 1
 362 55 l 6
 362 18.3333333333 345.333333333 0 312 0 c 2
 220 0 l 2
362 785 m 1
 641 785 l 2
 771 785 871 802.166666667 941 836.5 c 128
 1011 870.833333333 1046 943 1046 1053 c 256
 1046 1137 1014 1194.16666667 950 1224.5 c 128
 886 1254.83333333 799 1270 689 1270 c 2
 362 1270 l 1
 362 785 l 1
EndSplineSet
Fore
SplineSet
230 0 m 2
 183.333333333 0 160 25 160 75 c 2
 160 1359 l 2
 160 1409 183.333333333 1434 230 1434 c 2
 693 1434 l 2
 899 1434 1049.33333333 1402.16666667 1144 1338.5 c 128
 1238.66666667 1274.83333333 1286 1171.33333333 1286 1028 c 256
 1286 921.333333333 1247.66666667 836.333333333 1171 773 c 128
 1094.33333333 709.666666667 997 667.666666667 879 647 c 1
 879 645 l 1
 943 621 991.333333333 587.666666667 1024 545 c 128
 1056.66666667 502.333333333 1083.33333333 465 1104 433 c 2
 1324 86 l 2
 1360.66666667 28.6666666667 1348 0 1286 0 c 2
 1112 0 l 2
 1075.33333333 0 1045.33333333 19.6666666667 1022 59 c 2
 820 396 l 2
 798 432 757.833333333 471.5 699.5 514.5 c 128
 641.166666667 557.5 583.333333333 579 526 579 c 2
 452 579 l 1
 452 75 l 2
 452 25 428.666666667 0 382 0 c 2
 230 0 l 2
452 827 m 1
 631 827 l 2
 764.333333333 827 859.166666667 842.166666667 915.5 872.5 c 128
 971.833333333 902.833333333 1000 951 1000 1017 c 256
 1000 1089 972.833333333 1135.83333333 918.5 1157.5 c 128
 864.166666667 1179.16666667 784.333333333 1190 679 1190 c 2
 452 1190 l 1
 452 827 l 1
EndSplineSet
EndChar

StartChar: Y
Encoding: 89 89 146
Width: 1368
Flags: HW
HStem: 0 21G<573 795> 1414 20G<49 299 1069 1319>
VStem: 538 292<2.26929 525>
DStem2: 578 994 51 1348 0.509258 -0.860614<-536.779 262.567> 790 994 830 525 0.509258 0.860614<-262.567 536.779>
LayerCount: 2
Back
SplineSet
835 525 m 1
 348 1348 l 1042
54 1368 m 18
 25.3333333333 1412 34.3333333333 1434 81 1434 c 2
 193 1434 l 2
 222.333333333 1434 246.333333333 1417.66666667 265 1385 c 10
 519 948 l 2
 547 900 571 858.166666667 591 822.5 c 128
 611 786.833333333 630.333333333 749 649 709 c 1
 653 709 l 1
 671.666666667 749 691 786.833333333 711 822.5 c 128
 731 858.166666667 755 900 783 948 c 2
 1037 1385 l 18
 1055.66666667 1417.66666667 1079.66666667 1434 1109 1434 c 2
 1221 1434 l 2
 1267.66666667 1434 1276.66666667 1412 1248 1368 c 10
 747 590 l 1
 747 55 l 2
 747 18.3333333333 730.333333333 0 697 0 c 2
 605 0 l 2
 571.666666667 0 555 18.3333333333 555 55 c 2
 555 590 l 1
 54 1368 l 18
EndSplineSet
Fore
SplineSet
51 1348 m 18
 17 1405.33333333 32.6666666667 1434 98 1434 c 2
 273 1434 l 2
 307.666666667 1434 338.333333333 1411 365 1365 c 10
 578 994 l 2
 584 984 601.666666667 952.833333333 631 900.5 c 128
 660.333333333 848.166666667 677.333333333 797.333333333 682 748 c 1
 686 748 l 1
 690.666666667 797.333333333 707.666666667 848.166666667 737 900.5 c 128
 766.333333333 952.833333333 784 984 790 994 c 2
 1003 1365 l 18
 1029.66666667 1411 1060.33333333 1434 1095 1434 c 2
 1270 1434 l 2
 1335.33333333 1434 1351 1405.33333333 1317 1348 c 10
 830 525 l 1
 830 55 l 2
 830 18.3333333333 806.666666667 0 760 0 c 2
 608 0 l 2
 561.333333333 0 538 18.3333333333 538 55 c 2
 538 525 l 1
 51 1348 l 18
EndSplineSet
EndChar

StartChar: W
Encoding: 87 87 147
Width: 2022
Flags: HW
HStem: 0 21G<445 683 1339 1577> 1414 20G<57 299.5 887.5 1134.5 1722.5 1965>
DStem2: 529 582 45 1354 0.261102 -0.965311<-892.937 219.443> 612 588 979 934 0.275327 0.961351<-224.904 599.113> 1187 1360 1043 934 0.275327 -0.961351<204.447 1028.46> 1493 582 1637 97 0.261102 0.965311<-219.443 892.937>
LayerCount: 2
Back
SplineSet
48 1374 m 2
 37.3333333333 1414 46 1434 74 1434 c 2
 196 1434 l 2
 217.333333333 1434 231.666666667 1418.66666667 239 1388 c 2
 462 427 l 2
 471.333333333 388.333333333 481.833333333 346.333333333 493.5 301 c 128
 505.166666667 255.666666667 515.333333333 213 524 173 c 1
 529 173 l 1
 535.666666667 212.333333333 543.5 251.333333333 552.5 290 c 152
 561.5 328.666666667 571.666666667 374 583 426 c 2
 811 1380 l 2
 819.666666667 1416 841 1434 875 1434 c 2
 1013 1434 l 2
 1047 1434 1068.33333333 1416 1077 1380 c 2
 1305 426 l 2
 1316.33333333 374 1326.5 328.666666667 1335.5 290 c 152
 1344.5 251.333333333 1352.33333333 212.333333333 1359 173 c 1
 1364 173 l 1
 1372.66666667 213 1382.83333333 255.666666667 1394.5 301 c 128
 1406.16666667 346.333333333 1416.66666667 388.333333333 1426 427 c 2
 1649 1388 l 2
 1656.33333333 1418.66666667 1670.66666667 1434 1692 1434 c 2
 1814 1434 l 2
 1842 1434 1850.66666667 1414 1840 1374 c 2
 1496 77 l 2
 1482.66666667 25.6666666667 1458 0 1422 0 c 2
 1297 0 l 2
 1263.66666667 0 1240 28 1226 84 c 2
 985 1043 l 2
 973 1091.66666667 964.333333333 1131.5 959 1162.5 c 128
 953.666666667 1193.5 949 1225.66666667 945 1259 c 1
 943 1259 l 1
 939 1225.66666667 934.333333333 1193.5 929 1162.5 c 128
 923.666666667 1131.5 915 1091.66666667 903 1043 c 2
 662 84 l 2
 648 28 624.333333333 0 591 0 c 2
 466 0 l 2
 430 0 405.333333333 25.6666666667 392 77 c 2
 48 1374 l 2
EndSplineSet
Fore
SplineSet
45 1354 m 2
 30.3333333333 1407.33333333 45.6666666667 1434 91 1434 c 2
 276 1434 l 2
 307.333333333 1434 328.333333333 1412 339 1368 c 2
 529 582 l 2
 543 524.666666667 552.166666667 485.5 556.5 464.5 c 128
 560.833333333 443.5 564.666666667 409.666666667 568 363 c 1
 573 363 l 1
 576.333333333 409.666666667 579.666666667 445 583 469 c 152
 586.333333333 493 596 532.666666667 612 588 c 2
 835 1360 l 2
 849 1409.33333333 877 1434 919 1434 c 2
 1103 1434 l 2
 1145 1434 1173 1409.33333333 1187 1360 c 2
 1410 588 l 2
 1426 532.666666667 1435.66666667 493 1439 469 c 152
 1442.33333333 445 1445.66666667 409.666666667 1449 363 c 1
 1454 363 l 1
 1457.33333333 409.666666667 1461.16666667 443.5 1465.5 464.5 c 128
 1469.83333333 485.5 1479 524.666666667 1493 582 c 2
 1683 1368 l 2
 1693.66666667 1412 1714.66666667 1434 1746 1434 c 2
 1931 1434 l 2
 1976.33333333 1434 1991.66666667 1407.33333333 1977 1354 c 2
 1637 97 l 2
 1619.66666667 32.3333333333 1588.33333333 0 1543 0 c 2
 1368 0 l 2
 1329.33333333 0 1301 32 1283 96 c 2
 1043 934 l 2
 1029.66666667 979.333333333 1022 1008.83333333 1020 1022.5 c 128
 1018 1036.16666667 1015.33333333 1061.66666667 1012 1099 c 1
 1010 1099 l 1
 1006.66666667 1061.66666667 1004 1036.16666667 1002 1022.5 c 128
 1000 1008.83333333 992.333333333 979.333333333 979 934 c 2
 739 96 l 2
 721 32 692.666666667 0 654 0 c 2
 479 0 l 2
 433.666666667 0 402.333333333 32.3333333333 385 97 c 2
 45 1354 l 2
EndSplineSet
EndChar

StartChar: three
Encoding: 51 51 148
Width: 1200
Flags: HW
HStem: -34 224<344.734 719.79> 658 218<407.778 676.539> 1232 224<362.189 717.352>
VStem: 765 292<957.653 1183.67> 807 300<279.128 557.09>
LayerCount: 2
Back
SplineSet
109 148 m 256
 82.3333333333 178.666666667 77 203.666666667 93 223 c 2
 145 286 l 2
 167.666666667 313.333333333 194.666666667 307.333333333 226 268 c 256
 260.666666667 224.666666667 303.5 189.166666667 354.5 161.5 c 128
 405.5 133.833333333 459 120 515 120 c 256
 625 120 703 147.333333333 749 202 c 128
 795 256.666666667 818 329.666666667 818 421 c 256
 818 517.666666667 787.333333333 587.666666667 726 631 c 128
 664.666666667 674.333333333 596 696 520 696 c 2
 432 696 l 2
 402 696 387 707 387 729 c 2
 387 803 l 2
 387 826.333333333 402 838 432 838 c 2
 503 838 l 2
 576.333333333 838 639.166666667 862 691.5 910 c 128
 743.833333333 958 770 1023.33333333 770 1106 c 256
 770 1163.33333333 749 1210.33333333 707 1247 c 128
 665 1283.66666667 606 1302 530 1302 c 256
 458.666666667 1302 400.333333333 1285.66666667 355 1253 c 128
 309.666666667 1220.33333333 277.666666667 1192 259 1168 c 256
 234.333333333 1136 210.333333333 1131 187 1153 c 2
 128 1210 l 2
 110.666666667 1226.66666667 118.333333333 1254.33333333 151 1293 c 256
 185.666666667 1333.66666667 235.5 1370.33333333 300.5 1403 c 128
 365.5 1435.66666667 443 1452 533 1452 c 256
 671 1452 776.333333333 1418.66666667 849 1352 c 128
 921.666666667 1285.33333333 958 1199 958 1093 c 256
 958 1009 932.166666667 938.833333333 880.5 882.5 c 128
 828.833333333 826.166666667 772.333333333 791.333333333 711 778 c 1
 711 774 l 1
 782.333333333 764 850.666666667 725.333333333 916 658 c 128
 981.333333333 590.666666667 1014 510.333333333 1014 417 c 256
 1014 278.333333333 973.833333333 169.166666667 893.5 89.5 c 128
 813.166666667 9.83333333333 685.666666667 -30 511 -30 c 256
 409.666666667 -30 326 -10.1666666667 260 29.5 c 128
 194 69.1666666667 143.666666667 108.666666667 109 148 c 256
EndSplineSet
Fore
SplineSet
100 102 m 256
 73.8156 124.156 71.8156 155.489333333 94 196 c 2
 140 280 l 2
 162.194666667 320.53 197.861333333 323.53 247 289 c 256
 288.333333333 259.666666667 335 235.833333333 387 217.5 c 128
 439 199.166666667 497 190 561 190 c 256
 649 190 712 213.833333333 750 261.5 c 128
 788 309.166666667 807 362.666666667 807 422 c 256
 807 482.666666667 784.5 537.166666667 739.5 585.5 c 128
 694.5 633.833333333 631 658 549 658 c 2
 472 658 l 2
 428.666666667 658 407 675.666666667 407 711 c 2
 407 821 l 2
 407 857.666666667 428.666666667 876 472 876 c 2
 532 876 l 2
 593.333333333 876 647.5 895 694.5 933 c 128
 741.5 971 765 1018.66666667 765 1076 c 256
 765 1120.66666667 749.5 1157.83333333 718.5 1187.5 c 128
 687.5 1217.16666667 637 1232 567 1232 c 256
 501 1232 444 1222.33333333 396 1203 c 128
 348 1183.66666667 310 1160.33333333 282 1133 c 256
 242.267333333 1093.92666667 207.934 1095.59333333 179 1138 c 2
 121 1223 l 2
 99.1002 1255.09333333 105.766866667 1287.76 141 1321 c 256
 189 1367 251 1401 327 1423 c 128
 403 1445 477.333333333 1456 550 1456 c 256
 721.333333333 1456 848.666666667 1421.83333333 932 1353.5 c 128
 1015.33333333 1285.16666667 1057 1201.66666667 1057 1103 c 256
 1057 1029.66666667 1028.33333333 962.833333333 971 902.5 c 128
 913.666666667 842.166666667 853 800.666666667 789 778 c 1
 789 774 l 1
 865 755.333333333 937 714.5 1005 651.5 c 128
 1073 588.5 1107 510.333333333 1107 417 c 256
 1107 271 1061 159.333333333 969 82 c 128
 877 4.66666666667 736.666666667 -34 548 -34 c 256
 468.666666667 -34 386.5 -21.8333333333 301.5 2.5 c 128
 216.5 26.8333333333 149.333333333 60 100 102 c 256
EndSplineSet
EndChar

StartChar: two
Encoding: 50 50 149
Width: 1200
Flags: HW
HStem: 0 248<468 1107.78> 1232 224<423.817 726.902>
VStem: 111 213<1009.28 1121.32> 794 300<868.521 1164.52>
DStem2: 435 531 468 250 0.692057 0.721843<-180 555.373>
LayerCount: 2
Fore
SplineSet
163 0 m 2
 113 0 88 21.6666666667 88 65 c 2
 88 113 l 2
 88 147.666666667 104 182 136 216 c 2
 435 531 l 2
 525 626.333333333 607.333333333 711.166666667 682 785.5 c 128
 756.666666667 859.833333333 794 935 794 1011 c 256
 794 1087 775.166666667 1142.83333333 737.5 1178.5 c 128
 699.833333333 1214.16666667 652 1232 594 1232 c 256
 502 1232 438 1210.66666667 402 1168 c 128
 366 1125.33333333 340 1079.66666667 324 1031 c 256
 308.666666667 983.666666667 280.666666667 966.666666667 240 980 c 2
 139 1014 l 258
 106.333333333 1025.33333333 97 1056.66666667 111 1108 c 256
 137 1203.33333333 190 1285.16666667 270 1353.5 c 128
 350 1421.83333333 468.666666667 1456 626 1456 c 256
 790 1456 909 1413.83333333 983 1329.5 c 128
 1057 1245.16666667 1094 1153.66666667 1094 1055 c 256
 1094 925.666666667 1040 812.166666667 932 714.5 c 128
 824 616.833333333 726 521.666666667 638 429 c 2
 468 250 l 9
 468 244 l 17
 508 246.666666667 541.333333333 248 568 248 c 2
 1035 248 l 2
 1085 248 1110 226.333333333 1110 183 c 2
 1110 65 l 2
 1110 21.6666666667 1085 0 1035 0 c 2
 163 0 l 2
EndSplineSet
EndChar

StartChar: minus
Encoding: 8722 8722 150
Width: 1280
Flags: HW
HStem: 632 186<75.2344 1204.77>
LayerCount: 2
Fore
SplineSet
135 632 m 2
 95 632 75 648.666666667 75 682 c 2
 75 768 l 2
 75 801.333333333 95 818 135 818 c 2
 1145 818 l 2
 1185 818 1205 801.333333333 1205 768 c 2
 1205 682 l 2
 1205 648.666666667 1185 632 1145 632 c 2
 135 632 l 2
EndSplineSet
EndChar

StartChar: five
Encoding: 53 53 151
Width: 1200
Flags: HW
HStem: -34 224<330.986 687.752> 702 224<467.826 723.009> 1174 248<421 989.08>
VStem: 141 280<849 1174> 796 300<290.751 619.706>
LayerCount: 2
Back
SplineSet
114 163 m 256
 88.6666666667 196.333333333 85.6666666667 221.666666667 105 239 c 258
 167 294 l 258
 189.666666667 314 216 305.666666667 246 269 c 256
 264 247 295.666666667 216.666666667 341 178 c 128
 386.333333333 139.333333333 445.333333333 120 518 120 c 256
 613.333333333 120 685.166666667 149.333333333 733.5 208 c 128
 781.833333333 266.666666667 806 344.333333333 806 441 c 256
 806 532.333333333 785.333333333 604.333333333 744 657 c 128
 702.666666667 709.666666667 640.666666667 736 558 736 c 256
 506.666666667 736 464 731 430 721 c 128
 396 711 360.666666667 690 324 658 c 256
 298.666666667 636 272 625 244 625 c 2
 197 625 l 2
 167 625 152 640 152 670 c 2
 152 1377 l 2
 152 1407 167 1422 197 1422 c 2
 887 1422 l 2
 917 1422 932 1407 932 1377 c 2
 932 1303 l 2
 932 1273 917 1258 887 1258 c 2
 338 1258 l 1
 338 863 l 2
 338 843 337.333333333 823 336 803 c 1
 340 803 l 1
 375.333333333 833.666666667 416.166666667 855.166666667 462.5 867.5 c 128
 508.833333333 879.833333333 556.666666667 886 606 886 c 256
 728.666666667 886 825.333333333 844.666666667 896 762 c 128
 966.666666667 679.333333333 1002 571 1002 437 c 256
 1002 291 958.833333333 176.666666667 872.5 94 c 128
 786.166666667 11.3333333333 668.666666667 -30 520 -30 c 256
 411.333333333 -30 323.833333333 -7.5 257.5 37.5 c 128
 191.166666667 82.5 143.333333333 124.333333333 114 163 c 256
EndSplineSet
Fore
SplineSet
101 101 m 256
 79 130.333333333 76 155.666666667 92 177 c 258
 162 273 l 258
 190 311.666666667 224 312.666666667 264 276 c 256
 288 254 325 234.166666667 375 216.5 c 128
 425 198.833333333 475 190 525 190 c 256
 601 190 665.166666667 211.333333333 717.5 254 c 128
 769.833333333 296.666666667 796 359 796 441 c 256
 796 519 779.333333333 582 746 630 c 128
 712.666666667 678 672.333333333 702 625 702 c 256
 584.333333333 702 547 698.833333333 513 692.5 c 128
 479 686.166666667 443.666666667 667 407 635 c 256
 381.666666667 613 351 602 315 602 c 2
 206 602 l 2
 162.666666667 602 141 623.666666667 141 667 c 2
 141 1357 l 2
 141 1400.33333333 162.666666667 1422 206 1422 c 2
 926 1422 l 2
 969.333333333 1422 991 1400.33333333 991 1357 c 2
 991 1239 l 2
 991 1195.66666667 969.333333333 1174 926 1174 c 2
 421 1174 l 1
 421 929 l 2
 421 902.333333333 419.666666667 875.666666667 417 849 c 1
 423 849 l 1
 458.333333333 879.666666667 497.666666667 900.166666667 541 910.5 c 128
 584.333333333 920.833333333 630.666666667 926 680 926 c 256
 796.666666667 926 895.166666667 886.166666667 975.5 806.5 c 128
 1055.83333333 726.833333333 1096 603.666666667 1096 437 c 256
 1096 283.666666667 1044.83333333 166.833333333 942.5 86.5 c 128
 840.166666667 6.16666666667 718.666666667 -34 578 -34 c 256
 460.666666667 -34 359.166666667 -21.1666666667 273.5 4.5 c 128
 187.833333333 30.1666666667 130.333333333 62.3333333333 101 101 c 256
EndSplineSet
EndChar

StartChar: quotesingle
Encoding: 39 39 152
Width: 560
Flags: HMW
HStem: 824 645<168.334 391.666>
VStem: 142 276<1093.39 1468.75>
LayerCount: 2
Back
SplineSet
253 816 m 2
 219 815 l 2
 208.333333333 815 199.833333333 816 193.5 818 c 128
 187.166666667 820 182.5 823.5 179.5 828.5 c 128
 176.5 833.5 174.666666667 838.333333333 174 843 c 128
 173.333333333 847.666666667 173 854 173 862 c 2
 173 875 l 1
 150 1420 l 2
 150 1442 153 1455.66666667 159 1461 c 0
 165.666666667 1466.33333333 176.666666667 1469 192 1469 c 2
 287 1469 l 2
 303 1469 314 1466.16666667 320 1460.5 c 128
 326 1454.83333333 329 1444.66666667 329 1430 c 2
 328 1414 l 1
 306 867 l 2
 306 845 302.5 831 295.5 825 c 128
 288.5 819 274.333333333 816 253 816 c 2
EndSplineSet
Fore
SplineSet
142 1404 m 2
 140 1447.33333333 157 1469 193 1469 c 2
 367 1469 l 2
 403 1469 420 1447.33333333 418 1404 c 2
 394 884 l 2
 392 844 375.333333333 824 344 824 c 2
 216 824 l 2
 184.666666667 824 168 844 166 884 c 2
 142 1404 l 2
EndSplineSet
EndChar

StartChar: underscore
Encoding: 95 95 154
Width: 1200
Flags: HW
HStem: -425 200<-24.7656 1224.77>
LayerCount: 2
Back
SplineSet
21 -390 m 2
 -9 -390 -24 -378.333333333 -24 -355 c 2
 -24 -295 l 2
 -24 -271.666666667 -9 -260 21 -260 c 2
 1079 -260 l 2
 1109 -260 1124 -271.666666667 1124 -295 c 2
 1124 -355 l 2
 1124 -378.333333333 1109 -390 1079 -390 c 2
 21 -390 l 2
EndSplineSet
Fore
SplineSet
35 -425 m 2
 -5 -425 -25 -408.333333333 -25 -375 c 2
 -25 -275 l 2
 -25 -241.666666667 -5 -225 35 -225 c 2
 1165 -225 l 2
 1205 -225 1225 -241.666666667 1225 -275 c 2
 1225 -375 l 2
 1225 -408.333333333 1205 -425 1165 -425 c 2
 35 -425 l 2
EndSplineSet
EndChar

StartChar: parenleft
Encoding: 40 40 155
Width: 740
Flags: HW
VStem: 115 300<158.097 929.903>
LayerCount: 2
Back
SplineSet
124 544 m 256
 124 749.333333333 158.666666667 929.333333333 228 1084 c 128
 297.333333333 1238.66666667 385 1375 491 1493 c 256
 516.333333333 1521.66666667 539 1528.33333333 559 1513 c 258
 594 1486 l 258
 614.666666667 1470 614 1450.33333333 592 1427 c 256
 532 1363 471.666666667 1255.16666667 411 1103.5 c 128
 350.333333333 951.833333333 320 765.333333333 320 544 c 256
 320 322.666666667 350.333333333 136.166666667 411 -15.5 c 128
 471.666666667 -167.166666667 532 -275 592 -339 c 256
 614 -362.333333333 614.666666667 -382 594 -398 c 258
 559 -425 l 258
 539 -440.333333333 516.333333333 -433.666666667 491 -405 c 256
 385 -287 297.333333333 -150.666666667 228 4 c 128
 158.666666667 158.666666667 124 338.666666667 124 544 c 256
EndSplineSet
Fore
SplineSet
115 544 m 256
 115 790.666666667 157.833333333 993.666666667 243.5 1153 c 128
 329.166666667 1312.33333333 414.333333333 1432.66666667 499 1514 c 256
 533.666666667 1547.33333333 561.666666667 1555.33333333 583 1538 c 258
 667 1471 l 258
 689.666666667 1453 689.666666667 1429 667 1399 c 256
 614.333333333 1330.33333333 559.166666667 1233.16666667 501.5 1107.5 c 128
 443.833333333 981.833333333 415 794 415 544 c 256
 415 294 443.833333333 106.166666667 501.5 -19.5 c 128
 559.166666667 -145.166666667 614.333333333 -242.333333333 667 -311 c 256
 689.666666667 -341 689.666666667 -365 667 -383 c 258
 583 -450 l 258
 561.666666667 -467.333333333 533.666666667 -459.333333333 499 -426 c 256
 414.333333333 -344.666666667 329.166666667 -224.333333333 243.5 -65 c 128
 157.833333333 94.3333333333 115 297.333333333 115 544 c 256
EndSplineSet
EndChar

